M48
; DRILL file {KiCad (6.0.5)} date Fri Jul  8 09:53:03 2022
; FORMAT={-:-/ absolute / metric / decimal}
; #@! TF.CreationDate,2022-07-08T09:53:03+08:00
; #@! TF.GenerationSoftware,Kicad,Pcbnew,(6.0.5)
; #@! TF.FileFunction,Plated,1,2,PTH
FMAT,2
METRIC
; #@! TA.AperFunction,Plated,PTH,ViaDrill
T1C0.300
; #@! TA.AperFunction,Plated,PTH,ComponentDrill
T2C0.300
; #@! TA.AperFunction,Plated,PTH,ComponentDrill
T3C0.600
; #@! TA.AperFunction,Plated,PTH,ComponentDrill
T4C1.000
%
G90
G05
T1
X47.371Y-39.497
X49.911Y-35.814
X55.56Y-51.628
X56.642Y-61.341
X58.42Y-58.039
X61.087Y-64.643
X61.595Y-48.641
X63.35Y-62.715
X63.627Y-50.038
X64.262Y-50.546
X64.389Y-46.609
X65.278Y-60.96
X65.532Y-36.449
X65.659Y-60.579
X65.659Y-61.341
X65.659Y-66.054
X66.04Y-60.198
X66.04Y-60.96
X66.04Y-61.722
X66.421Y-59.817
X66.421Y-60.579
X66.421Y-61.341
X66.421Y-62.103
X66.802Y-59.436
X66.802Y-60.198
X66.802Y-60.96
X66.802Y-61.722
X66.802Y-62.484
X66.929Y-41.836
X66.929Y-46.609
X67.183Y-59.817
X67.183Y-60.579
X67.183Y-61.341
X67.183Y-62.103
X67.564Y-60.198
X67.564Y-60.96
X67.564Y-61.722
X67.945Y-60.579
X67.945Y-61.341
X68.199Y-36.576
X68.326Y-60.96
X70.739Y-59.817
X70.739Y-64.135
X70.739Y-82.169
X71.495Y-34.784
X71.755Y-35.433
X73.279Y-83.312
X74.422Y-62.103
X77.724Y-40.64
X79.375Y-40.132
X80.518Y-42.291
X81.788Y-68.199
X82.105Y-65.215
T2
X56.583Y-79.121
T4
X84.656Y-32.893
X84.656Y-35.433
X84.656Y-37.973
X84.656Y-40.513
X84.656Y-43.053
X84.656Y-45.593
X84.656Y-48.133
X84.656Y-50.673
X84.656Y-53.213
X84.656Y-55.753
X84.656Y-58.293
X84.656Y-60.833
X84.656Y-63.373
X84.656Y-65.913
X84.656Y-68.453
X84.656Y-70.993
X84.656Y-73.533
X84.656Y-76.073
X89.306Y-32.893
X89.306Y-35.433
X89.306Y-37.973
X89.306Y-40.513
X89.306Y-43.053
X89.306Y-45.593
X89.306Y-48.133
X89.306Y-50.673
X89.306Y-53.213
X89.306Y-55.753
X89.306Y-58.293
X89.306Y-60.833
X89.306Y-63.373
X89.306Y-65.913
X89.306Y-68.453
X89.306Y-70.993
X89.306Y-73.533
X89.306Y-76.073
T3
G00X62.609Y-33.515
M15
G01X62.609Y-32.915
M16
G05
G00X62.609Y-37.945
M15
G01X62.609Y-36.845
M16
G05
G00X71.249Y-33.515
M15
G01X71.249Y-32.915
M16
G05
G00X71.249Y-37.945
M15
G01X71.249Y-36.845
M16
G05
T0
M30
