%TF.GenerationSoftware,KiCad,Pcbnew,(6.0.5)*%
%TF.CreationDate,2022-07-08T09:53:05+08:00*%
%TF.ProjectId,ESP32C3,45535033-3243-4332-9e6b-696361645f70,rev?*%
%TF.SameCoordinates,Original*%
%TF.FileFunction,Legend,Top*%
%TF.FilePolarity,Positive*%
%FSLAX46Y46*%
G04 Gerber Fmt 4.6, Leading zero omitted, Abs format (unit mm)*
G04 Created by KiCad (PCBNEW (6.0.5)) date 2022-07-08 09:53:05*
%MOMM*%
%LPD*%
G01*
G04 APERTURE LIST*
%ADD10C,0.150000*%
%ADD11C,0.120000*%
%ADD12C,0.254000*%
%ADD13C,0.010000*%
%ADD14C,0.152000*%
%ADD15R,0.760000X6.000000*%
G04 APERTURE END LIST*
D10*
%TO.C,C15*%
X77335142Y-36933142D02*
X77287523Y-36980761D01*
X77144666Y-37028380D01*
X77049428Y-37028380D01*
X76906571Y-36980761D01*
X76811333Y-36885523D01*
X76763714Y-36790285D01*
X76716095Y-36599809D01*
X76716095Y-36456952D01*
X76763714Y-36266476D01*
X76811333Y-36171238D01*
X76906571Y-36076000D01*
X77049428Y-36028380D01*
X77144666Y-36028380D01*
X77287523Y-36076000D01*
X77335142Y-36123619D01*
X78287523Y-37028380D02*
X77716095Y-37028380D01*
X78001809Y-37028380D02*
X78001809Y-36028380D01*
X77906571Y-36171238D01*
X77811333Y-36266476D01*
X77716095Y-36314095D01*
X79192285Y-36028380D02*
X78716095Y-36028380D01*
X78668476Y-36504571D01*
X78716095Y-36456952D01*
X78811333Y-36409333D01*
X79049428Y-36409333D01*
X79144666Y-36456952D01*
X79192285Y-36504571D01*
X79239904Y-36599809D01*
X79239904Y-36837904D01*
X79192285Y-36933142D01*
X79144666Y-36980761D01*
X79049428Y-37028380D01*
X78811333Y-37028380D01*
X78716095Y-36980761D01*
X78668476Y-36933142D01*
%TO.C,R4*%
X46393380Y-37631666D02*
X45917190Y-37965000D01*
X46393380Y-38203095D02*
X45393380Y-38203095D01*
X45393380Y-37822142D01*
X45441000Y-37726904D01*
X45488619Y-37679285D01*
X45583857Y-37631666D01*
X45726714Y-37631666D01*
X45821952Y-37679285D01*
X45869571Y-37726904D01*
X45917190Y-37822142D01*
X45917190Y-38203095D01*
X45726714Y-36774523D02*
X46393380Y-36774523D01*
X45345761Y-37012619D02*
X46060047Y-37250714D01*
X46060047Y-36631666D01*
%TO.C,C3*%
X57491333Y-52808142D02*
X57443714Y-52855761D01*
X57300857Y-52903380D01*
X57205619Y-52903380D01*
X57062761Y-52855761D01*
X56967523Y-52760523D01*
X56919904Y-52665285D01*
X56872285Y-52474809D01*
X56872285Y-52331952D01*
X56919904Y-52141476D01*
X56967523Y-52046238D01*
X57062761Y-51951000D01*
X57205619Y-51903380D01*
X57300857Y-51903380D01*
X57443714Y-51951000D01*
X57491333Y-51998619D01*
X57824666Y-51903380D02*
X58443714Y-51903380D01*
X58110380Y-52284333D01*
X58253238Y-52284333D01*
X58348476Y-52331952D01*
X58396095Y-52379571D01*
X58443714Y-52474809D01*
X58443714Y-52712904D01*
X58396095Y-52808142D01*
X58348476Y-52855761D01*
X58253238Y-52903380D01*
X57967523Y-52903380D01*
X57872285Y-52855761D01*
X57824666Y-52808142D01*
%TO.C,J4*%
X88972666Y-29575380D02*
X88972666Y-30289666D01*
X88925047Y-30432523D01*
X88829809Y-30527761D01*
X88686952Y-30575380D01*
X88591714Y-30575380D01*
X89877428Y-29908714D02*
X89877428Y-30575380D01*
X89639333Y-29527761D02*
X89401238Y-30242047D01*
X90020285Y-30242047D01*
%TO.C,R3*%
X67778333Y-51252380D02*
X67445000Y-50776190D01*
X67206904Y-51252380D02*
X67206904Y-50252380D01*
X67587857Y-50252380D01*
X67683095Y-50300000D01*
X67730714Y-50347619D01*
X67778333Y-50442857D01*
X67778333Y-50585714D01*
X67730714Y-50680952D01*
X67683095Y-50728571D01*
X67587857Y-50776190D01*
X67206904Y-50776190D01*
X68111666Y-50252380D02*
X68730714Y-50252380D01*
X68397380Y-50633333D01*
X68540238Y-50633333D01*
X68635476Y-50680952D01*
X68683095Y-50728571D01*
X68730714Y-50823809D01*
X68730714Y-51061904D01*
X68683095Y-51157142D01*
X68635476Y-51204761D01*
X68540238Y-51252380D01*
X68254523Y-51252380D01*
X68159285Y-51204761D01*
X68111666Y-51157142D01*
%TO.C,C10*%
X72949970Y-61032106D02*
X72949970Y-61099450D01*
X72882626Y-61234137D01*
X72815283Y-61301480D01*
X72680596Y-61368824D01*
X72545909Y-61368824D01*
X72444894Y-61335152D01*
X72276535Y-61234137D01*
X72175520Y-61133122D01*
X72074504Y-60964763D01*
X72040833Y-60863748D01*
X72040833Y-60729061D01*
X72108176Y-60594374D01*
X72175520Y-60527030D01*
X72310207Y-60459687D01*
X72377550Y-60459687D01*
X73690749Y-60426015D02*
X73286688Y-60830076D01*
X73488718Y-60628045D02*
X72781611Y-59920938D01*
X72815283Y-60089297D01*
X72815283Y-60223984D01*
X72781611Y-60325000D01*
X73421375Y-59281175D02*
X73488718Y-59213832D01*
X73589733Y-59180160D01*
X73657077Y-59180160D01*
X73758092Y-59213832D01*
X73926451Y-59314847D01*
X74094810Y-59483206D01*
X74195825Y-59651564D01*
X74229497Y-59752580D01*
X74229497Y-59819923D01*
X74195825Y-59920938D01*
X74128481Y-59988282D01*
X74027466Y-60021954D01*
X73960123Y-60021954D01*
X73859107Y-59988282D01*
X73690749Y-59887267D01*
X73522390Y-59718908D01*
X73421375Y-59550549D01*
X73387703Y-59449534D01*
X73387703Y-59382190D01*
X73421375Y-59281175D01*
%TO.C,C2*%
X57640333Y-73043142D02*
X57592714Y-73090761D01*
X57449857Y-73138380D01*
X57354619Y-73138380D01*
X57211761Y-73090761D01*
X57116523Y-72995523D01*
X57068904Y-72900285D01*
X57021285Y-72709809D01*
X57021285Y-72566952D01*
X57068904Y-72376476D01*
X57116523Y-72281238D01*
X57211761Y-72186000D01*
X57354619Y-72138380D01*
X57449857Y-72138380D01*
X57592714Y-72186000D01*
X57640333Y-72233619D01*
X58021285Y-72233619D02*
X58068904Y-72186000D01*
X58164142Y-72138380D01*
X58402238Y-72138380D01*
X58497476Y-72186000D01*
X58545095Y-72233619D01*
X58592714Y-72328857D01*
X58592714Y-72424095D01*
X58545095Y-72566952D01*
X57973666Y-73138380D01*
X58592714Y-73138380D01*
%TO.C,R6*%
X80970380Y-37885666D02*
X80494190Y-38219000D01*
X80970380Y-38457095D02*
X79970380Y-38457095D01*
X79970380Y-38076142D01*
X80018000Y-37980904D01*
X80065619Y-37933285D01*
X80160857Y-37885666D01*
X80303714Y-37885666D01*
X80398952Y-37933285D01*
X80446571Y-37980904D01*
X80494190Y-38076142D01*
X80494190Y-38457095D01*
X79970380Y-37028523D02*
X79970380Y-37219000D01*
X80018000Y-37314238D01*
X80065619Y-37361857D01*
X80208476Y-37457095D01*
X80398952Y-37504714D01*
X80779904Y-37504714D01*
X80875142Y-37457095D01*
X80922761Y-37409476D01*
X80970380Y-37314238D01*
X80970380Y-37123761D01*
X80922761Y-37028523D01*
X80875142Y-36980904D01*
X80779904Y-36933285D01*
X80541809Y-36933285D01*
X80446571Y-36980904D01*
X80398952Y-37028523D01*
X80351333Y-37123761D01*
X80351333Y-37314238D01*
X80398952Y-37409476D01*
X80446571Y-37457095D01*
X80541809Y-37504714D01*
%TO.C,SW2*%
X76390666Y-35329761D02*
X76533523Y-35377380D01*
X76771619Y-35377380D01*
X76866857Y-35329761D01*
X76914476Y-35282142D01*
X76962095Y-35186904D01*
X76962095Y-35091666D01*
X76914476Y-34996428D01*
X76866857Y-34948809D01*
X76771619Y-34901190D01*
X76581142Y-34853571D01*
X76485904Y-34805952D01*
X76438285Y-34758333D01*
X76390666Y-34663095D01*
X76390666Y-34567857D01*
X76438285Y-34472619D01*
X76485904Y-34425000D01*
X76581142Y-34377380D01*
X76819238Y-34377380D01*
X76962095Y-34425000D01*
X77295428Y-34377380D02*
X77533523Y-35377380D01*
X77724000Y-34663095D01*
X77914476Y-35377380D01*
X78152571Y-34377380D01*
X78485904Y-34472619D02*
X78533523Y-34425000D01*
X78628761Y-34377380D01*
X78866857Y-34377380D01*
X78962095Y-34425000D01*
X79009714Y-34472619D01*
X79057333Y-34567857D01*
X79057333Y-34663095D01*
X79009714Y-34805952D01*
X78438285Y-35377380D01*
X79057333Y-35377380D01*
%TO.C,R1*%
X73493333Y-36964380D02*
X73160000Y-36488190D01*
X72921904Y-36964380D02*
X72921904Y-35964380D01*
X73302857Y-35964380D01*
X73398095Y-36012000D01*
X73445714Y-36059619D01*
X73493333Y-36154857D01*
X73493333Y-36297714D01*
X73445714Y-36392952D01*
X73398095Y-36440571D01*
X73302857Y-36488190D01*
X72921904Y-36488190D01*
X74445714Y-36964380D02*
X73874285Y-36964380D01*
X74160000Y-36964380D02*
X74160000Y-35964380D01*
X74064761Y-36107238D01*
X73969523Y-36202476D01*
X73874285Y-36250095D01*
%TO.C,R10*%
X77335142Y-41600380D02*
X77001809Y-41124190D01*
X76763714Y-41600380D02*
X76763714Y-40600380D01*
X77144666Y-40600380D01*
X77239904Y-40648000D01*
X77287523Y-40695619D01*
X77335142Y-40790857D01*
X77335142Y-40933714D01*
X77287523Y-41028952D01*
X77239904Y-41076571D01*
X77144666Y-41124190D01*
X76763714Y-41124190D01*
X78287523Y-41600380D02*
X77716095Y-41600380D01*
X78001809Y-41600380D02*
X78001809Y-40600380D01*
X77906571Y-40743238D01*
X77811333Y-40838476D01*
X77716095Y-40886095D01*
X78906571Y-40600380D02*
X79001809Y-40600380D01*
X79097047Y-40648000D01*
X79144666Y-40695619D01*
X79192285Y-40790857D01*
X79239904Y-40981333D01*
X79239904Y-41219428D01*
X79192285Y-41409904D01*
X79144666Y-41505142D01*
X79097047Y-41552761D01*
X79001809Y-41600380D01*
X78906571Y-41600380D01*
X78811333Y-41552761D01*
X78763714Y-41505142D01*
X78716095Y-41409904D01*
X78668476Y-41219428D01*
X78668476Y-40981333D01*
X78716095Y-40790857D01*
X78763714Y-40695619D01*
X78811333Y-40648000D01*
X78906571Y-40600380D01*
%TO.C,U1*%
X68781380Y-44703904D02*
X69590904Y-44703904D01*
X69686142Y-44656285D01*
X69733761Y-44608666D01*
X69781380Y-44513428D01*
X69781380Y-44322952D01*
X69733761Y-44227714D01*
X69686142Y-44180095D01*
X69590904Y-44132476D01*
X68781380Y-44132476D01*
X69781380Y-43132476D02*
X69781380Y-43703904D01*
X69781380Y-43418190D02*
X68781380Y-43418190D01*
X68924238Y-43513428D01*
X69019476Y-43608666D01*
X69067095Y-43703904D01*
%TO.C,C9*%
X75512333Y-64492142D02*
X75464714Y-64539761D01*
X75321857Y-64587380D01*
X75226619Y-64587380D01*
X75083761Y-64539761D01*
X74988523Y-64444523D01*
X74940904Y-64349285D01*
X74893285Y-64158809D01*
X74893285Y-64015952D01*
X74940904Y-63825476D01*
X74988523Y-63730238D01*
X75083761Y-63635000D01*
X75226619Y-63587380D01*
X75321857Y-63587380D01*
X75464714Y-63635000D01*
X75512333Y-63682619D01*
X75988523Y-64587380D02*
X76179000Y-64587380D01*
X76274238Y-64539761D01*
X76321857Y-64492142D01*
X76417095Y-64349285D01*
X76464714Y-64158809D01*
X76464714Y-63777857D01*
X76417095Y-63682619D01*
X76369476Y-63635000D01*
X76274238Y-63587380D01*
X76083761Y-63587380D01*
X75988523Y-63635000D01*
X75940904Y-63682619D01*
X75893285Y-63777857D01*
X75893285Y-64015952D01*
X75940904Y-64111190D01*
X75988523Y-64158809D01*
X76083761Y-64206428D01*
X76274238Y-64206428D01*
X76369476Y-64158809D01*
X76417095Y-64111190D01*
X76464714Y-64015952D01*
%TO.C,C8*%
X60078687Y-62219388D02*
X60078687Y-62286731D01*
X60011343Y-62421418D01*
X59944000Y-62488762D01*
X59809312Y-62556105D01*
X59674625Y-62556105D01*
X59573610Y-62522434D01*
X59405251Y-62421418D01*
X59304236Y-62320403D01*
X59203221Y-62152044D01*
X59169549Y-62051029D01*
X59169549Y-61916342D01*
X59236893Y-61781655D01*
X59304236Y-61714311D01*
X59438923Y-61646968D01*
X59506267Y-61646968D01*
X60146030Y-61478609D02*
X60045015Y-61512281D01*
X59977671Y-61512281D01*
X59876656Y-61478609D01*
X59842984Y-61444937D01*
X59809312Y-61343922D01*
X59809312Y-61276579D01*
X59842984Y-61175563D01*
X59977671Y-61040876D01*
X60078687Y-61007205D01*
X60146030Y-61007205D01*
X60247045Y-61040876D01*
X60280717Y-61074548D01*
X60314389Y-61175563D01*
X60314389Y-61242907D01*
X60280717Y-61343922D01*
X60146030Y-61478609D01*
X60112358Y-61579624D01*
X60112358Y-61646968D01*
X60146030Y-61747983D01*
X60280717Y-61882670D01*
X60381732Y-61916342D01*
X60449076Y-61916342D01*
X60550091Y-61882670D01*
X60684778Y-61747983D01*
X60718450Y-61646968D01*
X60718450Y-61579624D01*
X60684778Y-61478609D01*
X60550091Y-61343922D01*
X60449076Y-61310250D01*
X60381732Y-61310250D01*
X60280717Y-61343922D01*
%TO.C,J1*%
X66595666Y-39457380D02*
X66595666Y-40171666D01*
X66548047Y-40314523D01*
X66452809Y-40409761D01*
X66309952Y-40457380D01*
X66214714Y-40457380D01*
X67595666Y-40457380D02*
X67024238Y-40457380D01*
X67309952Y-40457380D02*
X67309952Y-39457380D01*
X67214714Y-39600238D01*
X67119476Y-39695476D01*
X67024238Y-39743095D01*
%TO.C,C12*%
X49649142Y-60174142D02*
X49601523Y-60221761D01*
X49458666Y-60269380D01*
X49363428Y-60269380D01*
X49220571Y-60221761D01*
X49125333Y-60126523D01*
X49077714Y-60031285D01*
X49030095Y-59840809D01*
X49030095Y-59697952D01*
X49077714Y-59507476D01*
X49125333Y-59412238D01*
X49220571Y-59317000D01*
X49363428Y-59269380D01*
X49458666Y-59269380D01*
X49601523Y-59317000D01*
X49649142Y-59364619D01*
X50601523Y-60269380D02*
X50030095Y-60269380D01*
X50315809Y-60269380D02*
X50315809Y-59269380D01*
X50220571Y-59412238D01*
X50125333Y-59507476D01*
X50030095Y-59555095D01*
X50982476Y-59364619D02*
X51030095Y-59317000D01*
X51125333Y-59269380D01*
X51363428Y-59269380D01*
X51458666Y-59317000D01*
X51506285Y-59364619D01*
X51553904Y-59459857D01*
X51553904Y-59555095D01*
X51506285Y-59697952D01*
X50934857Y-60269380D01*
X51553904Y-60269380D01*
%TO.C,C11*%
X49649142Y-58523142D02*
X49601523Y-58570761D01*
X49458666Y-58618380D01*
X49363428Y-58618380D01*
X49220571Y-58570761D01*
X49125333Y-58475523D01*
X49077714Y-58380285D01*
X49030095Y-58189809D01*
X49030095Y-58046952D01*
X49077714Y-57856476D01*
X49125333Y-57761238D01*
X49220571Y-57666000D01*
X49363428Y-57618380D01*
X49458666Y-57618380D01*
X49601523Y-57666000D01*
X49649142Y-57713619D01*
X50601523Y-58618380D02*
X50030095Y-58618380D01*
X50315809Y-58618380D02*
X50315809Y-57618380D01*
X50220571Y-57761238D01*
X50125333Y-57856476D01*
X50030095Y-57904095D01*
X51553904Y-58618380D02*
X50982476Y-58618380D01*
X51268190Y-58618380D02*
X51268190Y-57618380D01*
X51172952Y-57761238D01*
X51077714Y-57856476D01*
X50982476Y-57904095D01*
%TO.C,U2*%
X62103095Y-54697380D02*
X62103095Y-55506904D01*
X62150714Y-55602142D01*
X62198333Y-55649761D01*
X62293571Y-55697380D01*
X62484047Y-55697380D01*
X62579285Y-55649761D01*
X62626904Y-55602142D01*
X62674523Y-55506904D01*
X62674523Y-54697380D01*
X63103095Y-54792619D02*
X63150714Y-54745000D01*
X63245952Y-54697380D01*
X63484047Y-54697380D01*
X63579285Y-54745000D01*
X63626904Y-54792619D01*
X63674523Y-54887857D01*
X63674523Y-54983095D01*
X63626904Y-55125952D01*
X63055476Y-55697380D01*
X63674523Y-55697380D01*
%TO.C,J3*%
X84322666Y-30015380D02*
X84322666Y-30729666D01*
X84275047Y-30872523D01*
X84179809Y-30967761D01*
X84036952Y-31015380D01*
X83941714Y-31015380D01*
X84703619Y-30015380D02*
X85322666Y-30015380D01*
X84989333Y-30396333D01*
X85132190Y-30396333D01*
X85227428Y-30443952D01*
X85275047Y-30491571D01*
X85322666Y-30586809D01*
X85322666Y-30824904D01*
X85275047Y-30920142D01*
X85227428Y-30967761D01*
X85132190Y-31015380D01*
X84846476Y-31015380D01*
X84751238Y-30967761D01*
X84703619Y-30920142D01*
%TO.C,R2*%
X75271333Y-36964380D02*
X74938000Y-36488190D01*
X74699904Y-36964380D02*
X74699904Y-35964380D01*
X75080857Y-35964380D01*
X75176095Y-36012000D01*
X75223714Y-36059619D01*
X75271333Y-36154857D01*
X75271333Y-36297714D01*
X75223714Y-36392952D01*
X75176095Y-36440571D01*
X75080857Y-36488190D01*
X74699904Y-36488190D01*
X75652285Y-36059619D02*
X75699904Y-36012000D01*
X75795142Y-35964380D01*
X76033238Y-35964380D01*
X76128476Y-36012000D01*
X76176095Y-36059619D01*
X76223714Y-36154857D01*
X76223714Y-36250095D01*
X76176095Y-36392952D01*
X75604666Y-36964380D01*
X76223714Y-36964380D01*
%TO.C,D1*%
X55014904Y-36012380D02*
X55014904Y-35012380D01*
X55253000Y-35012380D01*
X55395857Y-35060000D01*
X55491095Y-35155238D01*
X55538714Y-35250476D01*
X55586333Y-35440952D01*
X55586333Y-35583809D01*
X55538714Y-35774285D01*
X55491095Y-35869523D01*
X55395857Y-35964761D01*
X55253000Y-36012380D01*
X55014904Y-36012380D01*
X56538714Y-36012380D02*
X55967285Y-36012380D01*
X56253000Y-36012380D02*
X56253000Y-35012380D01*
X56157761Y-35155238D01*
X56062523Y-35250476D01*
X55967285Y-35298095D01*
%TO.C,D2*%
X73937904Y-56244380D02*
X73937904Y-55244380D01*
X74176000Y-55244380D01*
X74318857Y-55292000D01*
X74414095Y-55387238D01*
X74461714Y-55482476D01*
X74509333Y-55672952D01*
X74509333Y-55815809D01*
X74461714Y-56006285D01*
X74414095Y-56101523D01*
X74318857Y-56196761D01*
X74176000Y-56244380D01*
X73937904Y-56244380D01*
X74890285Y-55339619D02*
X74937904Y-55292000D01*
X75033142Y-55244380D01*
X75271238Y-55244380D01*
X75366476Y-55292000D01*
X75414095Y-55339619D01*
X75461714Y-55434857D01*
X75461714Y-55530095D01*
X75414095Y-55672952D01*
X74842666Y-56244380D01*
X75461714Y-56244380D01*
%TO.C,U3*%
X63174878Y-58410374D02*
X63747298Y-58982794D01*
X63848313Y-59016466D01*
X63915657Y-59016466D01*
X64016672Y-58982794D01*
X64151359Y-58848107D01*
X64185031Y-58747092D01*
X64185031Y-58679748D01*
X64151359Y-58578733D01*
X63578939Y-58006313D01*
X63848313Y-57736939D02*
X64286046Y-57299207D01*
X64319718Y-57804283D01*
X64420733Y-57703268D01*
X64521748Y-57669596D01*
X64589092Y-57669596D01*
X64690107Y-57703268D01*
X64858466Y-57871626D01*
X64892138Y-57972642D01*
X64892138Y-58039985D01*
X64858466Y-58141000D01*
X64656435Y-58343031D01*
X64555420Y-58376703D01*
X64488077Y-58376703D01*
%TO.C,C6*%
X54443333Y-51948142D02*
X54395714Y-51995761D01*
X54252857Y-52043380D01*
X54157619Y-52043380D01*
X54014761Y-51995761D01*
X53919523Y-51900523D01*
X53871904Y-51805285D01*
X53824285Y-51614809D01*
X53824285Y-51471952D01*
X53871904Y-51281476D01*
X53919523Y-51186238D01*
X54014761Y-51091000D01*
X54157619Y-51043380D01*
X54252857Y-51043380D01*
X54395714Y-51091000D01*
X54443333Y-51138619D01*
X55300476Y-51043380D02*
X55110000Y-51043380D01*
X55014761Y-51091000D01*
X54967142Y-51138619D01*
X54871904Y-51281476D01*
X54824285Y-51471952D01*
X54824285Y-51852904D01*
X54871904Y-51948142D01*
X54919523Y-51995761D01*
X55014761Y-52043380D01*
X55205238Y-52043380D01*
X55300476Y-51995761D01*
X55348095Y-51948142D01*
X55395714Y-51852904D01*
X55395714Y-51614809D01*
X55348095Y-51519571D01*
X55300476Y-51471952D01*
X55205238Y-51424333D01*
X55014761Y-51424333D01*
X54919523Y-51471952D01*
X54871904Y-51519571D01*
X54824285Y-51614809D01*
%TO.C,U4*%
X50705380Y-44830904D02*
X51514904Y-44830904D01*
X51610142Y-44783285D01*
X51657761Y-44735666D01*
X51705380Y-44640428D01*
X51705380Y-44449952D01*
X51657761Y-44354714D01*
X51610142Y-44307095D01*
X51514904Y-44259476D01*
X50705380Y-44259476D01*
X51038714Y-43354714D02*
X51705380Y-43354714D01*
X50657761Y-43592809D02*
X51372047Y-43830904D01*
X51372047Y-43211857D01*
%TO.C,R8*%
X74509333Y-48712380D02*
X74176000Y-48236190D01*
X73937904Y-48712380D02*
X73937904Y-47712380D01*
X74318857Y-47712380D01*
X74414095Y-47760000D01*
X74461714Y-47807619D01*
X74509333Y-47902857D01*
X74509333Y-48045714D01*
X74461714Y-48140952D01*
X74414095Y-48188571D01*
X74318857Y-48236190D01*
X73937904Y-48236190D01*
X75080761Y-48140952D02*
X74985523Y-48093333D01*
X74937904Y-48045714D01*
X74890285Y-47950476D01*
X74890285Y-47902857D01*
X74937904Y-47807619D01*
X74985523Y-47760000D01*
X75080761Y-47712380D01*
X75271238Y-47712380D01*
X75366476Y-47760000D01*
X75414095Y-47807619D01*
X75461714Y-47902857D01*
X75461714Y-47950476D01*
X75414095Y-48045714D01*
X75366476Y-48093333D01*
X75271238Y-48140952D01*
X75080761Y-48140952D01*
X74985523Y-48188571D01*
X74937904Y-48236190D01*
X74890285Y-48331428D01*
X74890285Y-48521904D01*
X74937904Y-48617142D01*
X74985523Y-48664761D01*
X75080761Y-48712380D01*
X75271238Y-48712380D01*
X75366476Y-48664761D01*
X75414095Y-48617142D01*
X75461714Y-48521904D01*
X75461714Y-48331428D01*
X75414095Y-48236190D01*
X75366476Y-48188571D01*
X75271238Y-48140952D01*
%TO.C,R7*%
X80970380Y-71540666D02*
X80494190Y-71874000D01*
X80970380Y-72112095D02*
X79970380Y-72112095D01*
X79970380Y-71731142D01*
X80018000Y-71635904D01*
X80065619Y-71588285D01*
X80160857Y-71540666D01*
X80303714Y-71540666D01*
X80398952Y-71588285D01*
X80446571Y-71635904D01*
X80494190Y-71731142D01*
X80494190Y-72112095D01*
X79970380Y-71207333D02*
X79970380Y-70540666D01*
X80970380Y-70969238D01*
%TO.C,L2*%
X57098029Y-67607968D02*
X56761311Y-67944686D01*
X56054205Y-67237579D01*
X56660296Y-66766174D02*
X56660296Y-66698831D01*
X56693968Y-66597816D01*
X56862327Y-66429457D01*
X56963342Y-66395785D01*
X57030686Y-66395785D01*
X57131701Y-66429457D01*
X57199044Y-66496800D01*
X57266388Y-66631487D01*
X57266388Y-67439610D01*
X57704121Y-67001877D01*
%TO.C,C4*%
X55475142Y-55538666D02*
X55522761Y-55586285D01*
X55570380Y-55729142D01*
X55570380Y-55824380D01*
X55522761Y-55967238D01*
X55427523Y-56062476D01*
X55332285Y-56110095D01*
X55141809Y-56157714D01*
X54998952Y-56157714D01*
X54808476Y-56110095D01*
X54713238Y-56062476D01*
X54618000Y-55967238D01*
X54570380Y-55824380D01*
X54570380Y-55729142D01*
X54618000Y-55586285D01*
X54665619Y-55538666D01*
X54903714Y-54681523D02*
X55570380Y-54681523D01*
X54522761Y-54919619D02*
X55237047Y-55157714D01*
X55237047Y-54538666D01*
%TO.C,J2*%
X41813380Y-29007333D02*
X42527666Y-29007333D01*
X42670523Y-29054952D01*
X42765761Y-29150190D01*
X42813380Y-29293047D01*
X42813380Y-29388285D01*
X41908619Y-28578761D02*
X41861000Y-28531142D01*
X41813380Y-28435904D01*
X41813380Y-28197809D01*
X41861000Y-28102571D01*
X41908619Y-28054952D01*
X42003857Y-28007333D01*
X42099095Y-28007333D01*
X42241952Y-28054952D01*
X42813380Y-28626380D01*
X42813380Y-28007333D01*
%TO.C,C14*%
X74033142Y-81002142D02*
X73985523Y-81049761D01*
X73842666Y-81097380D01*
X73747428Y-81097380D01*
X73604571Y-81049761D01*
X73509333Y-80954523D01*
X73461714Y-80859285D01*
X73414095Y-80668809D01*
X73414095Y-80525952D01*
X73461714Y-80335476D01*
X73509333Y-80240238D01*
X73604571Y-80145000D01*
X73747428Y-80097380D01*
X73842666Y-80097380D01*
X73985523Y-80145000D01*
X74033142Y-80192619D01*
X74985523Y-81097380D02*
X74414095Y-81097380D01*
X74699809Y-81097380D02*
X74699809Y-80097380D01*
X74604571Y-80240238D01*
X74509333Y-80335476D01*
X74414095Y-80383095D01*
X75842666Y-80430714D02*
X75842666Y-81097380D01*
X75604571Y-80049761D02*
X75366476Y-80764047D01*
X75985523Y-80764047D01*
%TO.C,C7*%
X58409636Y-61729440D02*
X58409636Y-61796783D01*
X58342292Y-61931470D01*
X58274949Y-61998814D01*
X58140261Y-62066157D01*
X58005574Y-62066157D01*
X57904559Y-62032486D01*
X57736200Y-61931470D01*
X57635185Y-61830455D01*
X57534170Y-61662096D01*
X57500498Y-61561081D01*
X57500498Y-61426394D01*
X57567842Y-61291707D01*
X57635185Y-61224363D01*
X57769872Y-61157020D01*
X57837216Y-61157020D01*
X58005574Y-60853974D02*
X58476979Y-60382570D01*
X58881040Y-61392722D01*
%TO.C,C13*%
X61413106Y-64083030D02*
X61480450Y-64083030D01*
X61615137Y-64150374D01*
X61682480Y-64217717D01*
X61749824Y-64352404D01*
X61749824Y-64487091D01*
X61716152Y-64588106D01*
X61615137Y-64756465D01*
X61514122Y-64857480D01*
X61345763Y-64958496D01*
X61244748Y-64992167D01*
X61110061Y-64992167D01*
X60975374Y-64924824D01*
X60908030Y-64857480D01*
X60840687Y-64722793D01*
X60840687Y-64655450D01*
X60807015Y-63342251D02*
X61211076Y-63746312D01*
X61009045Y-63544282D02*
X60301938Y-64251389D01*
X60470297Y-64217717D01*
X60604984Y-64217717D01*
X60706000Y-64251389D01*
X59864206Y-63813656D02*
X59426473Y-63375923D01*
X59931549Y-63342251D01*
X59830534Y-63241236D01*
X59796862Y-63140221D01*
X59796862Y-63072877D01*
X59830534Y-62971862D01*
X59998893Y-62803503D01*
X60099908Y-62769832D01*
X60167251Y-62769832D01*
X60268267Y-62803503D01*
X60470297Y-63005534D01*
X60503969Y-63106549D01*
X60503969Y-63173893D01*
%TO.C,C1*%
X57640333Y-77801642D02*
X57592714Y-77849261D01*
X57449857Y-77896880D01*
X57354619Y-77896880D01*
X57211761Y-77849261D01*
X57116523Y-77754023D01*
X57068904Y-77658785D01*
X57021285Y-77468309D01*
X57021285Y-77325452D01*
X57068904Y-77134976D01*
X57116523Y-77039738D01*
X57211761Y-76944500D01*
X57354619Y-76896880D01*
X57449857Y-76896880D01*
X57592714Y-76944500D01*
X57640333Y-76992119D01*
X58592714Y-77896880D02*
X58021285Y-77896880D01*
X58307000Y-77896880D02*
X58307000Y-76896880D01*
X58211761Y-77039738D01*
X58116523Y-77134976D01*
X58021285Y-77182595D01*
%TO.C,F1*%
X58086666Y-33710571D02*
X57753333Y-33710571D01*
X57753333Y-34234380D02*
X57753333Y-33234380D01*
X58229523Y-33234380D01*
X59134285Y-34234380D02*
X58562857Y-34234380D01*
X58848571Y-34234380D02*
X58848571Y-33234380D01*
X58753333Y-33377238D01*
X58658095Y-33472476D01*
X58562857Y-33520095D01*
%TO.C,C5*%
X61555333Y-50268142D02*
X61507714Y-50315761D01*
X61364857Y-50363380D01*
X61269619Y-50363380D01*
X61126761Y-50315761D01*
X61031523Y-50220523D01*
X60983904Y-50125285D01*
X60936285Y-49934809D01*
X60936285Y-49791952D01*
X60983904Y-49601476D01*
X61031523Y-49506238D01*
X61126761Y-49411000D01*
X61269619Y-49363380D01*
X61364857Y-49363380D01*
X61507714Y-49411000D01*
X61555333Y-49458619D01*
X62460095Y-49363380D02*
X61983904Y-49363380D01*
X61936285Y-49839571D01*
X61983904Y-49791952D01*
X62079142Y-49744333D01*
X62317238Y-49744333D01*
X62412476Y-49791952D01*
X62460095Y-49839571D01*
X62507714Y-49934809D01*
X62507714Y-50172904D01*
X62460095Y-50268142D01*
X62412476Y-50315761D01*
X62317238Y-50363380D01*
X62079142Y-50363380D01*
X61983904Y-50315761D01*
X61936285Y-50268142D01*
%TO.C,AE1*%
X48998333Y-78144666D02*
X49474523Y-78144666D01*
X48903095Y-78430380D02*
X49236428Y-77430380D01*
X49569761Y-78430380D01*
X49903095Y-77906571D02*
X50236428Y-77906571D01*
X50379285Y-78430380D02*
X49903095Y-78430380D01*
X49903095Y-77430380D01*
X50379285Y-77430380D01*
X51331666Y-78430380D02*
X50760238Y-78430380D01*
X51045952Y-78430380D02*
X51045952Y-77430380D01*
X50950714Y-77573238D01*
X50855476Y-77668476D01*
X50760238Y-77716095D01*
%TO.C,L1*%
X53505380Y-75223666D02*
X53505380Y-75699857D01*
X52505380Y-75699857D01*
X53505380Y-74366523D02*
X53505380Y-74937952D01*
X53505380Y-74652238D02*
X52505380Y-74652238D01*
X52648238Y-74747476D01*
X52743476Y-74842714D01*
X52791095Y-74937952D01*
%TO.C,SW1*%
X79819666Y-79779761D02*
X79962523Y-79827380D01*
X80200619Y-79827380D01*
X80295857Y-79779761D01*
X80343476Y-79732142D01*
X80391095Y-79636904D01*
X80391095Y-79541666D01*
X80343476Y-79446428D01*
X80295857Y-79398809D01*
X80200619Y-79351190D01*
X80010142Y-79303571D01*
X79914904Y-79255952D01*
X79867285Y-79208333D01*
X79819666Y-79113095D01*
X79819666Y-79017857D01*
X79867285Y-78922619D01*
X79914904Y-78875000D01*
X80010142Y-78827380D01*
X80248238Y-78827380D01*
X80391095Y-78875000D01*
X80724428Y-78827380D02*
X80962523Y-79827380D01*
X81153000Y-79113095D01*
X81343476Y-79827380D01*
X81581571Y-78827380D01*
X82486333Y-79827380D02*
X81914904Y-79827380D01*
X82200619Y-79827380D02*
X82200619Y-78827380D01*
X82105380Y-78970238D01*
X82010142Y-79065476D01*
X81914904Y-79113095D01*
%TO.C,R9*%
X71969333Y-81097380D02*
X71636000Y-80621190D01*
X71397904Y-81097380D02*
X71397904Y-80097380D01*
X71778857Y-80097380D01*
X71874095Y-80145000D01*
X71921714Y-80192619D01*
X71969333Y-80287857D01*
X71969333Y-80430714D01*
X71921714Y-80525952D01*
X71874095Y-80573571D01*
X71778857Y-80621190D01*
X71397904Y-80621190D01*
X72445523Y-81097380D02*
X72636000Y-81097380D01*
X72731238Y-81049761D01*
X72778857Y-81002142D01*
X72874095Y-80859285D01*
X72921714Y-80668809D01*
X72921714Y-80287857D01*
X72874095Y-80192619D01*
X72826476Y-80145000D01*
X72731238Y-80097380D01*
X72540761Y-80097380D01*
X72445523Y-80145000D01*
X72397904Y-80192619D01*
X72350285Y-80287857D01*
X72350285Y-80525952D01*
X72397904Y-80621190D01*
X72445523Y-80668809D01*
X72540761Y-80716428D01*
X72731238Y-80716428D01*
X72826476Y-80668809D01*
X72874095Y-80621190D01*
X72921714Y-80525952D01*
%TO.C,R5*%
X65746333Y-51252380D02*
X65413000Y-50776190D01*
X65174904Y-51252380D02*
X65174904Y-50252380D01*
X65555857Y-50252380D01*
X65651095Y-50300000D01*
X65698714Y-50347619D01*
X65746333Y-50442857D01*
X65746333Y-50585714D01*
X65698714Y-50680952D01*
X65651095Y-50728571D01*
X65555857Y-50776190D01*
X65174904Y-50776190D01*
X66651095Y-50252380D02*
X66174904Y-50252380D01*
X66127285Y-50728571D01*
X66174904Y-50680952D01*
X66270142Y-50633333D01*
X66508238Y-50633333D01*
X66603476Y-50680952D01*
X66651095Y-50728571D01*
X66698714Y-50823809D01*
X66698714Y-51061904D01*
X66651095Y-51157142D01*
X66603476Y-51204761D01*
X66508238Y-51252380D01*
X66270142Y-51252380D01*
X66174904Y-51204761D01*
X66127285Y-51157142D01*
%TO.C,D3*%
X71905904Y-56244380D02*
X71905904Y-55244380D01*
X72144000Y-55244380D01*
X72286857Y-55292000D01*
X72382095Y-55387238D01*
X72429714Y-55482476D01*
X72477333Y-55672952D01*
X72477333Y-55815809D01*
X72429714Y-56006285D01*
X72382095Y-56101523D01*
X72286857Y-56196761D01*
X72144000Y-56244380D01*
X71905904Y-56244380D01*
X72810666Y-55244380D02*
X73429714Y-55244380D01*
X73096380Y-55625333D01*
X73239238Y-55625333D01*
X73334476Y-55672952D01*
X73382095Y-55720571D01*
X73429714Y-55815809D01*
X73429714Y-56053904D01*
X73382095Y-56149142D01*
X73334476Y-56196761D01*
X73239238Y-56244380D01*
X72953523Y-56244380D01*
X72858285Y-56196761D01*
X72810666Y-56149142D01*
%TO.C,R11*%
X72001142Y-48712380D02*
X71667809Y-48236190D01*
X71429714Y-48712380D02*
X71429714Y-47712380D01*
X71810666Y-47712380D01*
X71905904Y-47760000D01*
X71953523Y-47807619D01*
X72001142Y-47902857D01*
X72001142Y-48045714D01*
X71953523Y-48140952D01*
X71905904Y-48188571D01*
X71810666Y-48236190D01*
X71429714Y-48236190D01*
X72953523Y-48712380D02*
X72382095Y-48712380D01*
X72667809Y-48712380D02*
X72667809Y-47712380D01*
X72572571Y-47855238D01*
X72477333Y-47950476D01*
X72382095Y-47998095D01*
X73905904Y-48712380D02*
X73334476Y-48712380D01*
X73620190Y-48712380D02*
X73620190Y-47712380D01*
X73524952Y-47855238D01*
X73429714Y-47950476D01*
X73334476Y-47998095D01*
D11*
%TO.C,C15*%
X78118580Y-38483000D02*
X77837420Y-38483000D01*
X78118580Y-37463000D02*
X77837420Y-37463000D01*
%TO.C,R4*%
X47893500Y-37702258D02*
X47893500Y-37227742D01*
X46848500Y-37702258D02*
X46848500Y-37227742D01*
%TO.C,C3*%
X60211580Y-52961000D02*
X59930420Y-52961000D01*
X60211580Y-51941000D02*
X59930420Y-51941000D01*
%TO.C,J4*%
X89306000Y-31563000D02*
X90636000Y-31563000D01*
X90636000Y-34163000D02*
X90636000Y-77403000D01*
X87976000Y-34163000D02*
X87976000Y-77403000D01*
X87976000Y-77403000D02*
X90636000Y-77403000D01*
X87976000Y-34163000D02*
X90636000Y-34163000D01*
X90636000Y-31563000D02*
X90636000Y-32893000D01*
%TO.C,R3*%
X67422500Y-48276742D02*
X67422500Y-48751258D01*
X68467500Y-48276742D02*
X68467500Y-48751258D01*
%TO.C,C10*%
X71548970Y-59047781D02*
X71747781Y-58848970D01*
X72270219Y-59769030D02*
X72469030Y-59570219D01*
%TO.C,C2*%
X55126420Y-73196000D02*
X55407580Y-73196000D01*
X55126420Y-72176000D02*
X55407580Y-72176000D01*
%TO.C,R6*%
X79995500Y-40369258D02*
X79995500Y-39894742D01*
X81040500Y-40369258D02*
X81040500Y-39894742D01*
D12*
%TO.C,SW2*%
X80587000Y-34053000D02*
X74587000Y-34053000D01*
X74587000Y-30753000D02*
X80587000Y-30753000D01*
X74587000Y-30753000D02*
X74587000Y-31404000D01*
X78603000Y-31641000D02*
X78603000Y-33165000D01*
X76571000Y-33165000D02*
X76571000Y-31641000D01*
X74587000Y-33366000D02*
X74587000Y-34053000D01*
X80587000Y-34053000D02*
X80587000Y-33320000D01*
X76571000Y-31641000D02*
X78603000Y-31641000D01*
X78603000Y-33165000D02*
X76571000Y-33165000D01*
X80587000Y-31450000D02*
X80587000Y-30753000D01*
D11*
%TO.C,R1*%
X74182500Y-38497742D02*
X74182500Y-38972258D01*
X73137500Y-38497742D02*
X73137500Y-38972258D01*
%TO.C,R10*%
X77740742Y-40146500D02*
X78215258Y-40146500D01*
X77740742Y-39101500D02*
X78215258Y-39101500D01*
%TO.C,U1*%
X68489000Y-43942000D02*
X68489000Y-44742000D01*
X68489000Y-43942000D02*
X68489000Y-42142000D01*
X65369000Y-43942000D02*
X65369000Y-44742000D01*
X65369000Y-43942000D02*
X65369000Y-43142000D01*
%TO.C,C9*%
X73011420Y-63625000D02*
X73292580Y-63625000D01*
X73011420Y-64645000D02*
X73292580Y-64645000D01*
%TO.C,REF\u002A\u002A*%
G36*
X66545178Y-76713645D02*
G01*
X66551758Y-76721218D01*
X66556921Y-76730987D01*
X66560836Y-76745571D01*
X66563676Y-76767585D01*
X66565613Y-76799648D01*
X66566817Y-76844375D01*
X66567461Y-76904385D01*
X66567716Y-76982294D01*
X66567755Y-77057956D01*
X66567686Y-77151802D01*
X66567362Y-77225689D01*
X66566614Y-77282232D01*
X66565268Y-77324049D01*
X66563154Y-77353757D01*
X66560100Y-77373973D01*
X66555934Y-77387314D01*
X66550484Y-77396398D01*
X66545178Y-77402267D01*
X66512174Y-77421947D01*
X66477009Y-77420181D01*
X66445545Y-77398717D01*
X66438316Y-77390337D01*
X66432666Y-77380614D01*
X66428401Y-77366861D01*
X66425327Y-77346389D01*
X66423248Y-77316512D01*
X66421970Y-77274541D01*
X66421299Y-77217789D01*
X66421041Y-77143567D01*
X66421000Y-77059537D01*
X66421000Y-76746485D01*
X66448709Y-76718776D01*
X66482863Y-76695463D01*
X66515994Y-76694623D01*
X66545178Y-76713645D01*
G37*
D13*
X66545178Y-76713645D02*
X66551758Y-76721218D01*
X66556921Y-76730987D01*
X66560836Y-76745571D01*
X66563676Y-76767585D01*
X66565613Y-76799648D01*
X66566817Y-76844375D01*
X66567461Y-76904385D01*
X66567716Y-76982294D01*
X66567755Y-77057956D01*
X66567686Y-77151802D01*
X66567362Y-77225689D01*
X66566614Y-77282232D01*
X66565268Y-77324049D01*
X66563154Y-77353757D01*
X66560100Y-77373973D01*
X66555934Y-77387314D01*
X66550484Y-77396398D01*
X66545178Y-77402267D01*
X66512174Y-77421947D01*
X66477009Y-77420181D01*
X66445545Y-77398717D01*
X66438316Y-77390337D01*
X66432666Y-77380614D01*
X66428401Y-77366861D01*
X66425327Y-77346389D01*
X66423248Y-77316512D01*
X66421970Y-77274541D01*
X66421299Y-77217789D01*
X66421041Y-77143567D01*
X66421000Y-77059537D01*
X66421000Y-76746485D01*
X66448709Y-76718776D01*
X66482863Y-76695463D01*
X66515994Y-76694623D01*
X66545178Y-76713645D01*
G36*
X66522600Y-71911054D02*
G01*
X66533465Y-72024993D01*
X66565082Y-72132616D01*
X66615985Y-72231615D01*
X66684707Y-72319684D01*
X66769781Y-72394516D01*
X66866768Y-72452384D01*
X66973036Y-72492005D01*
X67080050Y-72510573D01*
X67185700Y-72509434D01*
X67287875Y-72489930D01*
X67384466Y-72453406D01*
X67473362Y-72401205D01*
X67552454Y-72334673D01*
X67619631Y-72255152D01*
X67672783Y-72163987D01*
X67709801Y-72062523D01*
X67728573Y-71952102D01*
X67730511Y-71902206D01*
X67730511Y-71814267D01*
X67782440Y-71814267D01*
X67818747Y-71817111D01*
X67845645Y-71828911D01*
X67872751Y-71852649D01*
X67911133Y-71891031D01*
X67911133Y-74082602D01*
X67911124Y-74344739D01*
X67911092Y-74585241D01*
X67911028Y-74805048D01*
X67910924Y-75005101D01*
X67910773Y-75186344D01*
X67910566Y-75349716D01*
X67910294Y-75496160D01*
X67909950Y-75626617D01*
X67909526Y-75742029D01*
X67909013Y-75843338D01*
X67908403Y-75931484D01*
X67907688Y-76007410D01*
X67906860Y-76072057D01*
X67905911Y-76126367D01*
X67904833Y-76171280D01*
X67903617Y-76207740D01*
X67902255Y-76236687D01*
X67900739Y-76259063D01*
X67899062Y-76275809D01*
X67897214Y-76287868D01*
X67895187Y-76296180D01*
X67892975Y-76301687D01*
X67891892Y-76303537D01*
X67887729Y-76310549D01*
X67884195Y-76316996D01*
X67880365Y-76322900D01*
X67875318Y-76328286D01*
X67868129Y-76333178D01*
X67857877Y-76337598D01*
X67843636Y-76341572D01*
X67824486Y-76345121D01*
X67799501Y-76348270D01*
X67767760Y-76351042D01*
X67728338Y-76353461D01*
X67680314Y-76355551D01*
X67622763Y-76357335D01*
X67554763Y-76358837D01*
X67475390Y-76360080D01*
X67383721Y-76361089D01*
X67278834Y-76361885D01*
X67159804Y-76362494D01*
X67025710Y-76362939D01*
X66875627Y-76363243D01*
X66708633Y-76363430D01*
X66523804Y-76363524D01*
X66320217Y-76363548D01*
X66096950Y-76363525D01*
X65853078Y-76363480D01*
X65587679Y-76363437D01*
X65549296Y-76363432D01*
X65282318Y-76363389D01*
X65036998Y-76363318D01*
X64812417Y-76363213D01*
X64607655Y-76363066D01*
X64421794Y-76362869D01*
X64253912Y-76362616D01*
X64103092Y-76362300D01*
X63968413Y-76361913D01*
X63848956Y-76361447D01*
X63743801Y-76360897D01*
X63652029Y-76360253D01*
X63572721Y-76359511D01*
X63504957Y-76358661D01*
X63447818Y-76357697D01*
X63400383Y-76356611D01*
X63361734Y-76355397D01*
X63330951Y-76354047D01*
X63307115Y-76352555D01*
X63289306Y-76350911D01*
X63276605Y-76349111D01*
X63268092Y-76347145D01*
X63263734Y-76345477D01*
X63255272Y-76341906D01*
X63247503Y-76339270D01*
X63240398Y-76336634D01*
X63233927Y-76333062D01*
X63228061Y-76327621D01*
X63222771Y-76319375D01*
X63218026Y-76307390D01*
X63213798Y-76290731D01*
X63210057Y-76268463D01*
X63206773Y-76239652D01*
X63203917Y-76203363D01*
X63201460Y-76158661D01*
X63199371Y-76104611D01*
X63197622Y-76040279D01*
X63196183Y-75964730D01*
X63195024Y-75877030D01*
X63194117Y-75776243D01*
X63193431Y-75661434D01*
X63192937Y-75531670D01*
X63192605Y-75386015D01*
X63192407Y-75223535D01*
X63192313Y-75043295D01*
X63192292Y-74844360D01*
X63192315Y-74625796D01*
X63192354Y-74386668D01*
X63192378Y-74126040D01*
X63192378Y-74083889D01*
X63192364Y-73820992D01*
X63192339Y-73579732D01*
X63192329Y-73359165D01*
X63192358Y-73158352D01*
X63192452Y-72976349D01*
X63192638Y-72812216D01*
X63192941Y-72665011D01*
X63193386Y-72533792D01*
X63193966Y-72423867D01*
X63496803Y-72423867D01*
X63536593Y-72481711D01*
X63547764Y-72497479D01*
X63557834Y-72511441D01*
X63566862Y-72524784D01*
X63574903Y-72538693D01*
X63582014Y-72554356D01*
X63588253Y-72572958D01*
X63593675Y-72595686D01*
X63598338Y-72623727D01*
X63602299Y-72658267D01*
X63605615Y-72700492D01*
X63608341Y-72751589D01*
X63610536Y-72812744D01*
X63612255Y-72885144D01*
X63613556Y-72969975D01*
X63614495Y-73068422D01*
X63615130Y-73181674D01*
X63615516Y-73310916D01*
X63615712Y-73457334D01*
X63615773Y-73622116D01*
X63615757Y-73806447D01*
X63615720Y-74011513D01*
X63615711Y-74134133D01*
X63615735Y-74351082D01*
X63615769Y-74546642D01*
X63615757Y-74721999D01*
X63615642Y-74878341D01*
X63615370Y-75016857D01*
X63614882Y-75138734D01*
X63614124Y-75245160D01*
X63613038Y-75337322D01*
X63611569Y-75416409D01*
X63609660Y-75483608D01*
X63607256Y-75540107D01*
X63604299Y-75587093D01*
X63600734Y-75625755D01*
X63596505Y-75657280D01*
X63591554Y-75682855D01*
X63585827Y-75703670D01*
X63579267Y-75720911D01*
X63571817Y-75735765D01*
X63563421Y-75749422D01*
X63554024Y-75763069D01*
X63543568Y-75777893D01*
X63537477Y-75786783D01*
X63498704Y-75844400D01*
X64030268Y-75844400D01*
X64153517Y-75844365D01*
X64256013Y-75844215D01*
X64339580Y-75843878D01*
X64406044Y-75843286D01*
X64457229Y-75842367D01*
X64494959Y-75841051D01*
X64521060Y-75839269D01*
X64537356Y-75836951D01*
X64545672Y-75834026D01*
X64547832Y-75830424D01*
X64545661Y-75826075D01*
X64544465Y-75824645D01*
X64519315Y-75787573D01*
X64493417Y-75734772D01*
X64469808Y-75672770D01*
X64461539Y-75646357D01*
X64456922Y-75628416D01*
X64453021Y-75607355D01*
X64449752Y-75581089D01*
X64447034Y-75547532D01*
X64444785Y-75504599D01*
X64442923Y-75450204D01*
X64441364Y-75382262D01*
X64440028Y-75298688D01*
X64438831Y-75197395D01*
X64437692Y-75076300D01*
X64437315Y-75031600D01*
X64436298Y-74906449D01*
X64435540Y-74802082D01*
X64435097Y-74716707D01*
X64435030Y-74648533D01*
X64435395Y-74595765D01*
X64436252Y-74556614D01*
X64437659Y-74529285D01*
X64439675Y-74511986D01*
X64442357Y-74502926D01*
X64445764Y-74500312D01*
X64449956Y-74502351D01*
X64454429Y-74506667D01*
X64464784Y-74519602D01*
X64486842Y-74548676D01*
X64519043Y-74591759D01*
X64559826Y-74646718D01*
X64607630Y-74711423D01*
X64660895Y-74783742D01*
X64718060Y-74861544D01*
X64777563Y-74942698D01*
X64837845Y-75025072D01*
X64897345Y-75106536D01*
X64954502Y-75184957D01*
X65007755Y-75258204D01*
X65055543Y-75324147D01*
X65096307Y-75380654D01*
X65128484Y-75425593D01*
X65150515Y-75456834D01*
X65155083Y-75463466D01*
X65178004Y-75500369D01*
X65204812Y-75548359D01*
X65230211Y-75597897D01*
X65233432Y-75604577D01*
X65255110Y-75652772D01*
X65267696Y-75690334D01*
X65273426Y-75726160D01*
X65274544Y-75768200D01*
X65273910Y-75844400D01*
X66428349Y-75844400D01*
X66337185Y-75750669D01*
X66290388Y-75700775D01*
X66240101Y-75644295D01*
X66194056Y-75590026D01*
X66173631Y-75564673D01*
X66143193Y-75525128D01*
X66103138Y-75471916D01*
X66054639Y-75406667D01*
X65998865Y-75331011D01*
X65936989Y-75246577D01*
X65870181Y-75154994D01*
X65799613Y-75057892D01*
X65726455Y-74956901D01*
X65651879Y-74853650D01*
X65577056Y-74749768D01*
X65503157Y-74646885D01*
X65431354Y-74546631D01*
X65362816Y-74450636D01*
X65298716Y-74360527D01*
X65240225Y-74277936D01*
X65188514Y-74204492D01*
X65144753Y-74141824D01*
X65110115Y-74091561D01*
X65085770Y-74055334D01*
X65072889Y-74034771D01*
X65071131Y-74030668D01*
X65079090Y-74019342D01*
X65099885Y-73992162D01*
X65132153Y-73950829D01*
X65174530Y-73897044D01*
X65225653Y-73832506D01*
X65284159Y-73758918D01*
X65348686Y-73677978D01*
X65417869Y-73591388D01*
X65490347Y-73500848D01*
X65564754Y-73408060D01*
X65624483Y-73333702D01*
X66635489Y-73333702D01*
X66641398Y-73346659D01*
X66655728Y-73368908D01*
X66656775Y-73370391D01*
X66675562Y-73400544D01*
X66695209Y-73437375D01*
X66699108Y-73445511D01*
X66702644Y-73453940D01*
X66705770Y-73464059D01*
X66708514Y-73477260D01*
X66710908Y-73494938D01*
X66712981Y-73518484D01*
X66714765Y-73549293D01*
X66716288Y-73588757D01*
X66717581Y-73638269D01*
X66718674Y-73699223D01*
X66719597Y-73773011D01*
X66720381Y-73861028D01*
X66721055Y-73964665D01*
X66721650Y-74085316D01*
X66722195Y-74224374D01*
X66722721Y-74383232D01*
X66723255Y-74562089D01*
X66723794Y-74747207D01*
X66724228Y-74911145D01*
X66724491Y-75055303D01*
X66724516Y-75181079D01*
X66724235Y-75289871D01*
X66723581Y-75383077D01*
X66722486Y-75462097D01*
X66720882Y-75528328D01*
X66718703Y-75583170D01*
X66715881Y-75628021D01*
X66712349Y-75664278D01*
X66708039Y-75693341D01*
X66702883Y-75716609D01*
X66696815Y-75735479D01*
X66689767Y-75751351D01*
X66681671Y-75765622D01*
X66672460Y-75779691D01*
X66663960Y-75792158D01*
X66646824Y-75818452D01*
X66636678Y-75836037D01*
X66635489Y-75839257D01*
X66646396Y-75840334D01*
X66677589Y-75841335D01*
X66726777Y-75842235D01*
X66791667Y-75843010D01*
X66869970Y-75843637D01*
X66959393Y-75844091D01*
X67057644Y-75844349D01*
X67126555Y-75844400D01*
X67231548Y-75844180D01*
X67328390Y-75843548D01*
X67414893Y-75842549D01*
X67488868Y-75841227D01*
X67548126Y-75839626D01*
X67590480Y-75837791D01*
X67613740Y-75835765D01*
X67617622Y-75834493D01*
X67609924Y-75819591D01*
X67601926Y-75811560D01*
X67588754Y-75794434D01*
X67571515Y-75764183D01*
X67559593Y-75739622D01*
X67532955Y-75680711D01*
X67529880Y-74503845D01*
X67526805Y-73326978D01*
X67081147Y-73326978D01*
X66983330Y-73327142D01*
X66892936Y-73327611D01*
X66812370Y-73328347D01*
X66744038Y-73329316D01*
X66690344Y-73330480D01*
X66653695Y-73331803D01*
X66636496Y-73333249D01*
X66635489Y-73333702D01*
X65624483Y-73333702D01*
X65639730Y-73314722D01*
X65713910Y-73222537D01*
X65785931Y-73133204D01*
X65854431Y-73048424D01*
X65918045Y-72969898D01*
X65975412Y-72899326D01*
X66025167Y-72838409D01*
X66065948Y-72788847D01*
X66083112Y-72768178D01*
X66169404Y-72667516D01*
X66246003Y-72584259D01*
X66314817Y-72516438D01*
X66377752Y-72462089D01*
X66387133Y-72454722D01*
X66426644Y-72424117D01*
X65294884Y-72423867D01*
X65300173Y-72471844D01*
X65296870Y-72529188D01*
X65275339Y-72597463D01*
X65235365Y-72677212D01*
X65190057Y-72749495D01*
X65173839Y-72772140D01*
X65145786Y-72809696D01*
X65107570Y-72860021D01*
X65060863Y-72920973D01*
X65007339Y-72990411D01*
X64948669Y-73066194D01*
X64886525Y-73146180D01*
X64822579Y-73228228D01*
X64758505Y-73310196D01*
X64695973Y-73389943D01*
X64636657Y-73465327D01*
X64582229Y-73534207D01*
X64534361Y-73594442D01*
X64494725Y-73643889D01*
X64464994Y-73680408D01*
X64446839Y-73701858D01*
X64443780Y-73705156D01*
X64440921Y-73697149D01*
X64438707Y-73666855D01*
X64437143Y-73614556D01*
X64436233Y-73540531D01*
X64435980Y-73445063D01*
X64436387Y-73328434D01*
X64437296Y-73208445D01*
X64438618Y-73076333D01*
X64440143Y-72964594D01*
X64442119Y-72871025D01*
X64444794Y-72793419D01*
X64448418Y-72729574D01*
X64453239Y-72677283D01*
X64459506Y-72634344D01*
X64467468Y-72598551D01*
X64477373Y-72567700D01*
X64489469Y-72539586D01*
X64504007Y-72512005D01*
X64518689Y-72486966D01*
X64556686Y-72423867D01*
X63496803Y-72423867D01*
X63193966Y-72423867D01*
X63193999Y-72417617D01*
X63194805Y-72315544D01*
X63195830Y-72226633D01*
X63197100Y-72149941D01*
X63198640Y-72084527D01*
X63200476Y-72029449D01*
X63202633Y-71983765D01*
X63205137Y-71946534D01*
X63208013Y-71916813D01*
X63211287Y-71893662D01*
X63214985Y-71876139D01*
X63219131Y-71863301D01*
X63223753Y-71854208D01*
X63228874Y-71847918D01*
X63234522Y-71843488D01*
X63240721Y-71839978D01*
X63247496Y-71836445D01*
X63253492Y-71832876D01*
X63258725Y-71830300D01*
X63266901Y-71827972D01*
X63279114Y-71825878D01*
X63296459Y-71824007D01*
X63320031Y-71822347D01*
X63350923Y-71820884D01*
X63390232Y-71819608D01*
X63439050Y-71818504D01*
X63498473Y-71817561D01*
X63569596Y-71816767D01*
X63653512Y-71816109D01*
X63751317Y-71815575D01*
X63864106Y-71815153D01*
X63992971Y-71814829D01*
X64139009Y-71814592D01*
X64303314Y-71814430D01*
X64486980Y-71814330D01*
X64691103Y-71814280D01*
X64902247Y-71814267D01*
X66522600Y-71814267D01*
X66522600Y-71911054D01*
G37*
X66522600Y-71911054D02*
X66533465Y-72024993D01*
X66565082Y-72132616D01*
X66615985Y-72231615D01*
X66684707Y-72319684D01*
X66769781Y-72394516D01*
X66866768Y-72452384D01*
X66973036Y-72492005D01*
X67080050Y-72510573D01*
X67185700Y-72509434D01*
X67287875Y-72489930D01*
X67384466Y-72453406D01*
X67473362Y-72401205D01*
X67552454Y-72334673D01*
X67619631Y-72255152D01*
X67672783Y-72163987D01*
X67709801Y-72062523D01*
X67728573Y-71952102D01*
X67730511Y-71902206D01*
X67730511Y-71814267D01*
X67782440Y-71814267D01*
X67818747Y-71817111D01*
X67845645Y-71828911D01*
X67872751Y-71852649D01*
X67911133Y-71891031D01*
X67911133Y-74082602D01*
X67911124Y-74344739D01*
X67911092Y-74585241D01*
X67911028Y-74805048D01*
X67910924Y-75005101D01*
X67910773Y-75186344D01*
X67910566Y-75349716D01*
X67910294Y-75496160D01*
X67909950Y-75626617D01*
X67909526Y-75742029D01*
X67909013Y-75843338D01*
X67908403Y-75931484D01*
X67907688Y-76007410D01*
X67906860Y-76072057D01*
X67905911Y-76126367D01*
X67904833Y-76171280D01*
X67903617Y-76207740D01*
X67902255Y-76236687D01*
X67900739Y-76259063D01*
X67899062Y-76275809D01*
X67897214Y-76287868D01*
X67895187Y-76296180D01*
X67892975Y-76301687D01*
X67891892Y-76303537D01*
X67887729Y-76310549D01*
X67884195Y-76316996D01*
X67880365Y-76322900D01*
X67875318Y-76328286D01*
X67868129Y-76333178D01*
X67857877Y-76337598D01*
X67843636Y-76341572D01*
X67824486Y-76345121D01*
X67799501Y-76348270D01*
X67767760Y-76351042D01*
X67728338Y-76353461D01*
X67680314Y-76355551D01*
X67622763Y-76357335D01*
X67554763Y-76358837D01*
X67475390Y-76360080D01*
X67383721Y-76361089D01*
X67278834Y-76361885D01*
X67159804Y-76362494D01*
X67025710Y-76362939D01*
X66875627Y-76363243D01*
X66708633Y-76363430D01*
X66523804Y-76363524D01*
X66320217Y-76363548D01*
X66096950Y-76363525D01*
X65853078Y-76363480D01*
X65587679Y-76363437D01*
X65549296Y-76363432D01*
X65282318Y-76363389D01*
X65036998Y-76363318D01*
X64812417Y-76363213D01*
X64607655Y-76363066D01*
X64421794Y-76362869D01*
X64253912Y-76362616D01*
X64103092Y-76362300D01*
X63968413Y-76361913D01*
X63848956Y-76361447D01*
X63743801Y-76360897D01*
X63652029Y-76360253D01*
X63572721Y-76359511D01*
X63504957Y-76358661D01*
X63447818Y-76357697D01*
X63400383Y-76356611D01*
X63361734Y-76355397D01*
X63330951Y-76354047D01*
X63307115Y-76352555D01*
X63289306Y-76350911D01*
X63276605Y-76349111D01*
X63268092Y-76347145D01*
X63263734Y-76345477D01*
X63255272Y-76341906D01*
X63247503Y-76339270D01*
X63240398Y-76336634D01*
X63233927Y-76333062D01*
X63228061Y-76327621D01*
X63222771Y-76319375D01*
X63218026Y-76307390D01*
X63213798Y-76290731D01*
X63210057Y-76268463D01*
X63206773Y-76239652D01*
X63203917Y-76203363D01*
X63201460Y-76158661D01*
X63199371Y-76104611D01*
X63197622Y-76040279D01*
X63196183Y-75964730D01*
X63195024Y-75877030D01*
X63194117Y-75776243D01*
X63193431Y-75661434D01*
X63192937Y-75531670D01*
X63192605Y-75386015D01*
X63192407Y-75223535D01*
X63192313Y-75043295D01*
X63192292Y-74844360D01*
X63192315Y-74625796D01*
X63192354Y-74386668D01*
X63192378Y-74126040D01*
X63192378Y-74083889D01*
X63192364Y-73820992D01*
X63192339Y-73579732D01*
X63192329Y-73359165D01*
X63192358Y-73158352D01*
X63192452Y-72976349D01*
X63192638Y-72812216D01*
X63192941Y-72665011D01*
X63193386Y-72533792D01*
X63193966Y-72423867D01*
X63496803Y-72423867D01*
X63536593Y-72481711D01*
X63547764Y-72497479D01*
X63557834Y-72511441D01*
X63566862Y-72524784D01*
X63574903Y-72538693D01*
X63582014Y-72554356D01*
X63588253Y-72572958D01*
X63593675Y-72595686D01*
X63598338Y-72623727D01*
X63602299Y-72658267D01*
X63605615Y-72700492D01*
X63608341Y-72751589D01*
X63610536Y-72812744D01*
X63612255Y-72885144D01*
X63613556Y-72969975D01*
X63614495Y-73068422D01*
X63615130Y-73181674D01*
X63615516Y-73310916D01*
X63615712Y-73457334D01*
X63615773Y-73622116D01*
X63615757Y-73806447D01*
X63615720Y-74011513D01*
X63615711Y-74134133D01*
X63615735Y-74351082D01*
X63615769Y-74546642D01*
X63615757Y-74721999D01*
X63615642Y-74878341D01*
X63615370Y-75016857D01*
X63614882Y-75138734D01*
X63614124Y-75245160D01*
X63613038Y-75337322D01*
X63611569Y-75416409D01*
X63609660Y-75483608D01*
X63607256Y-75540107D01*
X63604299Y-75587093D01*
X63600734Y-75625755D01*
X63596505Y-75657280D01*
X63591554Y-75682855D01*
X63585827Y-75703670D01*
X63579267Y-75720911D01*
X63571817Y-75735765D01*
X63563421Y-75749422D01*
X63554024Y-75763069D01*
X63543568Y-75777893D01*
X63537477Y-75786783D01*
X63498704Y-75844400D01*
X64030268Y-75844400D01*
X64153517Y-75844365D01*
X64256013Y-75844215D01*
X64339580Y-75843878D01*
X64406044Y-75843286D01*
X64457229Y-75842367D01*
X64494959Y-75841051D01*
X64521060Y-75839269D01*
X64537356Y-75836951D01*
X64545672Y-75834026D01*
X64547832Y-75830424D01*
X64545661Y-75826075D01*
X64544465Y-75824645D01*
X64519315Y-75787573D01*
X64493417Y-75734772D01*
X64469808Y-75672770D01*
X64461539Y-75646357D01*
X64456922Y-75628416D01*
X64453021Y-75607355D01*
X64449752Y-75581089D01*
X64447034Y-75547532D01*
X64444785Y-75504599D01*
X64442923Y-75450204D01*
X64441364Y-75382262D01*
X64440028Y-75298688D01*
X64438831Y-75197395D01*
X64437692Y-75076300D01*
X64437315Y-75031600D01*
X64436298Y-74906449D01*
X64435540Y-74802082D01*
X64435097Y-74716707D01*
X64435030Y-74648533D01*
X64435395Y-74595765D01*
X64436252Y-74556614D01*
X64437659Y-74529285D01*
X64439675Y-74511986D01*
X64442357Y-74502926D01*
X64445764Y-74500312D01*
X64449956Y-74502351D01*
X64454429Y-74506667D01*
X64464784Y-74519602D01*
X64486842Y-74548676D01*
X64519043Y-74591759D01*
X64559826Y-74646718D01*
X64607630Y-74711423D01*
X64660895Y-74783742D01*
X64718060Y-74861544D01*
X64777563Y-74942698D01*
X64837845Y-75025072D01*
X64897345Y-75106536D01*
X64954502Y-75184957D01*
X65007755Y-75258204D01*
X65055543Y-75324147D01*
X65096307Y-75380654D01*
X65128484Y-75425593D01*
X65150515Y-75456834D01*
X65155083Y-75463466D01*
X65178004Y-75500369D01*
X65204812Y-75548359D01*
X65230211Y-75597897D01*
X65233432Y-75604577D01*
X65255110Y-75652772D01*
X65267696Y-75690334D01*
X65273426Y-75726160D01*
X65274544Y-75768200D01*
X65273910Y-75844400D01*
X66428349Y-75844400D01*
X66337185Y-75750669D01*
X66290388Y-75700775D01*
X66240101Y-75644295D01*
X66194056Y-75590026D01*
X66173631Y-75564673D01*
X66143193Y-75525128D01*
X66103138Y-75471916D01*
X66054639Y-75406667D01*
X65998865Y-75331011D01*
X65936989Y-75246577D01*
X65870181Y-75154994D01*
X65799613Y-75057892D01*
X65726455Y-74956901D01*
X65651879Y-74853650D01*
X65577056Y-74749768D01*
X65503157Y-74646885D01*
X65431354Y-74546631D01*
X65362816Y-74450636D01*
X65298716Y-74360527D01*
X65240225Y-74277936D01*
X65188514Y-74204492D01*
X65144753Y-74141824D01*
X65110115Y-74091561D01*
X65085770Y-74055334D01*
X65072889Y-74034771D01*
X65071131Y-74030668D01*
X65079090Y-74019342D01*
X65099885Y-73992162D01*
X65132153Y-73950829D01*
X65174530Y-73897044D01*
X65225653Y-73832506D01*
X65284159Y-73758918D01*
X65348686Y-73677978D01*
X65417869Y-73591388D01*
X65490347Y-73500848D01*
X65564754Y-73408060D01*
X65624483Y-73333702D01*
X66635489Y-73333702D01*
X66641398Y-73346659D01*
X66655728Y-73368908D01*
X66656775Y-73370391D01*
X66675562Y-73400544D01*
X66695209Y-73437375D01*
X66699108Y-73445511D01*
X66702644Y-73453940D01*
X66705770Y-73464059D01*
X66708514Y-73477260D01*
X66710908Y-73494938D01*
X66712981Y-73518484D01*
X66714765Y-73549293D01*
X66716288Y-73588757D01*
X66717581Y-73638269D01*
X66718674Y-73699223D01*
X66719597Y-73773011D01*
X66720381Y-73861028D01*
X66721055Y-73964665D01*
X66721650Y-74085316D01*
X66722195Y-74224374D01*
X66722721Y-74383232D01*
X66723255Y-74562089D01*
X66723794Y-74747207D01*
X66724228Y-74911145D01*
X66724491Y-75055303D01*
X66724516Y-75181079D01*
X66724235Y-75289871D01*
X66723581Y-75383077D01*
X66722486Y-75462097D01*
X66720882Y-75528328D01*
X66718703Y-75583170D01*
X66715881Y-75628021D01*
X66712349Y-75664278D01*
X66708039Y-75693341D01*
X66702883Y-75716609D01*
X66696815Y-75735479D01*
X66689767Y-75751351D01*
X66681671Y-75765622D01*
X66672460Y-75779691D01*
X66663960Y-75792158D01*
X66646824Y-75818452D01*
X66636678Y-75836037D01*
X66635489Y-75839257D01*
X66646396Y-75840334D01*
X66677589Y-75841335D01*
X66726777Y-75842235D01*
X66791667Y-75843010D01*
X66869970Y-75843637D01*
X66959393Y-75844091D01*
X67057644Y-75844349D01*
X67126555Y-75844400D01*
X67231548Y-75844180D01*
X67328390Y-75843548D01*
X67414893Y-75842549D01*
X67488868Y-75841227D01*
X67548126Y-75839626D01*
X67590480Y-75837791D01*
X67613740Y-75835765D01*
X67617622Y-75834493D01*
X67609924Y-75819591D01*
X67601926Y-75811560D01*
X67588754Y-75794434D01*
X67571515Y-75764183D01*
X67559593Y-75739622D01*
X67532955Y-75680711D01*
X67529880Y-74503845D01*
X67526805Y-73326978D01*
X67081147Y-73326978D01*
X66983330Y-73327142D01*
X66892936Y-73327611D01*
X66812370Y-73328347D01*
X66744038Y-73329316D01*
X66690344Y-73330480D01*
X66653695Y-73331803D01*
X66636496Y-73333249D01*
X66635489Y-73333702D01*
X65624483Y-73333702D01*
X65639730Y-73314722D01*
X65713910Y-73222537D01*
X65785931Y-73133204D01*
X65854431Y-73048424D01*
X65918045Y-72969898D01*
X65975412Y-72899326D01*
X66025167Y-72838409D01*
X66065948Y-72788847D01*
X66083112Y-72768178D01*
X66169404Y-72667516D01*
X66246003Y-72584259D01*
X66314817Y-72516438D01*
X66377752Y-72462089D01*
X66387133Y-72454722D01*
X66426644Y-72424117D01*
X65294884Y-72423867D01*
X65300173Y-72471844D01*
X65296870Y-72529188D01*
X65275339Y-72597463D01*
X65235365Y-72677212D01*
X65190057Y-72749495D01*
X65173839Y-72772140D01*
X65145786Y-72809696D01*
X65107570Y-72860021D01*
X65060863Y-72920973D01*
X65007339Y-72990411D01*
X64948669Y-73066194D01*
X64886525Y-73146180D01*
X64822579Y-73228228D01*
X64758505Y-73310196D01*
X64695973Y-73389943D01*
X64636657Y-73465327D01*
X64582229Y-73534207D01*
X64534361Y-73594442D01*
X64494725Y-73643889D01*
X64464994Y-73680408D01*
X64446839Y-73701858D01*
X64443780Y-73705156D01*
X64440921Y-73697149D01*
X64438707Y-73666855D01*
X64437143Y-73614556D01*
X64436233Y-73540531D01*
X64435980Y-73445063D01*
X64436387Y-73328434D01*
X64437296Y-73208445D01*
X64438618Y-73076333D01*
X64440143Y-72964594D01*
X64442119Y-72871025D01*
X64444794Y-72793419D01*
X64448418Y-72729574D01*
X64453239Y-72677283D01*
X64459506Y-72634344D01*
X64467468Y-72598551D01*
X64477373Y-72567700D01*
X64489469Y-72539586D01*
X64504007Y-72512005D01*
X64518689Y-72486966D01*
X64556686Y-72423867D01*
X63496803Y-72423867D01*
X63193966Y-72423867D01*
X63193999Y-72417617D01*
X63194805Y-72315544D01*
X63195830Y-72226633D01*
X63197100Y-72149941D01*
X63198640Y-72084527D01*
X63200476Y-72029449D01*
X63202633Y-71983765D01*
X63205137Y-71946534D01*
X63208013Y-71916813D01*
X63211287Y-71893662D01*
X63214985Y-71876139D01*
X63219131Y-71863301D01*
X63223753Y-71854208D01*
X63228874Y-71847918D01*
X63234522Y-71843488D01*
X63240721Y-71839978D01*
X63247496Y-71836445D01*
X63253492Y-71832876D01*
X63258725Y-71830300D01*
X63266901Y-71827972D01*
X63279114Y-71825878D01*
X63296459Y-71824007D01*
X63320031Y-71822347D01*
X63350923Y-71820884D01*
X63390232Y-71819608D01*
X63439050Y-71818504D01*
X63498473Y-71817561D01*
X63569596Y-71816767D01*
X63653512Y-71816109D01*
X63751317Y-71815575D01*
X63864106Y-71815153D01*
X63992971Y-71814829D01*
X64139009Y-71814592D01*
X64303314Y-71814430D01*
X64486980Y-71814330D01*
X64691103Y-71814280D01*
X64902247Y-71814267D01*
X66522600Y-71814267D01*
X66522600Y-71911054D01*
G36*
X70282050Y-77196311D02*
G01*
X70281825Y-77117526D01*
X70281800Y-77055920D01*
X70281800Y-76746485D01*
X70309509Y-76718776D01*
X70321806Y-76707544D01*
X70335103Y-76699853D01*
X70353672Y-76695040D01*
X70381786Y-76692446D01*
X70423717Y-76691410D01*
X70483737Y-76691270D01*
X70487309Y-76691275D01*
X70616288Y-76695636D01*
X70725991Y-76708861D01*
X70818226Y-76731741D01*
X70894802Y-76765070D01*
X70957527Y-76809638D01*
X71008212Y-76866236D01*
X71048663Y-76935658D01*
X71049459Y-76937351D01*
X71073601Y-76999483D01*
X71082203Y-77054509D01*
X71075231Y-77109887D01*
X71052654Y-77173073D01*
X71048372Y-77182689D01*
X71019172Y-77238966D01*
X70986356Y-77282451D01*
X70944002Y-77319417D01*
X70886190Y-77356135D01*
X70882831Y-77358052D01*
X70832504Y-77382227D01*
X70775621Y-77400282D01*
X70708527Y-77412839D01*
X70627565Y-77420522D01*
X70529082Y-77423953D01*
X70494286Y-77424251D01*
X70328594Y-77424845D01*
X70305197Y-77395100D01*
X70298257Y-77385319D01*
X70292842Y-77373897D01*
X70288765Y-77358095D01*
X70285837Y-77335175D01*
X70283867Y-77302396D01*
X70283225Y-77278089D01*
X70439844Y-77278089D01*
X70533726Y-77278089D01*
X70588664Y-77276483D01*
X70645060Y-77272255D01*
X70691345Y-77266292D01*
X70694139Y-77265790D01*
X70776348Y-77243736D01*
X70840114Y-77210600D01*
X70887452Y-77164847D01*
X70920382Y-77104939D01*
X70926108Y-77089061D01*
X70931721Y-77064333D01*
X70929291Y-77039902D01*
X70917467Y-77007400D01*
X70910340Y-76991434D01*
X70887000Y-76949006D01*
X70858880Y-76919240D01*
X70827940Y-76898511D01*
X70765966Y-76871537D01*
X70686651Y-76851998D01*
X70594253Y-76840746D01*
X70527333Y-76838270D01*
X70439844Y-76837822D01*
X70439844Y-77278089D01*
X70283225Y-77278089D01*
X70282668Y-77257021D01*
X70282050Y-77196311D01*
G37*
X70282050Y-77196311D02*
X70281825Y-77117526D01*
X70281800Y-77055920D01*
X70281800Y-76746485D01*
X70309509Y-76718776D01*
X70321806Y-76707544D01*
X70335103Y-76699853D01*
X70353672Y-76695040D01*
X70381786Y-76692446D01*
X70423717Y-76691410D01*
X70483737Y-76691270D01*
X70487309Y-76691275D01*
X70616288Y-76695636D01*
X70725991Y-76708861D01*
X70818226Y-76731741D01*
X70894802Y-76765070D01*
X70957527Y-76809638D01*
X71008212Y-76866236D01*
X71048663Y-76935658D01*
X71049459Y-76937351D01*
X71073601Y-76999483D01*
X71082203Y-77054509D01*
X71075231Y-77109887D01*
X71052654Y-77173073D01*
X71048372Y-77182689D01*
X71019172Y-77238966D01*
X70986356Y-77282451D01*
X70944002Y-77319417D01*
X70886190Y-77356135D01*
X70882831Y-77358052D01*
X70832504Y-77382227D01*
X70775621Y-77400282D01*
X70708527Y-77412839D01*
X70627565Y-77420522D01*
X70529082Y-77423953D01*
X70494286Y-77424251D01*
X70328594Y-77424845D01*
X70305197Y-77395100D01*
X70298257Y-77385319D01*
X70292842Y-77373897D01*
X70288765Y-77358095D01*
X70285837Y-77335175D01*
X70283867Y-77302396D01*
X70283225Y-77278089D01*
X70439844Y-77278089D01*
X70533726Y-77278089D01*
X70588664Y-77276483D01*
X70645060Y-77272255D01*
X70691345Y-77266292D01*
X70694139Y-77265790D01*
X70776348Y-77243736D01*
X70840114Y-77210600D01*
X70887452Y-77164847D01*
X70920382Y-77104939D01*
X70926108Y-77089061D01*
X70931721Y-77064333D01*
X70929291Y-77039902D01*
X70917467Y-77007400D01*
X70910340Y-76991434D01*
X70887000Y-76949006D01*
X70858880Y-76919240D01*
X70827940Y-76898511D01*
X70765966Y-76871537D01*
X70686651Y-76851998D01*
X70594253Y-76840746D01*
X70527333Y-76838270D01*
X70439844Y-76837822D01*
X70439844Y-77278089D01*
X70283225Y-77278089D01*
X70282668Y-77257021D01*
X70282050Y-77196311D01*
G36*
X74432065Y-76691163D02*
G01*
X74510772Y-76691542D01*
X74571863Y-76692333D01*
X74617817Y-76693670D01*
X74651114Y-76695683D01*
X74674236Y-76698506D01*
X74689662Y-76702269D01*
X74699871Y-76707105D01*
X74704813Y-76710822D01*
X74730457Y-76743358D01*
X74733559Y-76777138D01*
X74717711Y-76807826D01*
X74707348Y-76820089D01*
X74696196Y-76828450D01*
X74680035Y-76833657D01*
X74654642Y-76836457D01*
X74615798Y-76837596D01*
X74559280Y-76837821D01*
X74548180Y-76837822D01*
X74402244Y-76837822D01*
X74402244Y-77108756D01*
X74402148Y-77194154D01*
X74401711Y-77259864D01*
X74400712Y-77308774D01*
X74398928Y-77343773D01*
X74396137Y-77367749D01*
X74392117Y-77383593D01*
X74386645Y-77394191D01*
X74379666Y-77402267D01*
X74346734Y-77422112D01*
X74312354Y-77420548D01*
X74281176Y-77397906D01*
X74278886Y-77395100D01*
X74271429Y-77384492D01*
X74265747Y-77372081D01*
X74261601Y-77354850D01*
X74258750Y-77329784D01*
X74256954Y-77293867D01*
X74255972Y-77244083D01*
X74255564Y-77177417D01*
X74255489Y-77101589D01*
X74255489Y-76837822D01*
X74116127Y-76837822D01*
X74056322Y-76837418D01*
X74014918Y-76835840D01*
X73987748Y-76832547D01*
X73970646Y-76826992D01*
X73959443Y-76818631D01*
X73958083Y-76817178D01*
X73941725Y-76783939D01*
X73943172Y-76746362D01*
X73961978Y-76713645D01*
X73969250Y-76707298D01*
X73978627Y-76702266D01*
X73992609Y-76698396D01*
X74013696Y-76695537D01*
X74044389Y-76693535D01*
X74087189Y-76692239D01*
X74144595Y-76691498D01*
X74219110Y-76691158D01*
X74313233Y-76691068D01*
X74333260Y-76691067D01*
X74432065Y-76691163D01*
G37*
X74432065Y-76691163D02*
X74510772Y-76691542D01*
X74571863Y-76692333D01*
X74617817Y-76693670D01*
X74651114Y-76695683D01*
X74674236Y-76698506D01*
X74689662Y-76702269D01*
X74699871Y-76707105D01*
X74704813Y-76710822D01*
X74730457Y-76743358D01*
X74733559Y-76777138D01*
X74717711Y-76807826D01*
X74707348Y-76820089D01*
X74696196Y-76828450D01*
X74680035Y-76833657D01*
X74654642Y-76836457D01*
X74615798Y-76837596D01*
X74559280Y-76837821D01*
X74548180Y-76837822D01*
X74402244Y-76837822D01*
X74402244Y-77108756D01*
X74402148Y-77194154D01*
X74401711Y-77259864D01*
X74400712Y-77308774D01*
X74398928Y-77343773D01*
X74396137Y-77367749D01*
X74392117Y-77383593D01*
X74386645Y-77394191D01*
X74379666Y-77402267D01*
X74346734Y-77422112D01*
X74312354Y-77420548D01*
X74281176Y-77397906D01*
X74278886Y-77395100D01*
X74271429Y-77384492D01*
X74265747Y-77372081D01*
X74261601Y-77354850D01*
X74258750Y-77329784D01*
X74256954Y-77293867D01*
X74255972Y-77244083D01*
X74255564Y-77177417D01*
X74255489Y-77101589D01*
X74255489Y-76837822D01*
X74116127Y-76837822D01*
X74056322Y-76837418D01*
X74014918Y-76835840D01*
X73987748Y-76832547D01*
X73970646Y-76826992D01*
X73959443Y-76818631D01*
X73958083Y-76817178D01*
X73941725Y-76783939D01*
X73943172Y-76746362D01*
X73961978Y-76713645D01*
X73969250Y-76707298D01*
X73978627Y-76702266D01*
X73992609Y-76698396D01*
X74013696Y-76695537D01*
X74044389Y-76693535D01*
X74087189Y-76692239D01*
X74144595Y-76691498D01*
X74219110Y-76691158D01*
X74313233Y-76691068D01*
X74333260Y-76691067D01*
X74432065Y-76691163D01*
G36*
X73312802Y-74256059D02*
G01*
X73348786Y-74077332D01*
X73398759Y-73915845D01*
X73462668Y-73771726D01*
X73540462Y-73645106D01*
X73632089Y-73536115D01*
X73737497Y-73444883D01*
X73782662Y-73413932D01*
X73883611Y-73357785D01*
X73986901Y-73318174D01*
X74096989Y-73294014D01*
X74218330Y-73284219D01*
X74310836Y-73285265D01*
X74440490Y-73296231D01*
X74553084Y-73318046D01*
X74651875Y-73351714D01*
X74740121Y-73398236D01*
X74788986Y-73432448D01*
X74818353Y-73454362D01*
X74840043Y-73469333D01*
X74848253Y-73473733D01*
X74849868Y-73462904D01*
X74851159Y-73432251D01*
X74852138Y-73384526D01*
X74852817Y-73322479D01*
X74853210Y-73248862D01*
X74853330Y-73166427D01*
X74853188Y-73077925D01*
X74852797Y-72986107D01*
X74852171Y-72893724D01*
X74851320Y-72803528D01*
X74850260Y-72718271D01*
X74849001Y-72640703D01*
X74847556Y-72573576D01*
X74845938Y-72519641D01*
X74844161Y-72481650D01*
X74843669Y-72474667D01*
X74836092Y-72404251D01*
X74824531Y-72349102D01*
X74806792Y-72301981D01*
X74780682Y-72255647D01*
X74774415Y-72246067D01*
X74749983Y-72209378D01*
X75655311Y-72209378D01*
X75655507Y-73894245D01*
X75655526Y-74128662D01*
X75655552Y-74341603D01*
X75655625Y-74534168D01*
X75655782Y-74707459D01*
X75656064Y-74862576D01*
X75656509Y-75000620D01*
X75657156Y-75122692D01*
X75658045Y-75229894D01*
X75659213Y-75323326D01*
X75660701Y-75404090D01*
X75662546Y-75473286D01*
X75664789Y-75532015D01*
X75667469Y-75581379D01*
X75670623Y-75622478D01*
X75674292Y-75656413D01*
X75678513Y-75684286D01*
X75683327Y-75707198D01*
X75688773Y-75726249D01*
X75694888Y-75742540D01*
X75701712Y-75757173D01*
X75709285Y-75771249D01*
X75717645Y-75785868D01*
X75722839Y-75794974D01*
X75757104Y-75855689D01*
X74898955Y-75855689D01*
X74898955Y-75759733D01*
X74898224Y-75716370D01*
X74896272Y-75683205D01*
X74893463Y-75665424D01*
X74892221Y-75663778D01*
X74880799Y-75670662D01*
X74858084Y-75688505D01*
X74835385Y-75707879D01*
X74780800Y-75748614D01*
X74711321Y-75789617D01*
X74634270Y-75827123D01*
X74556965Y-75857364D01*
X74526113Y-75867012D01*
X74457616Y-75881578D01*
X74374764Y-75891539D01*
X74285371Y-75896583D01*
X74197248Y-75896396D01*
X74118207Y-75890666D01*
X74080511Y-75884858D01*
X73942414Y-75846797D01*
X73815113Y-75789073D01*
X73699292Y-75712211D01*
X73595637Y-75616739D01*
X73504833Y-75503179D01*
X73438031Y-75392381D01*
X73383164Y-75275625D01*
X73341163Y-75156276D01*
X73311167Y-75030283D01*
X73292311Y-74893594D01*
X73283732Y-74742158D01*
X73283006Y-74664711D01*
X73285100Y-74607934D01*
X74114217Y-74607934D01*
X74114424Y-74701002D01*
X74117337Y-74788692D01*
X74123000Y-74865772D01*
X74131455Y-74927009D01*
X74134038Y-74939350D01*
X74165840Y-75046633D01*
X74207498Y-75133658D01*
X74259363Y-75200642D01*
X74321781Y-75247805D01*
X74395100Y-75275365D01*
X74479669Y-75283541D01*
X74575835Y-75272551D01*
X74639311Y-75256829D01*
X74688454Y-75238639D01*
X74742583Y-75212791D01*
X74783244Y-75189089D01*
X74853800Y-75142721D01*
X74853800Y-73992530D01*
X74786392Y-73948962D01*
X74707867Y-73908040D01*
X74623681Y-73881389D01*
X74538557Y-73869465D01*
X74457216Y-73872722D01*
X74384380Y-73891615D01*
X74352426Y-73907184D01*
X74294501Y-73950181D01*
X74245544Y-74006953D01*
X74204390Y-74079575D01*
X74169874Y-74170121D01*
X74140833Y-74280666D01*
X74139552Y-74286533D01*
X74129381Y-74348788D01*
X74121739Y-74426594D01*
X74116670Y-74514720D01*
X74114217Y-74607934D01*
X73285100Y-74607934D01*
X73290857Y-74451895D01*
X73312802Y-74256059D01*
G37*
X73312802Y-74256059D02*
X73348786Y-74077332D01*
X73398759Y-73915845D01*
X73462668Y-73771726D01*
X73540462Y-73645106D01*
X73632089Y-73536115D01*
X73737497Y-73444883D01*
X73782662Y-73413932D01*
X73883611Y-73357785D01*
X73986901Y-73318174D01*
X74096989Y-73294014D01*
X74218330Y-73284219D01*
X74310836Y-73285265D01*
X74440490Y-73296231D01*
X74553084Y-73318046D01*
X74651875Y-73351714D01*
X74740121Y-73398236D01*
X74788986Y-73432448D01*
X74818353Y-73454362D01*
X74840043Y-73469333D01*
X74848253Y-73473733D01*
X74849868Y-73462904D01*
X74851159Y-73432251D01*
X74852138Y-73384526D01*
X74852817Y-73322479D01*
X74853210Y-73248862D01*
X74853330Y-73166427D01*
X74853188Y-73077925D01*
X74852797Y-72986107D01*
X74852171Y-72893724D01*
X74851320Y-72803528D01*
X74850260Y-72718271D01*
X74849001Y-72640703D01*
X74847556Y-72573576D01*
X74845938Y-72519641D01*
X74844161Y-72481650D01*
X74843669Y-72474667D01*
X74836092Y-72404251D01*
X74824531Y-72349102D01*
X74806792Y-72301981D01*
X74780682Y-72255647D01*
X74774415Y-72246067D01*
X74749983Y-72209378D01*
X75655311Y-72209378D01*
X75655507Y-73894245D01*
X75655526Y-74128662D01*
X75655552Y-74341603D01*
X75655625Y-74534168D01*
X75655782Y-74707459D01*
X75656064Y-74862576D01*
X75656509Y-75000620D01*
X75657156Y-75122692D01*
X75658045Y-75229894D01*
X75659213Y-75323326D01*
X75660701Y-75404090D01*
X75662546Y-75473286D01*
X75664789Y-75532015D01*
X75667469Y-75581379D01*
X75670623Y-75622478D01*
X75674292Y-75656413D01*
X75678513Y-75684286D01*
X75683327Y-75707198D01*
X75688773Y-75726249D01*
X75694888Y-75742540D01*
X75701712Y-75757173D01*
X75709285Y-75771249D01*
X75717645Y-75785868D01*
X75722839Y-75794974D01*
X75757104Y-75855689D01*
X74898955Y-75855689D01*
X74898955Y-75759733D01*
X74898224Y-75716370D01*
X74896272Y-75683205D01*
X74893463Y-75665424D01*
X74892221Y-75663778D01*
X74880799Y-75670662D01*
X74858084Y-75688505D01*
X74835385Y-75707879D01*
X74780800Y-75748614D01*
X74711321Y-75789617D01*
X74634270Y-75827123D01*
X74556965Y-75857364D01*
X74526113Y-75867012D01*
X74457616Y-75881578D01*
X74374764Y-75891539D01*
X74285371Y-75896583D01*
X74197248Y-75896396D01*
X74118207Y-75890666D01*
X74080511Y-75884858D01*
X73942414Y-75846797D01*
X73815113Y-75789073D01*
X73699292Y-75712211D01*
X73595637Y-75616739D01*
X73504833Y-75503179D01*
X73438031Y-75392381D01*
X73383164Y-75275625D01*
X73341163Y-75156276D01*
X73311167Y-75030283D01*
X73292311Y-74893594D01*
X73283732Y-74742158D01*
X73283006Y-74664711D01*
X73285100Y-74607934D01*
X74114217Y-74607934D01*
X74114424Y-74701002D01*
X74117337Y-74788692D01*
X74123000Y-74865772D01*
X74131455Y-74927009D01*
X74134038Y-74939350D01*
X74165840Y-75046633D01*
X74207498Y-75133658D01*
X74259363Y-75200642D01*
X74321781Y-75247805D01*
X74395100Y-75275365D01*
X74479669Y-75283541D01*
X74575835Y-75272551D01*
X74639311Y-75256829D01*
X74688454Y-75238639D01*
X74742583Y-75212791D01*
X74783244Y-75189089D01*
X74853800Y-75142721D01*
X74853800Y-73992530D01*
X74786392Y-73948962D01*
X74707867Y-73908040D01*
X74623681Y-73881389D01*
X74538557Y-73869465D01*
X74457216Y-73872722D01*
X74384380Y-73891615D01*
X74352426Y-73907184D01*
X74294501Y-73950181D01*
X74245544Y-74006953D01*
X74204390Y-74079575D01*
X74169874Y-74170121D01*
X74140833Y-74280666D01*
X74139552Y-74286533D01*
X74129381Y-74348788D01*
X74121739Y-74426594D01*
X74116670Y-74514720D01*
X74114217Y-74607934D01*
X73285100Y-74607934D01*
X73290857Y-74451895D01*
X73312802Y-74256059D01*
G36*
X70751522Y-74892812D02*
G01*
X70767768Y-74821590D01*
X70793405Y-74750864D01*
X70817401Y-74698493D01*
X70876020Y-74603196D01*
X70954117Y-74515170D01*
X71049315Y-74436017D01*
X71159238Y-74367340D01*
X71281510Y-74310741D01*
X71413755Y-74267821D01*
X71478422Y-74252882D01*
X71614604Y-74230777D01*
X71763049Y-74216194D01*
X71914505Y-74209813D01*
X72041064Y-74211445D01*
X72202950Y-74218224D01*
X72195530Y-74159245D01*
X72176238Y-74060092D01*
X72145104Y-73979372D01*
X72101269Y-73916466D01*
X72043871Y-73870756D01*
X71972048Y-73841622D01*
X71884941Y-73828447D01*
X71781686Y-73830611D01*
X71743711Y-73834612D01*
X71602520Y-73859780D01*
X71465707Y-73900814D01*
X71371178Y-73938815D01*
X71326018Y-73958190D01*
X71287585Y-73973760D01*
X71261234Y-73983405D01*
X71253546Y-73985452D01*
X71243802Y-73976374D01*
X71227083Y-73947405D01*
X71203232Y-73898217D01*
X71172093Y-73828484D01*
X71133507Y-73737879D01*
X71126910Y-73722089D01*
X71096853Y-73649772D01*
X71069874Y-73584425D01*
X71047136Y-73528906D01*
X71029806Y-73486072D01*
X71019048Y-73458781D01*
X71015941Y-73449942D01*
X71025940Y-73445187D01*
X71052217Y-73439910D01*
X71080489Y-73436231D01*
X71110646Y-73431474D01*
X71158433Y-73422028D01*
X71219612Y-73408820D01*
X71289946Y-73392776D01*
X71365194Y-73374820D01*
X71393755Y-73367797D01*
X71498816Y-73342209D01*
X71586480Y-73322147D01*
X71661068Y-73306969D01*
X71726903Y-73296035D01*
X71788307Y-73288704D01*
X71849602Y-73284335D01*
X71915110Y-73282287D01*
X71973128Y-73281889D01*
X72142574Y-73288552D01*
X72294492Y-73308567D01*
X72429756Y-73342202D01*
X72549239Y-73389725D01*
X72653815Y-73451405D01*
X72731424Y-73514965D01*
X72800265Y-73589099D01*
X72854006Y-73668871D01*
X72896910Y-73761091D01*
X72912384Y-73804161D01*
X72925244Y-73843142D01*
X72936446Y-73879289D01*
X72946120Y-73914434D01*
X72954396Y-73950410D01*
X72961403Y-73989050D01*
X72967272Y-74032185D01*
X72972131Y-74081649D01*
X72976110Y-74139273D01*
X72979340Y-74206891D01*
X72981949Y-74286334D01*
X72984067Y-74379436D01*
X72985824Y-74488027D01*
X72987349Y-74613942D01*
X72988772Y-74759012D01*
X72990025Y-74901778D01*
X72991351Y-75057968D01*
X72992556Y-75193239D01*
X72993766Y-75309246D01*
X72995106Y-75407645D01*
X72996700Y-75490093D01*
X72998675Y-75558246D01*
X73001156Y-75613760D01*
X73004269Y-75658292D01*
X73008138Y-75693498D01*
X73012889Y-75721034D01*
X73018648Y-75742556D01*
X73025539Y-75759722D01*
X73033689Y-75774186D01*
X73043223Y-75787606D01*
X73054266Y-75801638D01*
X73058566Y-75807071D01*
X73074386Y-75829910D01*
X73081422Y-75845463D01*
X73081444Y-75845922D01*
X73070567Y-75848121D01*
X73039582Y-75850147D01*
X72990957Y-75851942D01*
X72927163Y-75853451D01*
X72850669Y-75854616D01*
X72763944Y-75855380D01*
X72669457Y-75855686D01*
X72658550Y-75855689D01*
X72235657Y-75855689D01*
X72232395Y-75759622D01*
X72229133Y-75663556D01*
X72167044Y-75714543D01*
X72069714Y-75782057D01*
X71959813Y-75836749D01*
X71873349Y-75866978D01*
X71804278Y-75881666D01*
X71720925Y-75891659D01*
X71631159Y-75896646D01*
X71542845Y-75896313D01*
X71463851Y-75890351D01*
X71427622Y-75884638D01*
X71287603Y-75846776D01*
X71161178Y-75791932D01*
X71049260Y-75720924D01*
X70952762Y-75634568D01*
X70872600Y-75533679D01*
X70809687Y-75419076D01*
X70765312Y-75292984D01*
X70752978Y-75236401D01*
X70745368Y-75174202D01*
X70741739Y-75099363D01*
X70741245Y-75065467D01*
X70741310Y-75062282D01*
X71501248Y-75062282D01*
X71510541Y-75137333D01*
X71538728Y-75201160D01*
X71587197Y-75256798D01*
X71592254Y-75261211D01*
X71640548Y-75296037D01*
X71692257Y-75318620D01*
X71752989Y-75330540D01*
X71828352Y-75333383D01*
X71846459Y-75332978D01*
X71900278Y-75330325D01*
X71940308Y-75324909D01*
X71975324Y-75314745D01*
X72014103Y-75297850D01*
X72024745Y-75292672D01*
X72085396Y-75256844D01*
X72132215Y-75214212D01*
X72144952Y-75198973D01*
X72189622Y-75142462D01*
X72189622Y-74946586D01*
X72189086Y-74867939D01*
X72187396Y-74809988D01*
X72184428Y-74770875D01*
X72180057Y-74748741D01*
X72175972Y-74742274D01*
X72160047Y-74739111D01*
X72126264Y-74736488D01*
X72079340Y-74734655D01*
X72023993Y-74733857D01*
X72015106Y-74733842D01*
X71894330Y-74739096D01*
X71791660Y-74755263D01*
X71705106Y-74782961D01*
X71632681Y-74822808D01*
X71577751Y-74869758D01*
X71533204Y-74927645D01*
X71508480Y-74990693D01*
X71501248Y-75062282D01*
X70741310Y-75062282D01*
X70743178Y-74971712D01*
X70751522Y-74892812D01*
G37*
X70751522Y-74892812D02*
X70767768Y-74821590D01*
X70793405Y-74750864D01*
X70817401Y-74698493D01*
X70876020Y-74603196D01*
X70954117Y-74515170D01*
X71049315Y-74436017D01*
X71159238Y-74367340D01*
X71281510Y-74310741D01*
X71413755Y-74267821D01*
X71478422Y-74252882D01*
X71614604Y-74230777D01*
X71763049Y-74216194D01*
X71914505Y-74209813D01*
X72041064Y-74211445D01*
X72202950Y-74218224D01*
X72195530Y-74159245D01*
X72176238Y-74060092D01*
X72145104Y-73979372D01*
X72101269Y-73916466D01*
X72043871Y-73870756D01*
X71972048Y-73841622D01*
X71884941Y-73828447D01*
X71781686Y-73830611D01*
X71743711Y-73834612D01*
X71602520Y-73859780D01*
X71465707Y-73900814D01*
X71371178Y-73938815D01*
X71326018Y-73958190D01*
X71287585Y-73973760D01*
X71261234Y-73983405D01*
X71253546Y-73985452D01*
X71243802Y-73976374D01*
X71227083Y-73947405D01*
X71203232Y-73898217D01*
X71172093Y-73828484D01*
X71133507Y-73737879D01*
X71126910Y-73722089D01*
X71096853Y-73649772D01*
X71069874Y-73584425D01*
X71047136Y-73528906D01*
X71029806Y-73486072D01*
X71019048Y-73458781D01*
X71015941Y-73449942D01*
X71025940Y-73445187D01*
X71052217Y-73439910D01*
X71080489Y-73436231D01*
X71110646Y-73431474D01*
X71158433Y-73422028D01*
X71219612Y-73408820D01*
X71289946Y-73392776D01*
X71365194Y-73374820D01*
X71393755Y-73367797D01*
X71498816Y-73342209D01*
X71586480Y-73322147D01*
X71661068Y-73306969D01*
X71726903Y-73296035D01*
X71788307Y-73288704D01*
X71849602Y-73284335D01*
X71915110Y-73282287D01*
X71973128Y-73281889D01*
X72142574Y-73288552D01*
X72294492Y-73308567D01*
X72429756Y-73342202D01*
X72549239Y-73389725D01*
X72653815Y-73451405D01*
X72731424Y-73514965D01*
X72800265Y-73589099D01*
X72854006Y-73668871D01*
X72896910Y-73761091D01*
X72912384Y-73804161D01*
X72925244Y-73843142D01*
X72936446Y-73879289D01*
X72946120Y-73914434D01*
X72954396Y-73950410D01*
X72961403Y-73989050D01*
X72967272Y-74032185D01*
X72972131Y-74081649D01*
X72976110Y-74139273D01*
X72979340Y-74206891D01*
X72981949Y-74286334D01*
X72984067Y-74379436D01*
X72985824Y-74488027D01*
X72987349Y-74613942D01*
X72988772Y-74759012D01*
X72990025Y-74901778D01*
X72991351Y-75057968D01*
X72992556Y-75193239D01*
X72993766Y-75309246D01*
X72995106Y-75407645D01*
X72996700Y-75490093D01*
X72998675Y-75558246D01*
X73001156Y-75613760D01*
X73004269Y-75658292D01*
X73008138Y-75693498D01*
X73012889Y-75721034D01*
X73018648Y-75742556D01*
X73025539Y-75759722D01*
X73033689Y-75774186D01*
X73043223Y-75787606D01*
X73054266Y-75801638D01*
X73058566Y-75807071D01*
X73074386Y-75829910D01*
X73081422Y-75845463D01*
X73081444Y-75845922D01*
X73070567Y-75848121D01*
X73039582Y-75850147D01*
X72990957Y-75851942D01*
X72927163Y-75853451D01*
X72850669Y-75854616D01*
X72763944Y-75855380D01*
X72669457Y-75855686D01*
X72658550Y-75855689D01*
X72235657Y-75855689D01*
X72232395Y-75759622D01*
X72229133Y-75663556D01*
X72167044Y-75714543D01*
X72069714Y-75782057D01*
X71959813Y-75836749D01*
X71873349Y-75866978D01*
X71804278Y-75881666D01*
X71720925Y-75891659D01*
X71631159Y-75896646D01*
X71542845Y-75896313D01*
X71463851Y-75890351D01*
X71427622Y-75884638D01*
X71287603Y-75846776D01*
X71161178Y-75791932D01*
X71049260Y-75720924D01*
X70952762Y-75634568D01*
X70872600Y-75533679D01*
X70809687Y-75419076D01*
X70765312Y-75292984D01*
X70752978Y-75236401D01*
X70745368Y-75174202D01*
X70741739Y-75099363D01*
X70741245Y-75065467D01*
X70741310Y-75062282D01*
X71501248Y-75062282D01*
X71510541Y-75137333D01*
X71538728Y-75201160D01*
X71587197Y-75256798D01*
X71592254Y-75261211D01*
X71640548Y-75296037D01*
X71692257Y-75318620D01*
X71752989Y-75330540D01*
X71828352Y-75333383D01*
X71846459Y-75332978D01*
X71900278Y-75330325D01*
X71940308Y-75324909D01*
X71975324Y-75314745D01*
X72014103Y-75297850D01*
X72024745Y-75292672D01*
X72085396Y-75256844D01*
X72132215Y-75214212D01*
X72144952Y-75198973D01*
X72189622Y-75142462D01*
X72189622Y-74946586D01*
X72189086Y-74867939D01*
X72187396Y-74809988D01*
X72184428Y-74770875D01*
X72180057Y-74748741D01*
X72175972Y-74742274D01*
X72160047Y-74739111D01*
X72126264Y-74736488D01*
X72079340Y-74734655D01*
X72023993Y-74733857D01*
X72015106Y-74733842D01*
X71894330Y-74739096D01*
X71791660Y-74755263D01*
X71705106Y-74782961D01*
X71632681Y-74822808D01*
X71577751Y-74869758D01*
X71533204Y-74927645D01*
X71508480Y-74990693D01*
X71501248Y-75062282D01*
X70741310Y-75062282D01*
X70743178Y-74971712D01*
X70751522Y-74892812D01*
G36*
X75697823Y-76696533D02*
G01*
X75729202Y-76718776D01*
X75756911Y-76746485D01*
X75756911Y-77055920D01*
X75756838Y-77147799D01*
X75756495Y-77219840D01*
X75755692Y-77274780D01*
X75754241Y-77315360D01*
X75751952Y-77344317D01*
X75748636Y-77364391D01*
X75744105Y-77378321D01*
X75738169Y-77388845D01*
X75733514Y-77395100D01*
X75702783Y-77419673D01*
X75667496Y-77422341D01*
X75635245Y-77407271D01*
X75624588Y-77398374D01*
X75617464Y-77386557D01*
X75613167Y-77367526D01*
X75610991Y-77336992D01*
X75610228Y-77290662D01*
X75610155Y-77254871D01*
X75610155Y-77120045D01*
X75113444Y-77120045D01*
X75113444Y-77242700D01*
X75112931Y-77298787D01*
X75110876Y-77337333D01*
X75106508Y-77363361D01*
X75099056Y-77381897D01*
X75090047Y-77395100D01*
X75059144Y-77419604D01*
X75024196Y-77422506D01*
X74990738Y-77405089D01*
X74981604Y-77395959D01*
X74975152Y-77383855D01*
X74970897Y-77365001D01*
X74968352Y-77335620D01*
X74967029Y-77291937D01*
X74966443Y-77230175D01*
X74966375Y-77216000D01*
X74965891Y-77099631D01*
X74965641Y-77003727D01*
X74965723Y-76926177D01*
X74966231Y-76864869D01*
X74967262Y-76817690D01*
X74968913Y-76782530D01*
X74971279Y-76757276D01*
X74974457Y-76739817D01*
X74978544Y-76728041D01*
X74983634Y-76719835D01*
X74989266Y-76713645D01*
X75021128Y-76693844D01*
X75054357Y-76696533D01*
X75085735Y-76718776D01*
X75098433Y-76733126D01*
X75106526Y-76748978D01*
X75111042Y-76771554D01*
X75113006Y-76806078D01*
X75113444Y-76857776D01*
X75113444Y-76973289D01*
X75610155Y-76973289D01*
X75610155Y-76854756D01*
X75610662Y-76800148D01*
X75612698Y-76763275D01*
X75617035Y-76739307D01*
X75624447Y-76723415D01*
X75632733Y-76713645D01*
X75664594Y-76693844D01*
X75697823Y-76696533D01*
G37*
X75697823Y-76696533D02*
X75729202Y-76718776D01*
X75756911Y-76746485D01*
X75756911Y-77055920D01*
X75756838Y-77147799D01*
X75756495Y-77219840D01*
X75755692Y-77274780D01*
X75754241Y-77315360D01*
X75751952Y-77344317D01*
X75748636Y-77364391D01*
X75744105Y-77378321D01*
X75738169Y-77388845D01*
X75733514Y-77395100D01*
X75702783Y-77419673D01*
X75667496Y-77422341D01*
X75635245Y-77407271D01*
X75624588Y-77398374D01*
X75617464Y-77386557D01*
X75613167Y-77367526D01*
X75610991Y-77336992D01*
X75610228Y-77290662D01*
X75610155Y-77254871D01*
X75610155Y-77120045D01*
X75113444Y-77120045D01*
X75113444Y-77242700D01*
X75112931Y-77298787D01*
X75110876Y-77337333D01*
X75106508Y-77363361D01*
X75099056Y-77381897D01*
X75090047Y-77395100D01*
X75059144Y-77419604D01*
X75024196Y-77422506D01*
X74990738Y-77405089D01*
X74981604Y-77395959D01*
X74975152Y-77383855D01*
X74970897Y-77365001D01*
X74968352Y-77335620D01*
X74967029Y-77291937D01*
X74966443Y-77230175D01*
X74966375Y-77216000D01*
X74965891Y-77099631D01*
X74965641Y-77003727D01*
X74965723Y-76926177D01*
X74966231Y-76864869D01*
X74967262Y-76817690D01*
X74968913Y-76782530D01*
X74971279Y-76757276D01*
X74974457Y-76739817D01*
X74978544Y-76728041D01*
X74983634Y-76719835D01*
X74989266Y-76713645D01*
X75021128Y-76693844D01*
X75054357Y-76696533D01*
X75085735Y-76718776D01*
X75098433Y-76733126D01*
X75106526Y-76748978D01*
X75111042Y-76771554D01*
X75113006Y-76806078D01*
X75113444Y-76857776D01*
X75113444Y-76973289D01*
X75610155Y-76973289D01*
X75610155Y-76854756D01*
X75610662Y-76800148D01*
X75612698Y-76763275D01*
X75617035Y-76739307D01*
X75624447Y-76723415D01*
X75632733Y-76713645D01*
X75664594Y-76693844D01*
X75697823Y-76696533D01*
G36*
X73657614Y-76697877D02*
G01*
X73681327Y-76712647D01*
X73707978Y-76734227D01*
X73707978Y-77055773D01*
X73707893Y-77149830D01*
X73707529Y-77223932D01*
X73706724Y-77280704D01*
X73705313Y-77322768D01*
X73703133Y-77352748D01*
X73700021Y-77373267D01*
X73695814Y-77386949D01*
X73690348Y-77396416D01*
X73686472Y-77401082D01*
X73655034Y-77421575D01*
X73619233Y-77420739D01*
X73587873Y-77403264D01*
X73561222Y-77381684D01*
X73561222Y-76734227D01*
X73587873Y-76712647D01*
X73613594Y-76696949D01*
X73634600Y-76691067D01*
X73657614Y-76697877D01*
G37*
X73657614Y-76697877D02*
X73681327Y-76712647D01*
X73707978Y-76734227D01*
X73707978Y-77055773D01*
X73707893Y-77149830D01*
X73707529Y-77223932D01*
X73706724Y-77280704D01*
X73705313Y-77322768D01*
X73703133Y-77352748D01*
X73700021Y-77373267D01*
X73695814Y-77386949D01*
X73690348Y-77396416D01*
X73686472Y-77401082D01*
X73655034Y-77421575D01*
X73619233Y-77420739D01*
X73587873Y-77403264D01*
X73561222Y-77381684D01*
X73561222Y-76734227D01*
X73587873Y-76712647D01*
X73613594Y-76696949D01*
X73634600Y-76691067D01*
X73657614Y-76697877D01*
G36*
X63198002Y-76767055D02*
G01*
X63206170Y-76733778D01*
X63219444Y-76711759D01*
X63239026Y-76698739D01*
X63266117Y-76692457D01*
X63301918Y-76690653D01*
X63347629Y-76691066D01*
X63387111Y-76691467D01*
X63502800Y-76694259D01*
X63599689Y-76702550D01*
X63681081Y-76717232D01*
X63750277Y-76739193D01*
X63810580Y-76769322D01*
X63865292Y-76808510D01*
X63884833Y-76825532D01*
X63917250Y-76865363D01*
X63946480Y-76919413D01*
X63969009Y-76979323D01*
X63981321Y-77036739D01*
X63982600Y-77057956D01*
X63974583Y-77116769D01*
X63953101Y-77181013D01*
X63922001Y-77241821D01*
X63885134Y-77290330D01*
X63879146Y-77296182D01*
X63828421Y-77337321D01*
X63772875Y-77369435D01*
X63709304Y-77393365D01*
X63634506Y-77409953D01*
X63545278Y-77420041D01*
X63438418Y-77424469D01*
X63389472Y-77424845D01*
X63327238Y-77424545D01*
X63283472Y-77423292D01*
X63254069Y-77420554D01*
X63234921Y-77415801D01*
X63221923Y-77408501D01*
X63214955Y-77402267D01*
X63208374Y-77394694D01*
X63203212Y-77384924D01*
X63199297Y-77370340D01*
X63196457Y-77348326D01*
X63194520Y-77316264D01*
X63193492Y-77278089D01*
X63339133Y-77278089D01*
X63432266Y-77278004D01*
X63488307Y-77276396D01*
X63547001Y-77272256D01*
X63595972Y-77266464D01*
X63597462Y-77266226D01*
X63676608Y-77247090D01*
X63737998Y-77217287D01*
X63784695Y-77174878D01*
X63814365Y-77128961D01*
X63832647Y-77078026D01*
X63831229Y-77030200D01*
X63810012Y-76978933D01*
X63768511Y-76925899D01*
X63711002Y-76886600D01*
X63636250Y-76860331D01*
X63586292Y-76851035D01*
X63529584Y-76844507D01*
X63469481Y-76839782D01*
X63418361Y-76837817D01*
X63415333Y-76837808D01*
X63339133Y-76837822D01*
X63339133Y-77278089D01*
X63193492Y-77278089D01*
X63193316Y-77271536D01*
X63192672Y-77211526D01*
X63192417Y-77133617D01*
X63192378Y-77057956D01*
X63192130Y-76957041D01*
X63192183Y-76876427D01*
X63193143Y-76837822D01*
X63193740Y-76813851D01*
X63198002Y-76767055D01*
G37*
X63198002Y-76767055D02*
X63206170Y-76733778D01*
X63219444Y-76711759D01*
X63239026Y-76698739D01*
X63266117Y-76692457D01*
X63301918Y-76690653D01*
X63347629Y-76691066D01*
X63387111Y-76691467D01*
X63502800Y-76694259D01*
X63599689Y-76702550D01*
X63681081Y-76717232D01*
X63750277Y-76739193D01*
X63810580Y-76769322D01*
X63865292Y-76808510D01*
X63884833Y-76825532D01*
X63917250Y-76865363D01*
X63946480Y-76919413D01*
X63969009Y-76979323D01*
X63981321Y-77036739D01*
X63982600Y-77057956D01*
X63974583Y-77116769D01*
X63953101Y-77181013D01*
X63922001Y-77241821D01*
X63885134Y-77290330D01*
X63879146Y-77296182D01*
X63828421Y-77337321D01*
X63772875Y-77369435D01*
X63709304Y-77393365D01*
X63634506Y-77409953D01*
X63545278Y-77420041D01*
X63438418Y-77424469D01*
X63389472Y-77424845D01*
X63327238Y-77424545D01*
X63283472Y-77423292D01*
X63254069Y-77420554D01*
X63234921Y-77415801D01*
X63221923Y-77408501D01*
X63214955Y-77402267D01*
X63208374Y-77394694D01*
X63203212Y-77384924D01*
X63199297Y-77370340D01*
X63196457Y-77348326D01*
X63194520Y-77316264D01*
X63193492Y-77278089D01*
X63339133Y-77278089D01*
X63432266Y-77278004D01*
X63488307Y-77276396D01*
X63547001Y-77272256D01*
X63595972Y-77266464D01*
X63597462Y-77266226D01*
X63676608Y-77247090D01*
X63737998Y-77217287D01*
X63784695Y-77174878D01*
X63814365Y-77128961D01*
X63832647Y-77078026D01*
X63831229Y-77030200D01*
X63810012Y-76978933D01*
X63768511Y-76925899D01*
X63711002Y-76886600D01*
X63636250Y-76860331D01*
X63586292Y-76851035D01*
X63529584Y-76844507D01*
X63469481Y-76839782D01*
X63418361Y-76837817D01*
X63415333Y-76837808D01*
X63339133Y-76837822D01*
X63339133Y-77278089D01*
X63193492Y-77278089D01*
X63193316Y-77271536D01*
X63192672Y-77211526D01*
X63192417Y-77133617D01*
X63192378Y-77057956D01*
X63192130Y-76957041D01*
X63192183Y-76876427D01*
X63193143Y-76837822D01*
X63193740Y-76813851D01*
X63198002Y-76767055D01*
G36*
X73213665Y-76693034D02*
G01*
X73233255Y-76700035D01*
X73234010Y-76700377D01*
X73260613Y-76720678D01*
X73275270Y-76741561D01*
X73278138Y-76751352D01*
X73277996Y-76764361D01*
X73273961Y-76782895D01*
X73265146Y-76809257D01*
X73250669Y-76845752D01*
X73229645Y-76894687D01*
X73201188Y-76958365D01*
X73164415Y-77039093D01*
X73144175Y-77083216D01*
X73107625Y-77161985D01*
X73073315Y-77234423D01*
X73042552Y-77297880D01*
X73016648Y-77349708D01*
X72996910Y-77387259D01*
X72984650Y-77407884D01*
X72982224Y-77410733D01*
X72951183Y-77423302D01*
X72916121Y-77421619D01*
X72888000Y-77406332D01*
X72886854Y-77405089D01*
X72875668Y-77388154D01*
X72856904Y-77355170D01*
X72832875Y-77310380D01*
X72805897Y-77258032D01*
X72796201Y-77238742D01*
X72723014Y-77092150D01*
X72643240Y-77251393D01*
X72614767Y-77306415D01*
X72588350Y-77354132D01*
X72566148Y-77390893D01*
X72550319Y-77413044D01*
X72544954Y-77417741D01*
X72503257Y-77424102D01*
X72468849Y-77410733D01*
X72458728Y-77396446D01*
X72441214Y-77364692D01*
X72417735Y-77318597D01*
X72389720Y-77261285D01*
X72358599Y-77195880D01*
X72325799Y-77125507D01*
X72292750Y-77053291D01*
X72260881Y-76982355D01*
X72231619Y-76915825D01*
X72206395Y-76856826D01*
X72186636Y-76808481D01*
X72173772Y-76773915D01*
X72169231Y-76756253D01*
X72169277Y-76755613D01*
X72180326Y-76733388D01*
X72202410Y-76710753D01*
X72203710Y-76709768D01*
X72230853Y-76694425D01*
X72255958Y-76694574D01*
X72265368Y-76697466D01*
X72276834Y-76703718D01*
X72289010Y-76716014D01*
X72303357Y-76736908D01*
X72321336Y-76768949D01*
X72344407Y-76814688D01*
X72374030Y-76876677D01*
X72400745Y-76933898D01*
X72431480Y-77000226D01*
X72459021Y-77059874D01*
X72481938Y-77109725D01*
X72498798Y-77146664D01*
X72508173Y-77167573D01*
X72509540Y-77170845D01*
X72515689Y-77165497D01*
X72529822Y-77143109D01*
X72550057Y-77106946D01*
X72574515Y-77060277D01*
X72584248Y-77041022D01*
X72617217Y-76976004D01*
X72642643Y-76928654D01*
X72662612Y-76896219D01*
X72679210Y-76875946D01*
X72694524Y-76865082D01*
X72710640Y-76860875D01*
X72721143Y-76860400D01*
X72739670Y-76862042D01*
X72755904Y-76868831D01*
X72772035Y-76883566D01*
X72790251Y-76909044D01*
X72812739Y-76948061D01*
X72841689Y-77003414D01*
X72857662Y-77034903D01*
X72883570Y-77085087D01*
X72906167Y-77126704D01*
X72923458Y-77156242D01*
X72933450Y-77170189D01*
X72934809Y-77170770D01*
X72941261Y-77159793D01*
X72955708Y-77131290D01*
X72976703Y-77088244D01*
X73002797Y-77033638D01*
X73032546Y-76970454D01*
X73047180Y-76939071D01*
X73085250Y-76858078D01*
X73115905Y-76795756D01*
X73140737Y-76750071D01*
X73161337Y-76718989D01*
X73179298Y-76700478D01*
X73196210Y-76692504D01*
X73213665Y-76693034D01*
G37*
X73213665Y-76693034D02*
X73233255Y-76700035D01*
X73234010Y-76700377D01*
X73260613Y-76720678D01*
X73275270Y-76741561D01*
X73278138Y-76751352D01*
X73277996Y-76764361D01*
X73273961Y-76782895D01*
X73265146Y-76809257D01*
X73250669Y-76845752D01*
X73229645Y-76894687D01*
X73201188Y-76958365D01*
X73164415Y-77039093D01*
X73144175Y-77083216D01*
X73107625Y-77161985D01*
X73073315Y-77234423D01*
X73042552Y-77297880D01*
X73016648Y-77349708D01*
X72996910Y-77387259D01*
X72984650Y-77407884D01*
X72982224Y-77410733D01*
X72951183Y-77423302D01*
X72916121Y-77421619D01*
X72888000Y-77406332D01*
X72886854Y-77405089D01*
X72875668Y-77388154D01*
X72856904Y-77355170D01*
X72832875Y-77310380D01*
X72805897Y-77258032D01*
X72796201Y-77238742D01*
X72723014Y-77092150D01*
X72643240Y-77251393D01*
X72614767Y-77306415D01*
X72588350Y-77354132D01*
X72566148Y-77390893D01*
X72550319Y-77413044D01*
X72544954Y-77417741D01*
X72503257Y-77424102D01*
X72468849Y-77410733D01*
X72458728Y-77396446D01*
X72441214Y-77364692D01*
X72417735Y-77318597D01*
X72389720Y-77261285D01*
X72358599Y-77195880D01*
X72325799Y-77125507D01*
X72292750Y-77053291D01*
X72260881Y-76982355D01*
X72231619Y-76915825D01*
X72206395Y-76856826D01*
X72186636Y-76808481D01*
X72173772Y-76773915D01*
X72169231Y-76756253D01*
X72169277Y-76755613D01*
X72180326Y-76733388D01*
X72202410Y-76710753D01*
X72203710Y-76709768D01*
X72230853Y-76694425D01*
X72255958Y-76694574D01*
X72265368Y-76697466D01*
X72276834Y-76703718D01*
X72289010Y-76716014D01*
X72303357Y-76736908D01*
X72321336Y-76768949D01*
X72344407Y-76814688D01*
X72374030Y-76876677D01*
X72400745Y-76933898D01*
X72431480Y-77000226D01*
X72459021Y-77059874D01*
X72481938Y-77109725D01*
X72498798Y-77146664D01*
X72508173Y-77167573D01*
X72509540Y-77170845D01*
X72515689Y-77165497D01*
X72529822Y-77143109D01*
X72550057Y-77106946D01*
X72574515Y-77060277D01*
X72584248Y-77041022D01*
X72617217Y-76976004D01*
X72642643Y-76928654D01*
X72662612Y-76896219D01*
X72679210Y-76875946D01*
X72694524Y-76865082D01*
X72710640Y-76860875D01*
X72721143Y-76860400D01*
X72739670Y-76862042D01*
X72755904Y-76868831D01*
X72772035Y-76883566D01*
X72790251Y-76909044D01*
X72812739Y-76948061D01*
X72841689Y-77003414D01*
X72857662Y-77034903D01*
X72883570Y-77085087D01*
X72906167Y-77126704D01*
X72923458Y-77156242D01*
X72933450Y-77170189D01*
X72934809Y-77170770D01*
X72941261Y-77159793D01*
X72955708Y-77131290D01*
X72976703Y-77088244D01*
X73002797Y-77033638D01*
X73032546Y-76970454D01*
X73047180Y-76939071D01*
X73085250Y-76858078D01*
X73115905Y-76795756D01*
X73140737Y-76750071D01*
X73161337Y-76718989D01*
X73179298Y-76700478D01*
X73196210Y-76692504D01*
X73213665Y-76693034D01*
G36*
X67518919Y-76696599D02*
G01*
X67587435Y-76708095D01*
X67640057Y-76725967D01*
X67674292Y-76749499D01*
X67683621Y-76762924D01*
X67693107Y-76794148D01*
X67686723Y-76822395D01*
X67666570Y-76849182D01*
X67635255Y-76861713D01*
X67589817Y-76860696D01*
X67554674Y-76853906D01*
X67476581Y-76840971D01*
X67396774Y-76839742D01*
X67307445Y-76850241D01*
X67282771Y-76854690D01*
X67199709Y-76878108D01*
X67134727Y-76912945D01*
X67088539Y-76958604D01*
X67061855Y-77014494D01*
X67056337Y-77043388D01*
X67059949Y-77102012D01*
X67083271Y-77153879D01*
X67124176Y-77197978D01*
X67180541Y-77233299D01*
X67250240Y-77258829D01*
X67331148Y-77273559D01*
X67421140Y-77276478D01*
X67518090Y-77266575D01*
X67523564Y-77265641D01*
X67562125Y-77258459D01*
X67583506Y-77251521D01*
X67592773Y-77241227D01*
X67594994Y-77223976D01*
X67595044Y-77214841D01*
X67595044Y-77176489D01*
X67526569Y-77176489D01*
X67466100Y-77172347D01*
X67424835Y-77159147D01*
X67400825Y-77135730D01*
X67392123Y-77100936D01*
X67392017Y-77096394D01*
X67397108Y-77066654D01*
X67414567Y-77045419D01*
X67447061Y-77031366D01*
X67497257Y-77023173D01*
X67545877Y-77020161D01*
X67616544Y-77018433D01*
X67667802Y-77021070D01*
X67702761Y-77030800D01*
X67724530Y-77050353D01*
X67736220Y-77082456D01*
X67740940Y-77129838D01*
X67741800Y-77192071D01*
X67740391Y-77261535D01*
X67736152Y-77308786D01*
X67729064Y-77334012D01*
X67727689Y-77335988D01*
X67688772Y-77367508D01*
X67631714Y-77392470D01*
X67560131Y-77410340D01*
X67477642Y-77420586D01*
X67387861Y-77422673D01*
X67294408Y-77416068D01*
X67239444Y-77407956D01*
X67153234Y-77383554D01*
X67073108Y-77343662D01*
X67006023Y-77291887D01*
X66995827Y-77281539D01*
X66962698Y-77238035D01*
X66932806Y-77184118D01*
X66909643Y-77127592D01*
X66896702Y-77076259D01*
X66895142Y-77056544D01*
X66901782Y-77015419D01*
X66919432Y-76964252D01*
X66944703Y-76910394D01*
X66974211Y-76861195D01*
X67000281Y-76828334D01*
X67061235Y-76779452D01*
X67140031Y-76740545D01*
X67233843Y-76712494D01*
X67339850Y-76696179D01*
X67437000Y-76692192D01*
X67518919Y-76696599D01*
G37*
X67518919Y-76696599D02*
X67587435Y-76708095D01*
X67640057Y-76725967D01*
X67674292Y-76749499D01*
X67683621Y-76762924D01*
X67693107Y-76794148D01*
X67686723Y-76822395D01*
X67666570Y-76849182D01*
X67635255Y-76861713D01*
X67589817Y-76860696D01*
X67554674Y-76853906D01*
X67476581Y-76840971D01*
X67396774Y-76839742D01*
X67307445Y-76850241D01*
X67282771Y-76854690D01*
X67199709Y-76878108D01*
X67134727Y-76912945D01*
X67088539Y-76958604D01*
X67061855Y-77014494D01*
X67056337Y-77043388D01*
X67059949Y-77102012D01*
X67083271Y-77153879D01*
X67124176Y-77197978D01*
X67180541Y-77233299D01*
X67250240Y-77258829D01*
X67331148Y-77273559D01*
X67421140Y-77276478D01*
X67518090Y-77266575D01*
X67523564Y-77265641D01*
X67562125Y-77258459D01*
X67583506Y-77251521D01*
X67592773Y-77241227D01*
X67594994Y-77223976D01*
X67595044Y-77214841D01*
X67595044Y-77176489D01*
X67526569Y-77176489D01*
X67466100Y-77172347D01*
X67424835Y-77159147D01*
X67400825Y-77135730D01*
X67392123Y-77100936D01*
X67392017Y-77096394D01*
X67397108Y-77066654D01*
X67414567Y-77045419D01*
X67447061Y-77031366D01*
X67497257Y-77023173D01*
X67545877Y-77020161D01*
X67616544Y-77018433D01*
X67667802Y-77021070D01*
X67702761Y-77030800D01*
X67724530Y-77050353D01*
X67736220Y-77082456D01*
X67740940Y-77129838D01*
X67741800Y-77192071D01*
X67740391Y-77261535D01*
X67736152Y-77308786D01*
X67729064Y-77334012D01*
X67727689Y-77335988D01*
X67688772Y-77367508D01*
X67631714Y-77392470D01*
X67560131Y-77410340D01*
X67477642Y-77420586D01*
X67387861Y-77422673D01*
X67294408Y-77416068D01*
X67239444Y-77407956D01*
X67153234Y-77383554D01*
X67073108Y-77343662D01*
X67006023Y-77291887D01*
X66995827Y-77281539D01*
X66962698Y-77238035D01*
X66932806Y-77184118D01*
X66909643Y-77127592D01*
X66896702Y-77076259D01*
X66895142Y-77056544D01*
X66901782Y-77015419D01*
X66919432Y-76964252D01*
X66944703Y-76910394D01*
X66974211Y-76861195D01*
X67000281Y-76828334D01*
X67061235Y-76779452D01*
X67140031Y-76740545D01*
X67233843Y-76712494D01*
X67339850Y-76696179D01*
X67437000Y-76692192D01*
X67518919Y-76696599D01*
G36*
X64756206Y-76691146D02*
G01*
X64825614Y-76691518D01*
X64878003Y-76692385D01*
X64916153Y-76693946D01*
X64942841Y-76696403D01*
X64960847Y-76699957D01*
X64972951Y-76704810D01*
X64981931Y-76711161D01*
X64985182Y-76714084D01*
X65004957Y-76745142D01*
X65008518Y-76780828D01*
X64995509Y-76812510D01*
X64989494Y-76818913D01*
X64979765Y-76825121D01*
X64964099Y-76829910D01*
X64939592Y-76833514D01*
X64903339Y-76836164D01*
X64852435Y-76838095D01*
X64783974Y-76839539D01*
X64721383Y-76840418D01*
X64473666Y-76843467D01*
X64470281Y-76908378D01*
X64466895Y-76973289D01*
X64635042Y-76973289D01*
X64708041Y-76973919D01*
X64761483Y-76976553D01*
X64798372Y-76982309D01*
X64821712Y-76992304D01*
X64834506Y-77007656D01*
X64839758Y-77029482D01*
X64840555Y-77049738D01*
X64838077Y-77074592D01*
X64828723Y-77092906D01*
X64809617Y-77105637D01*
X64777882Y-77113741D01*
X64730641Y-77118176D01*
X64665017Y-77119899D01*
X64629199Y-77120045D01*
X64468022Y-77120045D01*
X64468022Y-77278089D01*
X64716378Y-77278089D01*
X64797787Y-77278202D01*
X64859658Y-77278712D01*
X64905032Y-77279870D01*
X64936946Y-77281930D01*
X64958441Y-77285146D01*
X64972557Y-77289772D01*
X64982332Y-77296059D01*
X64987311Y-77300667D01*
X65004390Y-77327560D01*
X65009889Y-77351467D01*
X65002037Y-77380667D01*
X64987311Y-77402267D01*
X64979454Y-77409066D01*
X64969312Y-77414346D01*
X64954156Y-77418298D01*
X64931259Y-77421113D01*
X64897891Y-77422982D01*
X64851325Y-77424098D01*
X64788833Y-77424651D01*
X64707686Y-77424833D01*
X64665578Y-77424845D01*
X64575402Y-77424765D01*
X64505076Y-77424398D01*
X64451871Y-77423552D01*
X64413060Y-77422036D01*
X64385913Y-77419659D01*
X64367702Y-77416229D01*
X64355700Y-77411554D01*
X64347178Y-77405444D01*
X64343844Y-77402267D01*
X64337245Y-77394670D01*
X64332073Y-77384870D01*
X64328154Y-77370239D01*
X64325316Y-77348152D01*
X64323385Y-77315982D01*
X64322188Y-77271103D01*
X64321552Y-77210889D01*
X64321303Y-77132713D01*
X64321266Y-77059923D01*
X64321300Y-76966707D01*
X64321535Y-76893431D01*
X64322170Y-76837458D01*
X64323406Y-76796151D01*
X64325444Y-76766872D01*
X64328483Y-76746984D01*
X64332723Y-76733850D01*
X64338365Y-76724832D01*
X64345609Y-76717293D01*
X64347394Y-76715612D01*
X64356055Y-76708172D01*
X64366118Y-76702409D01*
X64380375Y-76698112D01*
X64401617Y-76695064D01*
X64432636Y-76693051D01*
X64476223Y-76691860D01*
X64535169Y-76691275D01*
X64612266Y-76691083D01*
X64666999Y-76691067D01*
X64756206Y-76691146D01*
G37*
X64756206Y-76691146D02*
X64825614Y-76691518D01*
X64878003Y-76692385D01*
X64916153Y-76693946D01*
X64942841Y-76696403D01*
X64960847Y-76699957D01*
X64972951Y-76704810D01*
X64981931Y-76711161D01*
X64985182Y-76714084D01*
X65004957Y-76745142D01*
X65008518Y-76780828D01*
X64995509Y-76812510D01*
X64989494Y-76818913D01*
X64979765Y-76825121D01*
X64964099Y-76829910D01*
X64939592Y-76833514D01*
X64903339Y-76836164D01*
X64852435Y-76838095D01*
X64783974Y-76839539D01*
X64721383Y-76840418D01*
X64473666Y-76843467D01*
X64470281Y-76908378D01*
X64466895Y-76973289D01*
X64635042Y-76973289D01*
X64708041Y-76973919D01*
X64761483Y-76976553D01*
X64798372Y-76982309D01*
X64821712Y-76992304D01*
X64834506Y-77007656D01*
X64839758Y-77029482D01*
X64840555Y-77049738D01*
X64838077Y-77074592D01*
X64828723Y-77092906D01*
X64809617Y-77105637D01*
X64777882Y-77113741D01*
X64730641Y-77118176D01*
X64665017Y-77119899D01*
X64629199Y-77120045D01*
X64468022Y-77120045D01*
X64468022Y-77278089D01*
X64716378Y-77278089D01*
X64797787Y-77278202D01*
X64859658Y-77278712D01*
X64905032Y-77279870D01*
X64936946Y-77281930D01*
X64958441Y-77285146D01*
X64972557Y-77289772D01*
X64982332Y-77296059D01*
X64987311Y-77300667D01*
X65004390Y-77327560D01*
X65009889Y-77351467D01*
X65002037Y-77380667D01*
X64987311Y-77402267D01*
X64979454Y-77409066D01*
X64969312Y-77414346D01*
X64954156Y-77418298D01*
X64931259Y-77421113D01*
X64897891Y-77422982D01*
X64851325Y-77424098D01*
X64788833Y-77424651D01*
X64707686Y-77424833D01*
X64665578Y-77424845D01*
X64575402Y-77424765D01*
X64505076Y-77424398D01*
X64451871Y-77423552D01*
X64413060Y-77422036D01*
X64385913Y-77419659D01*
X64367702Y-77416229D01*
X64355700Y-77411554D01*
X64347178Y-77405444D01*
X64343844Y-77402267D01*
X64337245Y-77394670D01*
X64332073Y-77384870D01*
X64328154Y-77370239D01*
X64325316Y-77348152D01*
X64323385Y-77315982D01*
X64322188Y-77271103D01*
X64321552Y-77210889D01*
X64321303Y-77132713D01*
X64321266Y-77059923D01*
X64321300Y-76966707D01*
X64321535Y-76893431D01*
X64322170Y-76837458D01*
X64323406Y-76796151D01*
X64325444Y-76766872D01*
X64328483Y-76746984D01*
X64332723Y-76733850D01*
X64338365Y-76724832D01*
X64345609Y-76717293D01*
X64347394Y-76715612D01*
X64356055Y-76708172D01*
X64366118Y-76702409D01*
X64380375Y-76698112D01*
X64401617Y-76695064D01*
X64432636Y-76693051D01*
X64476223Y-76691860D01*
X64535169Y-76691275D01*
X64612266Y-76691083D01*
X64666999Y-76691067D01*
X64756206Y-76691146D01*
G36*
X69699343Y-76691260D02*
G01*
X69775701Y-76692174D01*
X69834217Y-76694311D01*
X69877255Y-76698175D01*
X69907183Y-76704267D01*
X69926368Y-76713090D01*
X69937176Y-76725146D01*
X69941973Y-76740939D01*
X69943127Y-76760970D01*
X69943133Y-76763335D01*
X69942131Y-76785992D01*
X69937396Y-76803503D01*
X69926333Y-76816574D01*
X69906348Y-76825913D01*
X69874846Y-76832227D01*
X69829232Y-76836222D01*
X69766913Y-76838606D01*
X69685293Y-76840086D01*
X69660277Y-76840414D01*
X69418200Y-76843467D01*
X69414814Y-76908378D01*
X69411429Y-76973289D01*
X69579576Y-76973289D01*
X69645266Y-76973531D01*
X69692172Y-76974556D01*
X69724083Y-76976811D01*
X69744791Y-76980742D01*
X69758084Y-76986798D01*
X69767755Y-76995424D01*
X69767817Y-76995493D01*
X69785356Y-77029112D01*
X69784722Y-77065448D01*
X69766314Y-77096423D01*
X69762671Y-77099607D01*
X69749741Y-77107812D01*
X69732024Y-77113521D01*
X69705570Y-77117162D01*
X69666432Y-77119167D01*
X69610662Y-77119964D01*
X69574994Y-77120045D01*
X69412555Y-77120045D01*
X69412555Y-77278089D01*
X69659161Y-77278089D01*
X69740580Y-77278231D01*
X69802410Y-77278814D01*
X69847637Y-77280068D01*
X69879248Y-77282227D01*
X69900231Y-77285523D01*
X69913573Y-77290189D01*
X69922261Y-77296457D01*
X69924450Y-77298733D01*
X69940614Y-77330280D01*
X69941797Y-77366168D01*
X69928536Y-77397285D01*
X69918043Y-77407271D01*
X69907129Y-77412769D01*
X69890217Y-77417022D01*
X69864633Y-77420180D01*
X69827701Y-77422392D01*
X69776746Y-77423806D01*
X69709094Y-77424572D01*
X69622069Y-77424838D01*
X69602394Y-77424845D01*
X69513911Y-77424787D01*
X69445227Y-77424467D01*
X69393564Y-77423667D01*
X69356145Y-77422167D01*
X69330190Y-77419749D01*
X69312922Y-77416194D01*
X69301562Y-77411282D01*
X69293332Y-77404795D01*
X69288817Y-77400138D01*
X69282021Y-77391889D01*
X69276712Y-77381669D01*
X69272706Y-77366800D01*
X69269821Y-77344602D01*
X69267874Y-77312393D01*
X69266681Y-77267496D01*
X69266061Y-77207228D01*
X69265829Y-77128911D01*
X69265800Y-77062994D01*
X69265871Y-76970628D01*
X69266208Y-76898117D01*
X69266998Y-76842737D01*
X69268426Y-76801765D01*
X69270679Y-76772478D01*
X69273943Y-76752153D01*
X69278404Y-76738066D01*
X69284248Y-76727495D01*
X69289197Y-76720811D01*
X69312594Y-76691067D01*
X69602774Y-76691067D01*
X69699343Y-76691260D01*
G37*
X69699343Y-76691260D02*
X69775701Y-76692174D01*
X69834217Y-76694311D01*
X69877255Y-76698175D01*
X69907183Y-76704267D01*
X69926368Y-76713090D01*
X69937176Y-76725146D01*
X69941973Y-76740939D01*
X69943127Y-76760970D01*
X69943133Y-76763335D01*
X69942131Y-76785992D01*
X69937396Y-76803503D01*
X69926333Y-76816574D01*
X69906348Y-76825913D01*
X69874846Y-76832227D01*
X69829232Y-76836222D01*
X69766913Y-76838606D01*
X69685293Y-76840086D01*
X69660277Y-76840414D01*
X69418200Y-76843467D01*
X69414814Y-76908378D01*
X69411429Y-76973289D01*
X69579576Y-76973289D01*
X69645266Y-76973531D01*
X69692172Y-76974556D01*
X69724083Y-76976811D01*
X69744791Y-76980742D01*
X69758084Y-76986798D01*
X69767755Y-76995424D01*
X69767817Y-76995493D01*
X69785356Y-77029112D01*
X69784722Y-77065448D01*
X69766314Y-77096423D01*
X69762671Y-77099607D01*
X69749741Y-77107812D01*
X69732024Y-77113521D01*
X69705570Y-77117162D01*
X69666432Y-77119167D01*
X69610662Y-77119964D01*
X69574994Y-77120045D01*
X69412555Y-77120045D01*
X69412555Y-77278089D01*
X69659161Y-77278089D01*
X69740580Y-77278231D01*
X69802410Y-77278814D01*
X69847637Y-77280068D01*
X69879248Y-77282227D01*
X69900231Y-77285523D01*
X69913573Y-77290189D01*
X69922261Y-77296457D01*
X69924450Y-77298733D01*
X69940614Y-77330280D01*
X69941797Y-77366168D01*
X69928536Y-77397285D01*
X69918043Y-77407271D01*
X69907129Y-77412769D01*
X69890217Y-77417022D01*
X69864633Y-77420180D01*
X69827701Y-77422392D01*
X69776746Y-77423806D01*
X69709094Y-77424572D01*
X69622069Y-77424838D01*
X69602394Y-77424845D01*
X69513911Y-77424787D01*
X69445227Y-77424467D01*
X69393564Y-77423667D01*
X69356145Y-77422167D01*
X69330190Y-77419749D01*
X69312922Y-77416194D01*
X69301562Y-77411282D01*
X69293332Y-77404795D01*
X69288817Y-77400138D01*
X69282021Y-77391889D01*
X69276712Y-77381669D01*
X69272706Y-77366800D01*
X69269821Y-77344602D01*
X69267874Y-77312393D01*
X69266681Y-77267496D01*
X69266061Y-77207228D01*
X69265829Y-77128911D01*
X69265800Y-77062994D01*
X69265871Y-76970628D01*
X69266208Y-76898117D01*
X69266998Y-76842737D01*
X69268426Y-76801765D01*
X69270679Y-76772478D01*
X69273943Y-76752153D01*
X69278404Y-76738066D01*
X69284248Y-76727495D01*
X69289197Y-76720811D01*
X69312594Y-76691067D01*
X69602774Y-76691067D01*
X69699343Y-76691260D01*
G36*
X68168886Y-76695448D02*
G01*
X68192452Y-76709273D01*
X68223265Y-76731881D01*
X68262922Y-76764338D01*
X68313020Y-76807708D01*
X68375157Y-76863058D01*
X68450928Y-76931451D01*
X68537666Y-77010084D01*
X68718289Y-77173878D01*
X68723933Y-76954029D01*
X68725971Y-76878351D01*
X68727937Y-76821994D01*
X68730266Y-76781706D01*
X68733394Y-76754235D01*
X68737755Y-76736329D01*
X68743784Y-76724737D01*
X68751916Y-76716208D01*
X68756228Y-76712623D01*
X68790759Y-76693670D01*
X68823617Y-76696441D01*
X68849682Y-76712633D01*
X68876333Y-76734199D01*
X68879648Y-77049151D01*
X68880565Y-77141779D01*
X68881032Y-77214544D01*
X68880887Y-77270161D01*
X68879968Y-77311342D01*
X68878113Y-77340803D01*
X68875161Y-77361255D01*
X68870950Y-77375413D01*
X68865318Y-77385991D01*
X68859073Y-77394474D01*
X68845561Y-77410207D01*
X68832117Y-77420636D01*
X68816876Y-77424639D01*
X68797974Y-77421094D01*
X68773545Y-77408879D01*
X68741727Y-77386871D01*
X68700652Y-77353949D01*
X68648458Y-77308991D01*
X68583278Y-77250875D01*
X68509444Y-77184099D01*
X68244155Y-76943458D01*
X68238511Y-77162589D01*
X68236469Y-77238128D01*
X68234498Y-77294354D01*
X68232161Y-77334524D01*
X68229019Y-77361896D01*
X68224636Y-77379728D01*
X68218576Y-77391279D01*
X68210400Y-77399807D01*
X68206216Y-77403282D01*
X68169235Y-77422372D01*
X68134292Y-77419493D01*
X68103864Y-77395100D01*
X68096903Y-77385286D01*
X68091477Y-77373826D01*
X68087397Y-77357968D01*
X68084471Y-77334963D01*
X68082508Y-77302062D01*
X68081317Y-77256516D01*
X68080708Y-77195573D01*
X68080489Y-77116486D01*
X68080466Y-77057956D01*
X68080540Y-76966407D01*
X68080887Y-76894687D01*
X68081699Y-76840045D01*
X68083167Y-76799732D01*
X68085481Y-76770998D01*
X68088833Y-76751093D01*
X68093412Y-76737268D01*
X68099411Y-76726772D01*
X68103864Y-76720811D01*
X68115150Y-76706691D01*
X68125699Y-76696029D01*
X68137107Y-76689892D01*
X68150970Y-76689343D01*
X68168886Y-76695448D01*
G37*
X68168886Y-76695448D02*
X68192452Y-76709273D01*
X68223265Y-76731881D01*
X68262922Y-76764338D01*
X68313020Y-76807708D01*
X68375157Y-76863058D01*
X68450928Y-76931451D01*
X68537666Y-77010084D01*
X68718289Y-77173878D01*
X68723933Y-76954029D01*
X68725971Y-76878351D01*
X68727937Y-76821994D01*
X68730266Y-76781706D01*
X68733394Y-76754235D01*
X68737755Y-76736329D01*
X68743784Y-76724737D01*
X68751916Y-76716208D01*
X68756228Y-76712623D01*
X68790759Y-76693670D01*
X68823617Y-76696441D01*
X68849682Y-76712633D01*
X68876333Y-76734199D01*
X68879648Y-77049151D01*
X68880565Y-77141779D01*
X68881032Y-77214544D01*
X68880887Y-77270161D01*
X68879968Y-77311342D01*
X68878113Y-77340803D01*
X68875161Y-77361255D01*
X68870950Y-77375413D01*
X68865318Y-77385991D01*
X68859073Y-77394474D01*
X68845561Y-77410207D01*
X68832117Y-77420636D01*
X68816876Y-77424639D01*
X68797974Y-77421094D01*
X68773545Y-77408879D01*
X68741727Y-77386871D01*
X68700652Y-77353949D01*
X68648458Y-77308991D01*
X68583278Y-77250875D01*
X68509444Y-77184099D01*
X68244155Y-76943458D01*
X68238511Y-77162589D01*
X68236469Y-77238128D01*
X68234498Y-77294354D01*
X68232161Y-77334524D01*
X68229019Y-77361896D01*
X68224636Y-77379728D01*
X68218576Y-77391279D01*
X68210400Y-77399807D01*
X68206216Y-77403282D01*
X68169235Y-77422372D01*
X68134292Y-77419493D01*
X68103864Y-77395100D01*
X68096903Y-77385286D01*
X68091477Y-77373826D01*
X68087397Y-77357968D01*
X68084471Y-77334963D01*
X68082508Y-77302062D01*
X68081317Y-77256516D01*
X68080708Y-77195573D01*
X68080489Y-77116486D01*
X68080466Y-77057956D01*
X68080540Y-76966407D01*
X68080887Y-76894687D01*
X68081699Y-76840045D01*
X68083167Y-76799732D01*
X68085481Y-76770998D01*
X68088833Y-76751093D01*
X68093412Y-76737268D01*
X68099411Y-76726772D01*
X68103864Y-76720811D01*
X68115150Y-76706691D01*
X68125699Y-76696029D01*
X68137107Y-76689892D01*
X68150970Y-76689343D01*
X68168886Y-76695448D01*
G36*
X65777297Y-76692351D02*
G01*
X65852112Y-76697581D01*
X65921694Y-76705750D01*
X65981998Y-76716550D01*
X66028980Y-76729673D01*
X66058594Y-76744813D01*
X66063140Y-76749269D01*
X66078946Y-76783850D01*
X66074153Y-76819351D01*
X66049636Y-76849725D01*
X66048466Y-76850596D01*
X66034046Y-76859954D01*
X66018992Y-76864876D01*
X65997995Y-76865473D01*
X65965743Y-76861861D01*
X65916927Y-76854154D01*
X65913000Y-76853505D01*
X65840261Y-76844569D01*
X65761783Y-76840161D01*
X65683073Y-76840119D01*
X65609639Y-76844279D01*
X65546989Y-76852479D01*
X65500630Y-76864557D01*
X65497584Y-76865771D01*
X65463952Y-76884615D01*
X65452136Y-76903685D01*
X65461386Y-76922439D01*
X65490953Y-76940337D01*
X65540089Y-76956837D01*
X65608043Y-76971396D01*
X65653355Y-76978406D01*
X65747544Y-76991889D01*
X65822456Y-77004214D01*
X65881283Y-77016449D01*
X65927215Y-77029661D01*
X65963445Y-77044917D01*
X65993162Y-77063285D01*
X66019558Y-77085831D01*
X66040770Y-77107971D01*
X66065935Y-77138819D01*
X66078319Y-77165345D01*
X66082192Y-77198026D01*
X66082333Y-77209995D01*
X66079424Y-77249712D01*
X66067798Y-77279259D01*
X66047677Y-77305486D01*
X66006784Y-77345576D01*
X65961183Y-77376149D01*
X65907487Y-77398203D01*
X65842308Y-77412735D01*
X65762256Y-77420741D01*
X65663943Y-77423218D01*
X65647711Y-77423177D01*
X65582151Y-77421818D01*
X65517134Y-77418730D01*
X65459748Y-77414356D01*
X65417078Y-77409140D01*
X65413628Y-77408541D01*
X65371204Y-77398491D01*
X65335220Y-77385796D01*
X65314850Y-77374190D01*
X65295893Y-77343572D01*
X65294573Y-77307918D01*
X65310915Y-77276144D01*
X65314571Y-77272551D01*
X65329685Y-77261876D01*
X65348585Y-77257276D01*
X65377838Y-77258059D01*
X65413349Y-77262127D01*
X65453030Y-77265762D01*
X65508655Y-77268828D01*
X65573594Y-77271053D01*
X65641215Y-77272164D01*
X65659000Y-77272237D01*
X65726872Y-77271964D01*
X65776546Y-77270646D01*
X65812390Y-77267827D01*
X65838776Y-77263050D01*
X65860074Y-77255857D01*
X65872874Y-77249867D01*
X65901000Y-77233233D01*
X65918932Y-77218168D01*
X65921553Y-77213897D01*
X65916024Y-77196263D01*
X65889740Y-77179192D01*
X65844522Y-77163458D01*
X65782192Y-77149838D01*
X65763829Y-77146804D01*
X65667910Y-77131738D01*
X65591359Y-77119146D01*
X65531220Y-77108111D01*
X65484540Y-77097720D01*
X65448363Y-77087056D01*
X65419735Y-77075205D01*
X65395702Y-77061251D01*
X65373308Y-77044281D01*
X65349598Y-77023378D01*
X65341620Y-77016049D01*
X65313647Y-76988699D01*
X65298840Y-76967029D01*
X65293048Y-76942232D01*
X65292111Y-76910983D01*
X65302425Y-76849705D01*
X65333248Y-76797640D01*
X65384405Y-76754958D01*
X65455717Y-76721825D01*
X65506600Y-76706964D01*
X65561900Y-76697366D01*
X65628147Y-76691936D01*
X65701294Y-76690367D01*
X65777297Y-76692351D01*
G37*
X65777297Y-76692351D02*
X65852112Y-76697581D01*
X65921694Y-76705750D01*
X65981998Y-76716550D01*
X66028980Y-76729673D01*
X66058594Y-76744813D01*
X66063140Y-76749269D01*
X66078946Y-76783850D01*
X66074153Y-76819351D01*
X66049636Y-76849725D01*
X66048466Y-76850596D01*
X66034046Y-76859954D01*
X66018992Y-76864876D01*
X65997995Y-76865473D01*
X65965743Y-76861861D01*
X65916927Y-76854154D01*
X65913000Y-76853505D01*
X65840261Y-76844569D01*
X65761783Y-76840161D01*
X65683073Y-76840119D01*
X65609639Y-76844279D01*
X65546989Y-76852479D01*
X65500630Y-76864557D01*
X65497584Y-76865771D01*
X65463952Y-76884615D01*
X65452136Y-76903685D01*
X65461386Y-76922439D01*
X65490953Y-76940337D01*
X65540089Y-76956837D01*
X65608043Y-76971396D01*
X65653355Y-76978406D01*
X65747544Y-76991889D01*
X65822456Y-77004214D01*
X65881283Y-77016449D01*
X65927215Y-77029661D01*
X65963445Y-77044917D01*
X65993162Y-77063285D01*
X66019558Y-77085831D01*
X66040770Y-77107971D01*
X66065935Y-77138819D01*
X66078319Y-77165345D01*
X66082192Y-77198026D01*
X66082333Y-77209995D01*
X66079424Y-77249712D01*
X66067798Y-77279259D01*
X66047677Y-77305486D01*
X66006784Y-77345576D01*
X65961183Y-77376149D01*
X65907487Y-77398203D01*
X65842308Y-77412735D01*
X65762256Y-77420741D01*
X65663943Y-77423218D01*
X65647711Y-77423177D01*
X65582151Y-77421818D01*
X65517134Y-77418730D01*
X65459748Y-77414356D01*
X65417078Y-77409140D01*
X65413628Y-77408541D01*
X65371204Y-77398491D01*
X65335220Y-77385796D01*
X65314850Y-77374190D01*
X65295893Y-77343572D01*
X65294573Y-77307918D01*
X65310915Y-77276144D01*
X65314571Y-77272551D01*
X65329685Y-77261876D01*
X65348585Y-77257276D01*
X65377838Y-77258059D01*
X65413349Y-77262127D01*
X65453030Y-77265762D01*
X65508655Y-77268828D01*
X65573594Y-77271053D01*
X65641215Y-77272164D01*
X65659000Y-77272237D01*
X65726872Y-77271964D01*
X65776546Y-77270646D01*
X65812390Y-77267827D01*
X65838776Y-77263050D01*
X65860074Y-77255857D01*
X65872874Y-77249867D01*
X65901000Y-77233233D01*
X65918932Y-77218168D01*
X65921553Y-77213897D01*
X65916024Y-77196263D01*
X65889740Y-77179192D01*
X65844522Y-77163458D01*
X65782192Y-77149838D01*
X65763829Y-77146804D01*
X65667910Y-77131738D01*
X65591359Y-77119146D01*
X65531220Y-77108111D01*
X65484540Y-77097720D01*
X65448363Y-77087056D01*
X65419735Y-77075205D01*
X65395702Y-77061251D01*
X65373308Y-77044281D01*
X65349598Y-77023378D01*
X65341620Y-77016049D01*
X65313647Y-76988699D01*
X65298840Y-76967029D01*
X65293048Y-76942232D01*
X65292111Y-76910983D01*
X65302425Y-76849705D01*
X65333248Y-76797640D01*
X65384405Y-76754958D01*
X65455717Y-76721825D01*
X65506600Y-76706964D01*
X65561900Y-76697366D01*
X65628147Y-76691936D01*
X65701294Y-76690367D01*
X65777297Y-76692351D01*
G36*
X67195957Y-71448571D02*
G01*
X67292232Y-71472809D01*
X67378816Y-71515641D01*
X67453627Y-71575419D01*
X67514582Y-71650494D01*
X67559601Y-71739220D01*
X67585864Y-71835530D01*
X67591714Y-71932795D01*
X67576860Y-72026654D01*
X67543160Y-72114511D01*
X67492472Y-72193770D01*
X67426655Y-72261836D01*
X67347566Y-72316112D01*
X67257066Y-72354002D01*
X67205800Y-72366426D01*
X67161302Y-72373947D01*
X67127001Y-72376919D01*
X67094040Y-72375094D01*
X67053566Y-72368225D01*
X67020469Y-72361250D01*
X66927053Y-72329741D01*
X66843381Y-72278617D01*
X66771335Y-72209429D01*
X66712800Y-72123728D01*
X66698852Y-72096489D01*
X66682414Y-72060122D01*
X66672106Y-72029582D01*
X66666540Y-71997450D01*
X66664331Y-71956307D01*
X66664052Y-71910222D01*
X66668139Y-71825865D01*
X66681554Y-71756586D01*
X66706744Y-71695961D01*
X66746154Y-71637567D01*
X66784702Y-71593302D01*
X66856594Y-71527484D01*
X66931687Y-71482053D01*
X67014438Y-71454850D01*
X67092072Y-71444576D01*
X67195957Y-71448571D01*
G37*
X67195957Y-71448571D02*
X67292232Y-71472809D01*
X67378816Y-71515641D01*
X67453627Y-71575419D01*
X67514582Y-71650494D01*
X67559601Y-71739220D01*
X67585864Y-71835530D01*
X67591714Y-71932795D01*
X67576860Y-72026654D01*
X67543160Y-72114511D01*
X67492472Y-72193770D01*
X67426655Y-72261836D01*
X67347566Y-72316112D01*
X67257066Y-72354002D01*
X67205800Y-72366426D01*
X67161302Y-72373947D01*
X67127001Y-72376919D01*
X67094040Y-72375094D01*
X67053566Y-72368225D01*
X67020469Y-72361250D01*
X66927053Y-72329741D01*
X66843381Y-72278617D01*
X66771335Y-72209429D01*
X66712800Y-72123728D01*
X66698852Y-72096489D01*
X66682414Y-72060122D01*
X66672106Y-72029582D01*
X66666540Y-71997450D01*
X66664331Y-71956307D01*
X66664052Y-71910222D01*
X66668139Y-71825865D01*
X66681554Y-71756586D01*
X66706744Y-71695961D01*
X66746154Y-71637567D01*
X66784702Y-71593302D01*
X66856594Y-71527484D01*
X66931687Y-71482053D01*
X67014438Y-71454850D01*
X67092072Y-71444576D01*
X67195957Y-71448571D01*
G36*
X69797429Y-72371071D02*
G01*
X69957570Y-72392245D01*
X70121510Y-72432385D01*
X70291313Y-72491889D01*
X70469043Y-72571154D01*
X70480310Y-72576699D01*
X70538005Y-72604725D01*
X70589552Y-72628802D01*
X70631191Y-72647249D01*
X70659162Y-72658386D01*
X70668733Y-72660933D01*
X70687950Y-72665941D01*
X70692561Y-72670147D01*
X70687458Y-72680580D01*
X70671418Y-72706868D01*
X70646288Y-72746257D01*
X70613914Y-72795991D01*
X70576143Y-72853315D01*
X70534822Y-72915476D01*
X70491798Y-72979718D01*
X70448917Y-73043285D01*
X70408026Y-73103425D01*
X70370971Y-73157380D01*
X70339600Y-73202397D01*
X70315759Y-73235721D01*
X70301294Y-73254597D01*
X70299309Y-73256787D01*
X70289191Y-73252138D01*
X70266850Y-73234962D01*
X70236280Y-73208440D01*
X70220536Y-73193964D01*
X70124047Y-73118682D01*
X70017336Y-73063241D01*
X69901832Y-73028141D01*
X69778962Y-73013880D01*
X69709561Y-73015051D01*
X69588423Y-73032212D01*
X69479205Y-73068094D01*
X69381582Y-73122959D01*
X69295228Y-73197070D01*
X69219815Y-73290688D01*
X69155018Y-73404076D01*
X69117601Y-73490667D01*
X69073748Y-73626366D01*
X69041428Y-73773850D01*
X69020557Y-73929314D01*
X69011051Y-74088956D01*
X69012827Y-74248973D01*
X69025803Y-74405561D01*
X69049894Y-74554918D01*
X69085018Y-74693240D01*
X69131092Y-74816724D01*
X69147373Y-74850978D01*
X69215620Y-74965064D01*
X69296079Y-75061557D01*
X69387570Y-75139670D01*
X69488911Y-75198617D01*
X69598920Y-75237612D01*
X69716415Y-75255868D01*
X69757883Y-75257211D01*
X69879441Y-75246290D01*
X69999878Y-75213474D01*
X70117666Y-75159439D01*
X70231277Y-75084865D01*
X70322685Y-75006539D01*
X70369215Y-74962008D01*
X70550483Y-75259271D01*
X70595580Y-75333433D01*
X70636819Y-75401646D01*
X70672735Y-75461459D01*
X70701866Y-75510420D01*
X70722750Y-75546079D01*
X70733924Y-75565984D01*
X70735375Y-75569079D01*
X70727146Y-75578718D01*
X70701567Y-75595999D01*
X70661873Y-75619283D01*
X70611297Y-75646934D01*
X70553074Y-75677315D01*
X70490437Y-75708790D01*
X70426621Y-75739722D01*
X70364860Y-75768473D01*
X70308388Y-75793408D01*
X70260438Y-75812889D01*
X70236986Y-75821318D01*
X70103221Y-75859133D01*
X69965327Y-75884136D01*
X69817622Y-75897140D01*
X69690833Y-75899468D01*
X69622878Y-75898373D01*
X69557277Y-75896275D01*
X69499847Y-75893434D01*
X69456403Y-75890106D01*
X69442298Y-75888422D01*
X69303284Y-75859587D01*
X69161757Y-75814468D01*
X69024275Y-75755750D01*
X68897394Y-75686120D01*
X68819889Y-75633441D01*
X68692481Y-75525239D01*
X68574178Y-75398671D01*
X68467172Y-75256866D01*
X68373652Y-75102951D01*
X68295810Y-74940053D01*
X68251956Y-74822756D01*
X68201708Y-74639128D01*
X68168209Y-74444581D01*
X68151449Y-74243325D01*
X68151416Y-74039568D01*
X68168101Y-73837521D01*
X68201493Y-73641392D01*
X68251580Y-73455391D01*
X68255397Y-73443803D01*
X68318281Y-73281750D01*
X68395028Y-73133832D01*
X68488242Y-72995865D01*
X68600527Y-72863661D01*
X68644392Y-72818399D01*
X68780534Y-72694457D01*
X68920491Y-72591915D01*
X69066411Y-72509656D01*
X69220442Y-72446564D01*
X69384732Y-72401523D01*
X69480289Y-72384033D01*
X69639023Y-72368466D01*
X69797429Y-72371071D01*
G37*
X69797429Y-72371071D02*
X69957570Y-72392245D01*
X70121510Y-72432385D01*
X70291313Y-72491889D01*
X70469043Y-72571154D01*
X70480310Y-72576699D01*
X70538005Y-72604725D01*
X70589552Y-72628802D01*
X70631191Y-72647249D01*
X70659162Y-72658386D01*
X70668733Y-72660933D01*
X70687950Y-72665941D01*
X70692561Y-72670147D01*
X70687458Y-72680580D01*
X70671418Y-72706868D01*
X70646288Y-72746257D01*
X70613914Y-72795991D01*
X70576143Y-72853315D01*
X70534822Y-72915476D01*
X70491798Y-72979718D01*
X70448917Y-73043285D01*
X70408026Y-73103425D01*
X70370971Y-73157380D01*
X70339600Y-73202397D01*
X70315759Y-73235721D01*
X70301294Y-73254597D01*
X70299309Y-73256787D01*
X70289191Y-73252138D01*
X70266850Y-73234962D01*
X70236280Y-73208440D01*
X70220536Y-73193964D01*
X70124047Y-73118682D01*
X70017336Y-73063241D01*
X69901832Y-73028141D01*
X69778962Y-73013880D01*
X69709561Y-73015051D01*
X69588423Y-73032212D01*
X69479205Y-73068094D01*
X69381582Y-73122959D01*
X69295228Y-73197070D01*
X69219815Y-73290688D01*
X69155018Y-73404076D01*
X69117601Y-73490667D01*
X69073748Y-73626366D01*
X69041428Y-73773850D01*
X69020557Y-73929314D01*
X69011051Y-74088956D01*
X69012827Y-74248973D01*
X69025803Y-74405561D01*
X69049894Y-74554918D01*
X69085018Y-74693240D01*
X69131092Y-74816724D01*
X69147373Y-74850978D01*
X69215620Y-74965064D01*
X69296079Y-75061557D01*
X69387570Y-75139670D01*
X69488911Y-75198617D01*
X69598920Y-75237612D01*
X69716415Y-75255868D01*
X69757883Y-75257211D01*
X69879441Y-75246290D01*
X69999878Y-75213474D01*
X70117666Y-75159439D01*
X70231277Y-75084865D01*
X70322685Y-75006539D01*
X70369215Y-74962008D01*
X70550483Y-75259271D01*
X70595580Y-75333433D01*
X70636819Y-75401646D01*
X70672735Y-75461459D01*
X70701866Y-75510420D01*
X70722750Y-75546079D01*
X70733924Y-75565984D01*
X70735375Y-75569079D01*
X70727146Y-75578718D01*
X70701567Y-75595999D01*
X70661873Y-75619283D01*
X70611297Y-75646934D01*
X70553074Y-75677315D01*
X70490437Y-75708790D01*
X70426621Y-75739722D01*
X70364860Y-75768473D01*
X70308388Y-75793408D01*
X70260438Y-75812889D01*
X70236986Y-75821318D01*
X70103221Y-75859133D01*
X69965327Y-75884136D01*
X69817622Y-75897140D01*
X69690833Y-75899468D01*
X69622878Y-75898373D01*
X69557277Y-75896275D01*
X69499847Y-75893434D01*
X69456403Y-75890106D01*
X69442298Y-75888422D01*
X69303284Y-75859587D01*
X69161757Y-75814468D01*
X69024275Y-75755750D01*
X68897394Y-75686120D01*
X68819889Y-75633441D01*
X68692481Y-75525239D01*
X68574178Y-75398671D01*
X68467172Y-75256866D01*
X68373652Y-75102951D01*
X68295810Y-74940053D01*
X68251956Y-74822756D01*
X68201708Y-74639128D01*
X68168209Y-74444581D01*
X68151449Y-74243325D01*
X68151416Y-74039568D01*
X68168101Y-73837521D01*
X68201493Y-73641392D01*
X68251580Y-73455391D01*
X68255397Y-73443803D01*
X68318281Y-73281750D01*
X68395028Y-73133832D01*
X68488242Y-72995865D01*
X68600527Y-72863661D01*
X68644392Y-72818399D01*
X68780534Y-72694457D01*
X68920491Y-72591915D01*
X69066411Y-72509656D01*
X69220442Y-72446564D01*
X69384732Y-72401523D01*
X69480289Y-72384033D01*
X69639023Y-72368466D01*
X69797429Y-72371071D01*
D11*
%TO.C,C8*%
X62110219Y-60531030D02*
X62309030Y-60332219D01*
X61388970Y-59809781D02*
X61587781Y-59610970D01*
%TO.C,J1*%
X71509000Y-30505000D02*
X71509000Y-32210000D01*
X62349000Y-34220000D02*
X62349000Y-36140000D01*
X62349000Y-30505000D02*
X71509000Y-30505000D01*
X71509000Y-36140000D02*
X71509000Y-34220000D01*
X62349000Y-32210000D02*
X62349000Y-30505000D01*
%TO.C,C12*%
X53353580Y-59307000D02*
X53072420Y-59307000D01*
X53353580Y-60327000D02*
X53072420Y-60327000D01*
%TO.C,C11*%
X53353580Y-58676000D02*
X53072420Y-58676000D01*
X53353580Y-57656000D02*
X53072420Y-57656000D01*
%TO.C,U2*%
X61690000Y-53595000D02*
X57690000Y-53595000D01*
X61690000Y-56895000D02*
X61690000Y-53595000D01*
%TO.C,J3*%
X83326000Y-31563000D02*
X84656000Y-31563000D01*
X83326000Y-34163000D02*
X85986000Y-34163000D01*
X83326000Y-34163000D02*
X83326000Y-77403000D01*
X83326000Y-77403000D02*
X85986000Y-77403000D01*
X83326000Y-32893000D02*
X83326000Y-31563000D01*
X85986000Y-34163000D02*
X85986000Y-77403000D01*
%TO.C,R2*%
X75960500Y-38497742D02*
X75960500Y-38972258D01*
X74915500Y-38497742D02*
X74915500Y-38972258D01*
D14*
%TO.C,D1*%
X55200000Y-36296000D02*
X56306000Y-36296000D01*
X55200000Y-37239000D02*
X55200000Y-36296000D01*
X55200000Y-37691000D02*
X55200000Y-38634000D01*
X56306000Y-36296000D02*
X56306000Y-37239000D01*
X55200000Y-38634000D02*
X56306000Y-38634000D01*
X56306000Y-38634000D02*
X56306000Y-37691000D01*
D11*
%TO.C,D2*%
X73941000Y-54991000D02*
X75411000Y-54991000D01*
X75411000Y-54991000D02*
X75411000Y-52706000D01*
X73941000Y-52706000D02*
X73941000Y-54991000D01*
%TO.C,U3*%
X66466124Y-57604778D02*
X66802000Y-57268903D01*
X70493097Y-60960000D02*
X70157222Y-60624124D01*
X67137876Y-64315222D02*
X66802000Y-64651097D01*
X66802000Y-64651097D02*
X66466124Y-64315222D01*
X70157222Y-61295876D02*
X70493097Y-60960000D01*
X66802000Y-57268903D02*
X67137876Y-57604778D01*
X63446778Y-60624124D02*
X63110903Y-60960000D01*
%TO.C,C6*%
X54871252Y-49176000D02*
X54348748Y-49176000D01*
X54871252Y-50646000D02*
X54348748Y-50646000D01*
%TO.C,U4*%
X52343000Y-42159000D02*
X53603000Y-42159000D01*
X59163000Y-45919000D02*
X59163000Y-42159000D01*
X52343000Y-48169000D02*
X52343000Y-42159000D01*
X59163000Y-42159000D02*
X57903000Y-42159000D01*
%TO.C,R8*%
X74153500Y-50181742D02*
X74153500Y-50656258D01*
X75198500Y-50181742D02*
X75198500Y-50656258D01*
%TO.C,R7*%
X79995500Y-68723742D02*
X79995500Y-69198258D01*
X81040500Y-68723742D02*
X81040500Y-69198258D01*
%TO.C,L2*%
X58279404Y-65234445D02*
X58844555Y-65799596D01*
X57487445Y-66026404D02*
X58052596Y-66591555D01*
%TO.C,C4*%
X56005000Y-55512580D02*
X56005000Y-55231420D01*
X57025000Y-55512580D02*
X57025000Y-55231420D01*
%TO.C,J2*%
X52891000Y-32149000D02*
X52891000Y-30039000D01*
X43441000Y-27299000D02*
X53841000Y-27299000D01*
X53841000Y-27299000D02*
X53841000Y-30039000D01*
X46931000Y-21299000D02*
X47811000Y-21299000D01*
X44391000Y-32149000D02*
X44391000Y-30039000D01*
X47811000Y-32149000D02*
X47811000Y-30039000D01*
X44831000Y-35289000D02*
X44011000Y-35289000D01*
X45271000Y-32149000D02*
X45271000Y-30039000D01*
X50351000Y-21299000D02*
X50351000Y-27299000D01*
X52011000Y-32149000D02*
X52011000Y-30039000D01*
X49471000Y-27299000D02*
X49471000Y-21299000D01*
X44011000Y-35289000D02*
X44011000Y-33719000D01*
X49471000Y-21299000D02*
X50351000Y-21299000D01*
X45271000Y-21299000D02*
X45271000Y-27299000D01*
X52891000Y-21299000D02*
X52891000Y-27299000D01*
X46931000Y-32149000D02*
X46931000Y-30039000D01*
X52011000Y-21299000D02*
X52891000Y-21299000D01*
X50351000Y-32149000D02*
X50351000Y-30039000D01*
X47811000Y-21299000D02*
X47811000Y-27299000D01*
X44391000Y-27299000D02*
X44391000Y-21299000D01*
X53841000Y-30039000D02*
X43441000Y-30039000D01*
X43441000Y-30039000D02*
X43441000Y-27299000D01*
X52011000Y-27299000D02*
X52011000Y-21299000D01*
X44391000Y-21299000D02*
X45271000Y-21299000D01*
X46931000Y-27299000D02*
X46931000Y-21299000D01*
X49471000Y-32149000D02*
X49471000Y-30039000D01*
%TO.C,C14*%
X74166000Y-82790420D02*
X74166000Y-83071580D01*
X75186000Y-82790420D02*
X75186000Y-83071580D01*
%TO.C,C7*%
X59610970Y-59301781D02*
X59809781Y-59102970D01*
X60332219Y-60023030D02*
X60531030Y-59824219D01*
%TO.C,C13*%
X60150030Y-64635781D02*
X59951219Y-64436970D01*
X59428781Y-65357030D02*
X59229970Y-65158219D01*
%TO.C,C1*%
X55126420Y-77954500D02*
X55407580Y-77954500D01*
X55126420Y-76934500D02*
X55407580Y-76934500D01*
%TO.C,F1*%
X57510000Y-36100936D02*
X57510000Y-37305064D01*
X59330000Y-36100936D02*
X59330000Y-37305064D01*
%TO.C,C5*%
X58793748Y-50646000D02*
X59316252Y-50646000D01*
X58793748Y-49176000D02*
X59316252Y-49176000D01*
%TO.C,L1*%
X53973000Y-75219779D02*
X53973000Y-74894221D01*
X54993000Y-75219779D02*
X54993000Y-74894221D01*
D12*
%TO.C,SW1*%
X80274000Y-82913000D02*
X80274000Y-81389000D01*
X82306000Y-82913000D02*
X80274000Y-82913000D01*
X80274000Y-81389000D02*
X82306000Y-81389000D01*
X78290000Y-80501000D02*
X84290000Y-80501000D01*
X78290000Y-83104000D02*
X78290000Y-83801000D01*
X84290000Y-83801000D02*
X84290000Y-83150000D01*
X84290000Y-83801000D02*
X78290000Y-83801000D01*
X78290000Y-80501000D02*
X78290000Y-81234000D01*
X84290000Y-81188000D02*
X84290000Y-80501000D01*
X82306000Y-81389000D02*
X82306000Y-82913000D01*
D11*
%TO.C,R9*%
X71613500Y-83168258D02*
X71613500Y-82693742D01*
X72658500Y-83168258D02*
X72658500Y-82693742D01*
%TO.C,R5*%
X65390500Y-48276742D02*
X65390500Y-48751258D01*
X66435500Y-48276742D02*
X66435500Y-48751258D01*
%TO.C,D3*%
X71909000Y-54991000D02*
X73379000Y-54991000D01*
X71909000Y-52706000D02*
X71909000Y-54991000D01*
X73379000Y-54991000D02*
X73379000Y-52706000D01*
%TO.C,R11*%
X73166500Y-50181742D02*
X73166500Y-50656258D01*
X72121500Y-50181742D02*
X72121500Y-50656258D01*
%TD*%
D15*
%TO.C,J2*%
X44831000Y-24299000D03*
%TD*%
M02*
