%TF.GenerationSoftware,KiCad,Pcbnew,(6.0.5)*%
%TF.CreationDate,2022-07-08T09:53:05+08:00*%
%TF.ProjectId,ESP32C3,45535033-3243-4332-9e6b-696361645f70,rev?*%
%TF.SameCoordinates,Original*%
%TF.FileFunction,Copper,L2,Bot*%
%TF.FilePolarity,Positive*%
%FSLAX46Y46*%
G04 Gerber Fmt 4.6, Leading zero omitted, Abs format (unit mm)*
G04 Created by KiCad (PCBNEW (6.0.5)) date 2022-07-08 09:53:05*
%MOMM*%
%LPD*%
G01*
G04 APERTURE LIST*
%TA.AperFunction,ComponentPad*%
%ADD10R,1.700000X1.700000*%
%TD*%
%TA.AperFunction,ComponentPad*%
%ADD11O,1.700000X1.700000*%
%TD*%
%TA.AperFunction,ComponentPad*%
%ADD12O,1.000000X1.600000*%
%TD*%
%TA.AperFunction,ComponentPad*%
%ADD13O,1.000000X2.100000*%
%TD*%
%TA.AperFunction,ComponentPad*%
%ADD14R,0.900000X0.500000*%
%TD*%
%TA.AperFunction,ViaPad*%
%ADD15C,0.499999*%
%TD*%
%TA.AperFunction,Conductor*%
%ADD16C,0.254000*%
%TD*%
%TA.AperFunction,Conductor*%
%ADD17C,0.762000*%
%TD*%
%TA.AperFunction,Conductor*%
%ADD18C,0.200000*%
%TD*%
G04 APERTURE END LIST*
D10*
%TO.P,J4,1,Pin_1*%
%TO.N,GND*%
X89306000Y-32893000D03*
D11*
%TO.P,J4,2,Pin_2*%
%TO.N,VDD3P3_CPU*%
X89306000Y-35433000D03*
%TO.P,J4,3,Pin_3*%
%TO.N,/GPIO10*%
X89306000Y-37973000D03*
%TO.P,J4,4,Pin_4*%
%TO.N,BOOT*%
X89306000Y-40513000D03*
%TO.P,J4,5,Pin_5*%
%TO.N,/GPIO8*%
X89306000Y-43053000D03*
%TO.P,J4,6,Pin_6*%
%TO.N,/GPIO7*%
X89306000Y-45593000D03*
%TO.P,J4,7,Pin_7*%
%TO.N,/GPIO6*%
X89306000Y-48133000D03*
%TO.P,J4,8,Pin_8*%
%TO.N,/GPIO5*%
X89306000Y-50673000D03*
%TO.P,J4,9,Pin_9*%
%TO.N,GND*%
X89306000Y-53213000D03*
%TO.P,J4,10,Pin_10*%
%TO.N,VDD3P3_CPU*%
X89306000Y-55753000D03*
%TO.P,J4,11,Pin_11*%
%TO.N,/GPIO4*%
X89306000Y-58293000D03*
%TO.P,J4,12,Pin_12*%
%TO.N,/GPIO3*%
X89306000Y-60833000D03*
%TO.P,J4,13,Pin_13*%
%TO.N,/GPIO2*%
X89306000Y-63373000D03*
%TO.P,J4,14,Pin_14*%
%TO.N,/GPIO1*%
X89306000Y-65913000D03*
%TO.P,J4,15,Pin_15*%
%TO.N,/GPIO0*%
X89306000Y-68453000D03*
%TO.P,J4,16,Pin_16*%
%TO.N,GND*%
X89306000Y-70993000D03*
%TO.P,J4,17,Pin_17*%
X89306000Y-73533000D03*
%TO.P,J4,18,Pin_18*%
%TO.N,VDD3P3_CPU*%
X89306000Y-76073000D03*
%TD*%
D12*
%TO.P,J1,S1,SHIELD*%
%TO.N,GND*%
X62609000Y-33215000D03*
D13*
X62609000Y-37395000D03*
X71249000Y-37395000D03*
D12*
X71249000Y-33215000D03*
%TD*%
D10*
%TO.P,J3,1,Pin_1*%
%TO.N,GND*%
X84656000Y-32893000D03*
D11*
%TO.P,J3,2,Pin_2*%
%TO.N,VDD3P3_CPU*%
X84656000Y-35433000D03*
%TO.P,J3,3,Pin_3*%
%TO.N,/GPIO10*%
X84656000Y-37973000D03*
%TO.P,J3,4,Pin_4*%
%TO.N,BOOT*%
X84656000Y-40513000D03*
%TO.P,J3,5,Pin_5*%
%TO.N,/GPIO8*%
X84656000Y-43053000D03*
%TO.P,J3,6,Pin_6*%
%TO.N,/GPIO7*%
X84656000Y-45593000D03*
%TO.P,J3,7,Pin_7*%
%TO.N,/GPIO6*%
X84656000Y-48133000D03*
%TO.P,J3,8,Pin_8*%
%TO.N,/GPIO5*%
X84656000Y-50673000D03*
%TO.P,J3,9,Pin_9*%
%TO.N,GND*%
X84656000Y-53213000D03*
%TO.P,J3,10,Pin_10*%
%TO.N,VDD3P3_CPU*%
X84656000Y-55753000D03*
%TO.P,J3,11,Pin_11*%
%TO.N,/GPIO4*%
X84656000Y-58293000D03*
%TO.P,J3,12,Pin_12*%
%TO.N,/GPIO3*%
X84656000Y-60833000D03*
%TO.P,J3,13,Pin_13*%
%TO.N,/GPIO2*%
X84656000Y-63373000D03*
%TO.P,J3,14,Pin_14*%
%TO.N,/GPIO1*%
X84656000Y-65913000D03*
%TO.P,J3,15,Pin_15*%
%TO.N,/GPIO0*%
X84656000Y-68453000D03*
%TO.P,J3,16,Pin_16*%
%TO.N,GND*%
X84656000Y-70993000D03*
%TO.P,J3,17,Pin_17*%
X84656000Y-73533000D03*
%TO.P,J3,18,Pin_18*%
%TO.N,VDD3P3_CPU*%
X84656000Y-76073000D03*
%TD*%
D14*
%TO.P,AE1,2,PCB_Trace*%
%TO.N,GND*%
X56583000Y-79121000D03*
%TD*%
D15*
%TO.N,GND*%
X66802000Y-60960000D03*
X66929000Y-41836293D03*
X67183000Y-60579000D03*
X66421000Y-62103000D03*
X65659000Y-60579000D03*
X67945000Y-61341000D03*
X66040000Y-60198000D03*
X66040000Y-61722000D03*
X67183000Y-62103000D03*
X56642000Y-61341000D03*
X66421000Y-59817000D03*
X66802000Y-60198000D03*
X66802000Y-59436000D03*
X66421000Y-60579000D03*
X65659000Y-61341000D03*
X67945000Y-60579000D03*
X67564000Y-60198000D03*
X74422000Y-62103000D03*
X68326000Y-60960000D03*
X66040000Y-60960000D03*
X61595000Y-48641000D03*
X67183000Y-61341000D03*
X66421000Y-61341000D03*
X67564000Y-60960000D03*
X66802000Y-62484000D03*
X66802000Y-61722000D03*
X67183000Y-59817000D03*
X65278000Y-60960000D03*
X58420000Y-58039000D03*
X67564000Y-61722000D03*
%TO.N,+5V*%
X66929000Y-46609000D03*
X64389000Y-46609000D03*
%TO.N,VDD3P3_CPU*%
X70739000Y-59817000D03*
X77724000Y-40640000D03*
X70739000Y-64135000D03*
X73279000Y-83312000D03*
X55560000Y-51628000D03*
%TO.N,VDD3P3*%
X63349618Y-62714618D03*
X61087000Y-64643000D03*
%TO.N,EN*%
X65659000Y-66054060D03*
X70739000Y-82169000D03*
%TO.N,BOOT*%
X79375000Y-40132000D03*
%TO.N,/U0_RX*%
X49911000Y-35814000D03*
X64262000Y-50546000D03*
%TO.N,Net-(J1-PadA5)*%
X68199000Y-36576000D03*
X71755000Y-35433000D03*
%TO.N,Net-(J1-PadB5)*%
X71495212Y-34783530D03*
X65532000Y-36449000D03*
%TO.N,Net-(R4-Pad1)*%
X47371000Y-39497000D03*
X63627000Y-50038000D03*
%TO.N,/GPIO8*%
X80518000Y-42291000D03*
%TO.N,/GPIO2*%
X82105500Y-65214500D03*
X81788000Y-68199000D03*
%TD*%
D16*
%TO.N,+5V*%
X64389000Y-46609000D02*
X66929000Y-46609000D01*
D17*
%TO.N,VDD3P3_CPU*%
X70673000Y-71435000D02*
X73469500Y-74231500D01*
X77724000Y-40640000D02*
X77724000Y-37592000D01*
X79883000Y-35433000D02*
X84656000Y-35433000D01*
X73469500Y-74231500D02*
X75311000Y-76073000D01*
X77724000Y-37592000D02*
X79883000Y-35433000D01*
X70673000Y-53401000D02*
X70673000Y-71435000D01*
X70673000Y-51628000D02*
X70673000Y-53401000D01*
X55560000Y-51628000D02*
X70673000Y-51628000D01*
X75311000Y-76073000D02*
X84656000Y-76073000D01*
X70673000Y-51628000D02*
X77724000Y-44577000D01*
D16*
X73279000Y-74422000D02*
X73469500Y-74231500D01*
D17*
X77724000Y-44577000D02*
X77724000Y-40640000D01*
X73025000Y-55753000D02*
X84656000Y-55753000D01*
X70673000Y-53401000D02*
X73025000Y-55753000D01*
D16*
X73279000Y-83312000D02*
X73279000Y-74422000D01*
%TO.N,VDD3P3*%
X63269382Y-62714618D02*
X61341000Y-64643000D01*
X61341000Y-64643000D02*
X61087000Y-64643000D01*
X63349618Y-62714618D02*
X63269382Y-62714618D01*
D18*
%TO.N,EN*%
X65659000Y-66054060D02*
X65659000Y-77089000D01*
X65659000Y-77089000D02*
X70739000Y-82169000D01*
%TO.N,BOOT*%
X79756000Y-40513000D02*
X84656000Y-40513000D01*
X79375000Y-40132000D02*
X79756000Y-40513000D01*
%TO.N,/U0_RX*%
X64262000Y-48641000D02*
X59563000Y-43942000D01*
X59436000Y-43815000D02*
X52197000Y-43815000D01*
X64262000Y-50546000D02*
X64262000Y-48641000D01*
X59563000Y-43942000D02*
X59436000Y-43815000D01*
X52197000Y-43815000D02*
X50800000Y-43815000D01*
X49911000Y-42926000D02*
X49911000Y-35814000D01*
X50800000Y-43815000D02*
X49911000Y-42926000D01*
D16*
%TO.N,Net-(J1-PadA5)*%
X68199000Y-36576000D02*
X69342000Y-35433000D01*
X69342000Y-35433000D02*
X71755000Y-35433000D01*
%TO.N,Net-(J1-PadB5)*%
X65532000Y-36449000D02*
X67197470Y-34783530D01*
X67197470Y-34783530D02*
X71495212Y-34783530D01*
D18*
%TO.N,Net-(R4-Pad1)*%
X60198000Y-45212000D02*
X59436000Y-44450000D01*
X59436000Y-44450000D02*
X50038000Y-44450000D01*
X63627000Y-48641000D02*
X60198000Y-45212000D01*
X50038000Y-44450000D02*
X47371000Y-41783000D01*
X63627000Y-50038000D02*
X63627000Y-48641000D01*
X47371000Y-41783000D02*
X47371000Y-39497000D01*
%TO.N,/GPIO8*%
X81280000Y-43053000D02*
X80518000Y-42291000D01*
X84656000Y-43053000D02*
X81280000Y-43053000D01*
%TO.N,/GPIO2*%
X82105500Y-65214500D02*
X82105500Y-67881500D01*
X82105500Y-67881500D02*
X81788000Y-68199000D01*
%TD*%
%TA.AperFunction,Conductor*%
%TO.N,GND*%
G36*
X91254621Y-30538502D02*
G01*
X91301114Y-30592158D01*
X91312500Y-30644500D01*
X91312500Y-84375500D01*
X91292498Y-84443621D01*
X91238842Y-84490114D01*
X91186500Y-84501500D01*
X57784000Y-84501500D01*
X57715879Y-84481498D01*
X57669386Y-84427842D01*
X57658000Y-84375500D01*
X57658000Y-78740000D01*
X42455500Y-78740000D01*
X42387379Y-78719998D01*
X42340886Y-78666342D01*
X42329500Y-78614000D01*
X42329500Y-66043403D01*
X64895776Y-66043403D01*
X64912382Y-66212759D01*
X64966095Y-66374227D01*
X64969742Y-66380249D01*
X64969743Y-66380251D01*
X65032276Y-66483505D01*
X65050500Y-66548776D01*
X65050500Y-77040864D01*
X65049422Y-77057307D01*
X65045250Y-77089000D01*
X65050500Y-77128880D01*
X65050500Y-77128885D01*
X65063609Y-77228457D01*
X65066162Y-77247851D01*
X65127476Y-77395876D01*
X65132503Y-77402427D01*
X65132504Y-77402429D01*
X65200520Y-77491069D01*
X65200526Y-77491075D01*
X65225013Y-77522987D01*
X65231568Y-77528017D01*
X65250379Y-77542452D01*
X65262770Y-77553319D01*
X69955613Y-82246162D01*
X69989639Y-82308474D01*
X69991179Y-82318262D01*
X69991694Y-82320687D01*
X69992382Y-82327699D01*
X70046095Y-82489167D01*
X70049742Y-82495189D01*
X70049743Y-82495191D01*
X70067048Y-82523764D01*
X70134247Y-82634723D01*
X70139143Y-82639793D01*
X70158307Y-82659638D01*
X70252456Y-82757131D01*
X70394846Y-82850309D01*
X70554342Y-82909625D01*
X70561323Y-82910556D01*
X70561325Y-82910557D01*
X70607426Y-82916708D01*
X70723015Y-82932131D01*
X70730026Y-82931493D01*
X70730030Y-82931493D01*
X70885461Y-82917347D01*
X70892482Y-82916708D01*
X70899184Y-82914530D01*
X70899186Y-82914530D01*
X71047623Y-82866300D01*
X71047626Y-82866299D01*
X71054322Y-82864123D01*
X71126067Y-82821354D01*
X71194434Y-82780600D01*
X71194437Y-82780598D01*
X71200489Y-82776990D01*
X71323720Y-82659638D01*
X71417890Y-82517902D01*
X71426517Y-82495191D01*
X71475817Y-82365409D01*
X71475818Y-82365406D01*
X71478318Y-82358824D01*
X71502000Y-82190313D01*
X71502298Y-82169000D01*
X71483330Y-81999892D01*
X71427367Y-81839190D01*
X71337192Y-81694879D01*
X71277239Y-81634506D01*
X71222249Y-81579131D01*
X71222245Y-81579128D01*
X71217285Y-81574133D01*
X71073608Y-81482952D01*
X71045416Y-81472913D01*
X70919935Y-81428231D01*
X70919930Y-81428230D01*
X70913300Y-81425869D01*
X70906312Y-81425036D01*
X70906309Y-81425035D01*
X70892041Y-81423334D01*
X70826767Y-81395407D01*
X70817864Y-81387315D01*
X66304405Y-76873856D01*
X66270379Y-76811544D01*
X66267500Y-76784761D01*
X66267500Y-66546949D01*
X66288552Y-66477221D01*
X66326933Y-66419453D01*
X66337890Y-66402962D01*
X66346517Y-66380251D01*
X66395817Y-66250469D01*
X66395818Y-66250466D01*
X66398318Y-66243884D01*
X66422000Y-66075373D01*
X66422298Y-66054060D01*
X66412977Y-65970955D01*
X66404115Y-65891948D01*
X66404114Y-65891945D01*
X66403330Y-65884952D01*
X66347367Y-65724250D01*
X66341382Y-65714671D01*
X66260925Y-65585913D01*
X66257192Y-65579939D01*
X66197238Y-65519566D01*
X66142249Y-65464191D01*
X66142245Y-65464188D01*
X66137285Y-65459193D01*
X65993608Y-65368012D01*
X65833300Y-65310929D01*
X65664329Y-65290781D01*
X65657326Y-65291517D01*
X65657325Y-65291517D01*
X65502101Y-65307831D01*
X65502097Y-65307832D01*
X65495093Y-65308568D01*
X65488422Y-65310839D01*
X65340674Y-65361136D01*
X65340671Y-65361137D01*
X65334004Y-65363407D01*
X65328006Y-65367097D01*
X65328004Y-65367098D01*
X65267494Y-65404324D01*
X65189067Y-65452573D01*
X65184036Y-65457500D01*
X65184033Y-65457502D01*
X65162366Y-65478720D01*
X65067486Y-65571633D01*
X64975305Y-65714671D01*
X64972896Y-65721291D01*
X64972895Y-65721292D01*
X64969396Y-65730905D01*
X64917104Y-65874576D01*
X64895776Y-66043403D01*
X42329500Y-66043403D01*
X42329500Y-64632343D01*
X60323776Y-64632343D01*
X60340382Y-64801699D01*
X60394095Y-64963167D01*
X60397742Y-64969189D01*
X60397743Y-64969191D01*
X60448129Y-65052388D01*
X60482247Y-65108723D01*
X60600456Y-65231131D01*
X60742846Y-65324309D01*
X60902342Y-65383625D01*
X60909323Y-65384556D01*
X60909325Y-65384557D01*
X60955426Y-65390708D01*
X61071015Y-65406131D01*
X61078026Y-65405493D01*
X61078030Y-65405493D01*
X61233461Y-65391347D01*
X61240482Y-65390708D01*
X61247184Y-65388530D01*
X61247186Y-65388530D01*
X61395623Y-65340300D01*
X61395626Y-65340299D01*
X61402322Y-65338123D01*
X61548489Y-65250990D01*
X61548841Y-65251580D01*
X61582672Y-65234565D01*
X61584850Y-65233932D01*
X61595393Y-65230869D01*
X61602220Y-65226831D01*
X61602223Y-65226830D01*
X61612906Y-65220512D01*
X61630664Y-65211812D01*
X61642215Y-65207239D01*
X61642221Y-65207235D01*
X61649588Y-65204319D01*
X61685491Y-65178234D01*
X61695410Y-65171719D01*
X61726768Y-65153174D01*
X61726772Y-65153171D01*
X61733598Y-65149134D01*
X61747982Y-65134750D01*
X61763016Y-65121909D01*
X61773073Y-65114602D01*
X61779487Y-65109942D01*
X61807778Y-65075744D01*
X61815767Y-65066965D01*
X63379876Y-63502857D01*
X63442188Y-63468831D01*
X63457534Y-63466473D01*
X63503100Y-63462326D01*
X63509802Y-63460148D01*
X63509804Y-63460148D01*
X63658241Y-63411918D01*
X63658244Y-63411917D01*
X63664940Y-63409741D01*
X63773794Y-63344851D01*
X63805052Y-63326218D01*
X63805055Y-63326216D01*
X63811107Y-63322608D01*
X63934338Y-63205256D01*
X63967382Y-63155522D01*
X64024613Y-63069382D01*
X64028508Y-63063520D01*
X64075915Y-62938720D01*
X64086435Y-62911027D01*
X64086436Y-62911024D01*
X64088936Y-62904442D01*
X64112618Y-62735931D01*
X64112916Y-62714618D01*
X64093948Y-62545510D01*
X64037985Y-62384808D01*
X64032000Y-62375229D01*
X63951543Y-62246471D01*
X63947810Y-62240497D01*
X63872206Y-62164364D01*
X63832867Y-62124749D01*
X63832863Y-62124746D01*
X63827903Y-62119751D01*
X63684226Y-62028570D01*
X63523918Y-61971487D01*
X63354947Y-61951339D01*
X63347944Y-61952075D01*
X63347943Y-61952075D01*
X63192719Y-61968389D01*
X63192715Y-61968390D01*
X63185711Y-61969126D01*
X63179040Y-61971397D01*
X63031292Y-62021694D01*
X63031289Y-62021695D01*
X63024622Y-62023965D01*
X63018624Y-62027655D01*
X63018622Y-62027656D01*
X63010997Y-62032347D01*
X62879685Y-62113131D01*
X62874654Y-62118058D01*
X62874651Y-62118060D01*
X62862828Y-62129638D01*
X62758104Y-62232191D01*
X62665923Y-62375229D01*
X62660014Y-62391463D01*
X62650230Y-62418345D01*
X62620924Y-62464344D01*
X61236747Y-63848520D01*
X61174435Y-63882546D01*
X61132734Y-63884539D01*
X61092329Y-63879721D01*
X61085326Y-63880457D01*
X61085325Y-63880457D01*
X60930101Y-63896771D01*
X60930097Y-63896772D01*
X60923093Y-63897508D01*
X60916422Y-63899779D01*
X60768674Y-63950076D01*
X60768671Y-63950077D01*
X60762004Y-63952347D01*
X60617067Y-64041513D01*
X60612036Y-64046440D01*
X60612033Y-64046442D01*
X60582792Y-64075077D01*
X60495486Y-64160573D01*
X60403305Y-64303611D01*
X60345104Y-64463516D01*
X60323776Y-64632343D01*
X42329500Y-64632343D01*
X42329500Y-39486343D01*
X46607776Y-39486343D01*
X46624382Y-39655699D01*
X46678095Y-39817167D01*
X46681742Y-39823189D01*
X46681743Y-39823191D01*
X46744276Y-39926445D01*
X46762500Y-39991716D01*
X46762500Y-41734864D01*
X46761422Y-41751307D01*
X46757250Y-41783000D01*
X46758328Y-41791189D01*
X46759008Y-41796357D01*
X46762500Y-41822880D01*
X46762500Y-41822885D01*
X46774969Y-41917598D01*
X46778162Y-41941851D01*
X46839476Y-42089876D01*
X46844503Y-42096427D01*
X46844504Y-42096429D01*
X46912520Y-42185069D01*
X46912526Y-42185075D01*
X46937013Y-42216987D01*
X46943568Y-42222017D01*
X46962379Y-42236452D01*
X46974770Y-42247319D01*
X49573685Y-44846234D01*
X49584552Y-44858625D01*
X49604013Y-44883987D01*
X49610563Y-44889013D01*
X49635921Y-44908471D01*
X49635937Y-44908485D01*
X49656646Y-44924375D01*
X49731124Y-44981524D01*
X49879149Y-45042838D01*
X50038000Y-45063751D01*
X50069699Y-45059578D01*
X50086144Y-45058500D01*
X59131761Y-45058500D01*
X59199882Y-45078502D01*
X59220856Y-45095405D01*
X62981595Y-48856144D01*
X63015621Y-48918456D01*
X63018500Y-48945239D01*
X63018500Y-49544846D01*
X62998412Y-49613101D01*
X62943305Y-49698611D01*
X62940896Y-49705231D01*
X62940895Y-49705232D01*
X62889799Y-49845617D01*
X62885104Y-49858516D01*
X62863776Y-50027343D01*
X62880382Y-50196699D01*
X62934095Y-50358167D01*
X62937742Y-50364189D01*
X62937743Y-50364191D01*
X62970071Y-50417570D01*
X63022247Y-50503723D01*
X63042770Y-50524975D01*
X63075701Y-50587869D01*
X63069401Y-50658586D01*
X63025869Y-50714670D01*
X62952132Y-50738500D01*
X55513380Y-50738500D01*
X55403197Y-50750081D01*
X55380608Y-50752455D01*
X55380607Y-50752455D01*
X55374044Y-50753145D01*
X55367766Y-50755185D01*
X55367765Y-50755185D01*
X55270278Y-50786861D01*
X55196215Y-50810925D01*
X55034285Y-50904415D01*
X55029378Y-50908833D01*
X55029377Y-50908834D01*
X54965863Y-50966023D01*
X54895331Y-51029530D01*
X54891452Y-51034869D01*
X54793378Y-51169857D01*
X54785427Y-51180800D01*
X54782743Y-51186828D01*
X54782742Y-51186830D01*
X54737869Y-51287616D01*
X54709375Y-51351615D01*
X54670500Y-51534510D01*
X54670500Y-51721490D01*
X54671872Y-51727943D01*
X54671872Y-51727947D01*
X54689937Y-51812937D01*
X54709375Y-51904385D01*
X54712060Y-51910414D01*
X54712060Y-51910416D01*
X54773599Y-52048633D01*
X54785427Y-52075200D01*
X54895331Y-52226470D01*
X55034285Y-52351585D01*
X55040006Y-52354888D01*
X55093766Y-52385926D01*
X55196215Y-52445075D01*
X55202501Y-52447117D01*
X55202500Y-52447117D01*
X55367765Y-52500815D01*
X55367766Y-52500815D01*
X55374044Y-52502855D01*
X55380607Y-52503545D01*
X55380608Y-52503545D01*
X55403197Y-52505919D01*
X55513380Y-52517500D01*
X69657500Y-52517500D01*
X69725621Y-52537502D01*
X69772114Y-52591158D01*
X69783500Y-52643500D01*
X69783500Y-53321075D01*
X69781949Y-53340785D01*
X69779826Y-53354190D01*
X69780171Y-53360778D01*
X69780171Y-53360782D01*
X69783327Y-53420999D01*
X69783500Y-53427593D01*
X69783500Y-71355075D01*
X69781949Y-71374785D01*
X69779826Y-71388190D01*
X69780171Y-71394778D01*
X69780171Y-71394782D01*
X69783327Y-71454999D01*
X69783500Y-71461593D01*
X69783500Y-71481620D01*
X69783844Y-71484891D01*
X69783844Y-71484895D01*
X69785593Y-71501539D01*
X69786110Y-71508113D01*
X69789611Y-71574915D01*
X69791320Y-71581292D01*
X69791320Y-71581293D01*
X69793124Y-71588023D01*
X69796728Y-71607470D01*
X69798145Y-71620956D01*
X69800187Y-71627240D01*
X69818818Y-71684582D01*
X69820691Y-71690906D01*
X69838006Y-71755524D01*
X69844167Y-71767616D01*
X69851730Y-71785875D01*
X69855925Y-71798785D01*
X69886057Y-71850975D01*
X69889376Y-71856724D01*
X69892523Y-71862520D01*
X69922893Y-71922125D01*
X69927050Y-71927258D01*
X69931432Y-71932670D01*
X69942625Y-71948955D01*
X69946116Y-71955002D01*
X69946119Y-71955005D01*
X69949415Y-71960715D01*
X69953827Y-71965615D01*
X69953830Y-71965619D01*
X69994175Y-72010425D01*
X69998463Y-72015446D01*
X70011063Y-72031006D01*
X70025210Y-72045153D01*
X70029751Y-72049937D01*
X70074530Y-72099669D01*
X70085518Y-72107652D01*
X70100546Y-72120489D01*
X72606595Y-74626538D01*
X72640621Y-74688850D01*
X72643500Y-74715633D01*
X72643500Y-82860742D01*
X72623412Y-82928997D01*
X72595305Y-82972611D01*
X72592896Y-82979231D01*
X72592895Y-82979232D01*
X72589396Y-82988845D01*
X72537104Y-83132516D01*
X72515776Y-83301343D01*
X72532382Y-83470699D01*
X72586095Y-83632167D01*
X72589742Y-83638189D01*
X72589743Y-83638191D01*
X72607048Y-83666764D01*
X72674247Y-83777723D01*
X72679143Y-83782793D01*
X72698307Y-83802638D01*
X72792456Y-83900131D01*
X72934846Y-83993309D01*
X73094342Y-84052625D01*
X73101323Y-84053556D01*
X73101325Y-84053557D01*
X73147426Y-84059708D01*
X73263015Y-84075131D01*
X73270026Y-84074493D01*
X73270030Y-84074493D01*
X73425461Y-84060347D01*
X73432482Y-84059708D01*
X73439184Y-84057530D01*
X73439186Y-84057530D01*
X73587623Y-84009300D01*
X73587626Y-84009299D01*
X73594322Y-84007123D01*
X73666067Y-83964354D01*
X73734434Y-83923600D01*
X73734437Y-83923598D01*
X73740489Y-83919990D01*
X73863720Y-83802638D01*
X73957890Y-83660902D01*
X73966517Y-83638191D01*
X74015817Y-83508409D01*
X74015818Y-83508406D01*
X74018318Y-83501824D01*
X74042000Y-83333313D01*
X74042298Y-83312000D01*
X74023330Y-83142892D01*
X73967367Y-82982190D01*
X73933646Y-82928225D01*
X73914500Y-82861455D01*
X73914500Y-76238633D01*
X73934502Y-76170512D01*
X73988158Y-76124019D01*
X74058432Y-76113915D01*
X74123012Y-76143409D01*
X74129595Y-76149538D01*
X74625511Y-76645454D01*
X74638348Y-76660482D01*
X74646331Y-76671470D01*
X74651233Y-76675883D01*
X74651234Y-76675885D01*
X74696063Y-76716249D01*
X74700847Y-76720790D01*
X74714994Y-76734937D01*
X74717552Y-76737009D01*
X74717556Y-76737012D01*
X74730561Y-76747543D01*
X74735576Y-76751827D01*
X74785285Y-76796585D01*
X74797044Y-76803374D01*
X74813329Y-76814567D01*
X74818740Y-76818948D01*
X74823875Y-76823106D01*
X74829759Y-76826104D01*
X74829762Y-76826106D01*
X74883481Y-76853478D01*
X74889276Y-76856624D01*
X74947215Y-76890075D01*
X74953499Y-76892117D01*
X74953504Y-76892119D01*
X74960121Y-76894269D01*
X74978385Y-76901834D01*
X74984587Y-76904994D01*
X74990475Y-76907994D01*
X75055101Y-76925310D01*
X75061408Y-76927178D01*
X75125044Y-76947855D01*
X75131610Y-76948545D01*
X75131614Y-76948546D01*
X75138544Y-76949275D01*
X75157977Y-76952876D01*
X75162965Y-76954212D01*
X75171085Y-76956388D01*
X75177678Y-76956734D01*
X75177681Y-76956734D01*
X75237880Y-76959889D01*
X75244455Y-76960406D01*
X75264380Y-76962500D01*
X75284414Y-76962500D01*
X75291008Y-76962673D01*
X75351218Y-76965829D01*
X75351223Y-76965829D01*
X75357810Y-76966174D01*
X75364325Y-76965142D01*
X75364327Y-76965142D01*
X75371214Y-76964051D01*
X75390925Y-76962500D01*
X83571553Y-76962500D01*
X83639674Y-76982502D01*
X83666790Y-77006002D01*
X83702250Y-77046938D01*
X83874126Y-77189632D01*
X84067000Y-77302338D01*
X84275692Y-77382030D01*
X84280760Y-77383061D01*
X84280763Y-77383062D01*
X84375956Y-77402429D01*
X84494597Y-77426567D01*
X84499772Y-77426757D01*
X84499774Y-77426757D01*
X84712673Y-77434564D01*
X84712677Y-77434564D01*
X84717837Y-77434753D01*
X84722957Y-77434097D01*
X84722959Y-77434097D01*
X84934288Y-77407025D01*
X84934289Y-77407025D01*
X84939416Y-77406368D01*
X84944366Y-77404883D01*
X85148429Y-77343661D01*
X85148434Y-77343659D01*
X85153384Y-77342174D01*
X85353994Y-77243896D01*
X85535860Y-77114173D01*
X85552904Y-77097189D01*
X85684723Y-76965829D01*
X85694096Y-76956489D01*
X85716503Y-76925307D01*
X85821435Y-76779277D01*
X85824453Y-76775077D01*
X85844292Y-76734937D01*
X85921136Y-76579453D01*
X85921137Y-76579451D01*
X85923430Y-76574811D01*
X85988370Y-76361069D01*
X86017529Y-76139590D01*
X86017611Y-76136240D01*
X86019074Y-76076365D01*
X86019074Y-76076361D01*
X86019156Y-76073000D01*
X86016418Y-76039695D01*
X87943251Y-76039695D01*
X87943548Y-76044848D01*
X87943548Y-76044851D01*
X87949011Y-76139590D01*
X87956110Y-76262715D01*
X87957247Y-76267761D01*
X87957248Y-76267767D01*
X87977119Y-76355939D01*
X88005222Y-76480639D01*
X88043461Y-76574811D01*
X88084503Y-76675885D01*
X88089266Y-76687616D01*
X88205987Y-76878088D01*
X88209367Y-76881990D01*
X88218141Y-76892119D01*
X88352250Y-77046938D01*
X88524126Y-77189632D01*
X88717000Y-77302338D01*
X88925692Y-77382030D01*
X88930760Y-77383061D01*
X88930763Y-77383062D01*
X89025956Y-77402429D01*
X89144597Y-77426567D01*
X89149772Y-77426757D01*
X89149774Y-77426757D01*
X89362673Y-77434564D01*
X89362677Y-77434564D01*
X89367837Y-77434753D01*
X89372957Y-77434097D01*
X89372959Y-77434097D01*
X89584288Y-77407025D01*
X89584289Y-77407025D01*
X89589416Y-77406368D01*
X89594366Y-77404883D01*
X89798429Y-77343661D01*
X89798434Y-77343659D01*
X89803384Y-77342174D01*
X90003994Y-77243896D01*
X90185860Y-77114173D01*
X90202904Y-77097189D01*
X90334723Y-76965829D01*
X90344096Y-76956489D01*
X90366503Y-76925307D01*
X90471435Y-76779277D01*
X90474453Y-76775077D01*
X90494292Y-76734937D01*
X90571136Y-76579453D01*
X90571137Y-76579451D01*
X90573430Y-76574811D01*
X90638370Y-76361069D01*
X90667529Y-76139590D01*
X90667611Y-76136240D01*
X90669074Y-76076365D01*
X90669074Y-76076361D01*
X90669156Y-76073000D01*
X90650852Y-75850361D01*
X90596431Y-75633702D01*
X90507354Y-75428840D01*
X90386014Y-75241277D01*
X90235670Y-75076051D01*
X90231619Y-75072852D01*
X90231615Y-75072848D01*
X90064414Y-74940800D01*
X90064410Y-74940798D01*
X90060359Y-74937598D01*
X90018569Y-74914529D01*
X89968598Y-74864097D01*
X89953826Y-74794654D01*
X89978942Y-74728248D01*
X90006294Y-74701641D01*
X90181328Y-74576792D01*
X90189200Y-74570139D01*
X90340052Y-74419812D01*
X90346730Y-74411965D01*
X90471003Y-74239020D01*
X90476313Y-74230183D01*
X90570670Y-74039267D01*
X90574469Y-74029672D01*
X90636377Y-73825910D01*
X90638555Y-73815837D01*
X90639986Y-73804962D01*
X90637775Y-73790778D01*
X90624617Y-73787000D01*
X87989225Y-73787000D01*
X87975694Y-73790973D01*
X87974257Y-73800966D01*
X88004565Y-73935446D01*
X88007645Y-73945275D01*
X88087770Y-74142603D01*
X88092413Y-74151794D01*
X88203694Y-74333388D01*
X88209777Y-74341699D01*
X88349213Y-74502667D01*
X88356580Y-74509883D01*
X88520434Y-74645916D01*
X88528881Y-74651831D01*
X88597969Y-74692203D01*
X88646693Y-74743842D01*
X88659764Y-74813625D01*
X88633033Y-74879396D01*
X88592584Y-74912752D01*
X88579607Y-74919507D01*
X88575474Y-74922610D01*
X88575471Y-74922612D01*
X88551247Y-74940800D01*
X88400965Y-75053635D01*
X88246629Y-75215138D01*
X88120743Y-75399680D01*
X88026688Y-75602305D01*
X87966989Y-75817570D01*
X87943251Y-76039695D01*
X86016418Y-76039695D01*
X86000852Y-75850361D01*
X85946431Y-75633702D01*
X85857354Y-75428840D01*
X85736014Y-75241277D01*
X85585670Y-75076051D01*
X85581619Y-75072852D01*
X85581615Y-75072848D01*
X85414414Y-74940800D01*
X85414410Y-74940798D01*
X85410359Y-74937598D01*
X85368569Y-74914529D01*
X85318598Y-74864097D01*
X85303826Y-74794654D01*
X85328942Y-74728248D01*
X85356294Y-74701641D01*
X85531328Y-74576792D01*
X85539200Y-74570139D01*
X85690052Y-74419812D01*
X85696730Y-74411965D01*
X85821003Y-74239020D01*
X85826313Y-74230183D01*
X85920670Y-74039267D01*
X85924469Y-74029672D01*
X85986377Y-73825910D01*
X85988555Y-73815837D01*
X85989986Y-73804962D01*
X85987775Y-73790778D01*
X85974617Y-73787000D01*
X83339225Y-73787000D01*
X83325694Y-73790973D01*
X83324257Y-73800966D01*
X83354565Y-73935446D01*
X83357645Y-73945275D01*
X83437770Y-74142603D01*
X83442413Y-74151794D01*
X83553694Y-74333388D01*
X83559777Y-74341699D01*
X83699213Y-74502667D01*
X83706580Y-74509883D01*
X83870434Y-74645916D01*
X83878881Y-74651831D01*
X83947969Y-74692203D01*
X83996693Y-74743842D01*
X84009764Y-74813625D01*
X83983033Y-74879396D01*
X83942584Y-74912752D01*
X83929607Y-74919507D01*
X83925474Y-74922610D01*
X83925471Y-74922612D01*
X83901247Y-74940800D01*
X83750965Y-75053635D01*
X83747393Y-75057373D01*
X83664084Y-75144551D01*
X83602560Y-75179981D01*
X83572990Y-75183500D01*
X75731633Y-75183500D01*
X75663512Y-75163498D01*
X75642538Y-75146595D01*
X73763126Y-73267183D01*
X83320389Y-73267183D01*
X83321912Y-73275607D01*
X83334292Y-73279000D01*
X84383885Y-73279000D01*
X84399124Y-73274525D01*
X84400329Y-73273135D01*
X84402000Y-73265452D01*
X84402000Y-73260885D01*
X84910000Y-73260885D01*
X84914475Y-73276124D01*
X84915865Y-73277329D01*
X84923548Y-73279000D01*
X85974344Y-73279000D01*
X85987875Y-73275027D01*
X85989002Y-73267183D01*
X87970389Y-73267183D01*
X87971912Y-73275607D01*
X87984292Y-73279000D01*
X89033885Y-73279000D01*
X89049124Y-73274525D01*
X89050329Y-73273135D01*
X89052000Y-73265452D01*
X89052000Y-73260885D01*
X89560000Y-73260885D01*
X89564475Y-73276124D01*
X89565865Y-73277329D01*
X89573548Y-73279000D01*
X90624344Y-73279000D01*
X90637875Y-73275027D01*
X90639180Y-73265947D01*
X90597214Y-73098875D01*
X90593894Y-73089124D01*
X90508972Y-72893814D01*
X90504105Y-72884739D01*
X90388426Y-72705926D01*
X90382136Y-72697757D01*
X90238806Y-72540240D01*
X90231273Y-72533215D01*
X90064139Y-72401222D01*
X90055552Y-72395517D01*
X90018116Y-72374851D01*
X89968146Y-72324419D01*
X89953374Y-72254976D01*
X89978490Y-72188571D01*
X90005842Y-72161964D01*
X90181327Y-72036792D01*
X90189200Y-72030139D01*
X90340052Y-71879812D01*
X90346730Y-71871965D01*
X90471003Y-71699020D01*
X90476313Y-71690183D01*
X90570670Y-71499267D01*
X90574469Y-71489672D01*
X90636377Y-71285910D01*
X90638555Y-71275837D01*
X90639986Y-71264962D01*
X90637775Y-71250778D01*
X90624617Y-71247000D01*
X89578115Y-71247000D01*
X89562876Y-71251475D01*
X89561671Y-71252865D01*
X89560000Y-71260548D01*
X89560000Y-73260885D01*
X89052000Y-73260885D01*
X89052000Y-71265115D01*
X89047525Y-71249876D01*
X89046135Y-71248671D01*
X89038452Y-71247000D01*
X87989225Y-71247000D01*
X87975694Y-71250973D01*
X87974257Y-71260966D01*
X88004565Y-71395446D01*
X88007645Y-71405275D01*
X88087770Y-71602603D01*
X88092413Y-71611794D01*
X88203694Y-71793388D01*
X88209777Y-71801699D01*
X88349213Y-71962667D01*
X88356580Y-71969883D01*
X88520434Y-72105916D01*
X88528881Y-72111831D01*
X88598479Y-72152501D01*
X88647203Y-72204140D01*
X88660274Y-72273923D01*
X88633543Y-72339694D01*
X88593087Y-72373053D01*
X88584462Y-72377542D01*
X88575738Y-72383036D01*
X88405433Y-72510905D01*
X88397726Y-72517748D01*
X88250590Y-72671717D01*
X88244104Y-72679727D01*
X88124098Y-72855649D01*
X88119000Y-72864623D01*
X88029338Y-73057783D01*
X88025775Y-73067470D01*
X87970389Y-73267183D01*
X85989002Y-73267183D01*
X85989180Y-73265947D01*
X85947214Y-73098875D01*
X85943894Y-73089124D01*
X85858972Y-72893814D01*
X85854105Y-72884739D01*
X85738426Y-72705926D01*
X85732136Y-72697757D01*
X85588806Y-72540240D01*
X85581273Y-72533215D01*
X85414139Y-72401222D01*
X85405552Y-72395517D01*
X85368116Y-72374851D01*
X85318146Y-72324419D01*
X85303374Y-72254976D01*
X85328490Y-72188571D01*
X85355842Y-72161964D01*
X85531327Y-72036792D01*
X85539200Y-72030139D01*
X85690052Y-71879812D01*
X85696730Y-71871965D01*
X85821003Y-71699020D01*
X85826313Y-71690183D01*
X85920670Y-71499267D01*
X85924469Y-71489672D01*
X85986377Y-71285910D01*
X85988555Y-71275837D01*
X85989986Y-71264962D01*
X85987775Y-71250778D01*
X85974617Y-71247000D01*
X84928115Y-71247000D01*
X84912876Y-71251475D01*
X84911671Y-71252865D01*
X84910000Y-71260548D01*
X84910000Y-73260885D01*
X84402000Y-73260885D01*
X84402000Y-71265115D01*
X84397525Y-71249876D01*
X84396135Y-71248671D01*
X84388452Y-71247000D01*
X83339225Y-71247000D01*
X83325694Y-71250973D01*
X83324257Y-71260966D01*
X83354565Y-71395446D01*
X83357645Y-71405275D01*
X83437770Y-71602603D01*
X83442413Y-71611794D01*
X83553694Y-71793388D01*
X83559777Y-71801699D01*
X83699213Y-71962667D01*
X83706580Y-71969883D01*
X83870434Y-72105916D01*
X83878881Y-72111831D01*
X83948479Y-72152501D01*
X83997203Y-72204140D01*
X84010274Y-72273923D01*
X83983543Y-72339694D01*
X83943087Y-72373053D01*
X83934462Y-72377542D01*
X83925738Y-72383036D01*
X83755433Y-72510905D01*
X83747726Y-72517748D01*
X83600590Y-72671717D01*
X83594104Y-72679727D01*
X83474098Y-72855649D01*
X83469000Y-72864623D01*
X83379338Y-73057783D01*
X83375775Y-73067470D01*
X83320389Y-73267183D01*
X73763126Y-73267183D01*
X71599405Y-71103462D01*
X71565379Y-71041150D01*
X71562500Y-71014367D01*
X71562500Y-68188343D01*
X81024776Y-68188343D01*
X81041382Y-68357699D01*
X81095095Y-68519167D01*
X81098742Y-68525189D01*
X81098743Y-68525191D01*
X81116048Y-68553764D01*
X81183247Y-68664723D01*
X81188143Y-68669793D01*
X81207307Y-68689638D01*
X81301456Y-68787131D01*
X81443846Y-68880309D01*
X81603342Y-68939625D01*
X81610323Y-68940556D01*
X81610325Y-68940557D01*
X81656426Y-68946708D01*
X81772015Y-68962131D01*
X81779026Y-68961493D01*
X81779030Y-68961493D01*
X81934461Y-68947347D01*
X81941482Y-68946708D01*
X81948184Y-68944530D01*
X81948186Y-68944530D01*
X82096623Y-68896300D01*
X82096626Y-68896299D01*
X82103322Y-68894123D01*
X82175067Y-68851354D01*
X82243434Y-68810600D01*
X82243437Y-68810598D01*
X82249489Y-68806990D01*
X82372720Y-68689638D01*
X82407330Y-68637547D01*
X82462995Y-68553764D01*
X82466890Y-68547902D01*
X82477645Y-68519590D01*
X82524817Y-68395409D01*
X82524818Y-68395406D01*
X82527318Y-68388824D01*
X82532590Y-68351309D01*
X82557401Y-68292141D01*
X82563973Y-68283576D01*
X82563978Y-68283571D01*
X82637024Y-68188376D01*
X82698338Y-68040351D01*
X82701846Y-68013702D01*
X82714000Y-67921385D01*
X82714000Y-67921380D01*
X82719250Y-67881500D01*
X82715078Y-67849807D01*
X82714000Y-67833364D01*
X82714000Y-65707389D01*
X82735052Y-65637661D01*
X82784390Y-65563402D01*
X82793017Y-65540691D01*
X82842317Y-65410909D01*
X82842318Y-65410906D01*
X82844818Y-65404324D01*
X82868500Y-65235813D01*
X82868798Y-65214500D01*
X82852250Y-65066965D01*
X82850615Y-65052388D01*
X82850614Y-65052385D01*
X82849830Y-65045392D01*
X82793867Y-64884690D01*
X82787882Y-64875111D01*
X82707425Y-64746353D01*
X82703692Y-64740379D01*
X82617811Y-64653897D01*
X82588749Y-64624631D01*
X82588745Y-64624628D01*
X82583785Y-64619633D01*
X82440108Y-64528452D01*
X82279800Y-64471369D01*
X82110829Y-64451221D01*
X82103826Y-64451957D01*
X82103825Y-64451957D01*
X81948601Y-64468271D01*
X81948597Y-64468272D01*
X81941593Y-64469008D01*
X81934922Y-64471279D01*
X81787174Y-64521576D01*
X81787171Y-64521577D01*
X81780504Y-64523847D01*
X81774506Y-64527537D01*
X81774504Y-64527538D01*
X81747915Y-64543896D01*
X81635567Y-64613013D01*
X81630536Y-64617940D01*
X81630533Y-64617942D01*
X81603110Y-64644797D01*
X81513986Y-64732073D01*
X81421805Y-64875111D01*
X81419396Y-64881731D01*
X81419395Y-64881732D01*
X81416193Y-64890530D01*
X81363604Y-65035016D01*
X81342276Y-65203843D01*
X81358882Y-65373199D01*
X81361106Y-65379884D01*
X81361106Y-65379885D01*
X81362350Y-65383625D01*
X81412595Y-65534667D01*
X81416242Y-65540689D01*
X81416243Y-65540691D01*
X81478776Y-65643945D01*
X81497000Y-65709216D01*
X81497000Y-67417013D01*
X81476998Y-67485134D01*
X81437022Y-67524330D01*
X81324073Y-67593817D01*
X81324067Y-67593822D01*
X81318067Y-67597513D01*
X81313036Y-67602440D01*
X81313033Y-67602442D01*
X81289368Y-67625617D01*
X81196486Y-67716573D01*
X81104305Y-67859611D01*
X81101896Y-67866231D01*
X81101895Y-67866232D01*
X81059648Y-67982305D01*
X81046104Y-68019516D01*
X81024776Y-68188343D01*
X71562500Y-68188343D01*
X71562500Y-55852633D01*
X71582502Y-55784512D01*
X71636158Y-55738019D01*
X71706432Y-55727915D01*
X71771012Y-55757409D01*
X71777595Y-55763538D01*
X72339511Y-56325454D01*
X72352348Y-56340482D01*
X72360331Y-56351470D01*
X72365233Y-56355883D01*
X72365234Y-56355885D01*
X72410063Y-56396249D01*
X72414847Y-56400790D01*
X72428994Y-56414937D01*
X72431552Y-56417009D01*
X72431556Y-56417012D01*
X72444561Y-56427543D01*
X72449576Y-56431827D01*
X72499285Y-56476585D01*
X72511044Y-56483374D01*
X72527329Y-56494567D01*
X72532740Y-56498948D01*
X72537875Y-56503106D01*
X72543759Y-56506104D01*
X72543762Y-56506106D01*
X72597481Y-56533478D01*
X72603276Y-56536624D01*
X72661215Y-56570075D01*
X72667499Y-56572117D01*
X72667504Y-56572119D01*
X72674121Y-56574269D01*
X72692385Y-56581834D01*
X72698587Y-56584994D01*
X72704475Y-56587994D01*
X72769101Y-56605310D01*
X72775408Y-56607178D01*
X72839044Y-56627855D01*
X72845610Y-56628545D01*
X72845614Y-56628546D01*
X72852544Y-56629275D01*
X72871977Y-56632876D01*
X72876965Y-56634212D01*
X72885085Y-56636388D01*
X72891678Y-56636734D01*
X72891681Y-56636734D01*
X72951880Y-56639889D01*
X72958455Y-56640406D01*
X72978380Y-56642500D01*
X72998414Y-56642500D01*
X73005008Y-56642673D01*
X73065218Y-56645829D01*
X73065223Y-56645829D01*
X73071810Y-56646174D01*
X73078325Y-56645142D01*
X73078327Y-56645142D01*
X73085214Y-56644051D01*
X73104925Y-56642500D01*
X83571553Y-56642500D01*
X83639674Y-56662502D01*
X83666790Y-56686002D01*
X83702250Y-56726938D01*
X83874126Y-56869632D01*
X83944595Y-56910811D01*
X83947445Y-56912476D01*
X83996169Y-56964114D01*
X84009240Y-57033897D01*
X83982509Y-57099669D01*
X83942055Y-57133027D01*
X83929607Y-57139507D01*
X83925474Y-57142610D01*
X83925471Y-57142612D01*
X83901247Y-57160800D01*
X83750965Y-57273635D01*
X83596629Y-57435138D01*
X83470743Y-57619680D01*
X83376688Y-57822305D01*
X83316989Y-58037570D01*
X83293251Y-58259695D01*
X83293548Y-58264848D01*
X83293548Y-58264851D01*
X83299011Y-58359590D01*
X83306110Y-58482715D01*
X83307247Y-58487761D01*
X83307248Y-58487767D01*
X83327119Y-58575939D01*
X83355222Y-58700639D01*
X83439266Y-58907616D01*
X83555987Y-59098088D01*
X83702250Y-59266938D01*
X83874126Y-59409632D01*
X83944595Y-59450811D01*
X83947445Y-59452476D01*
X83996169Y-59504114D01*
X84009240Y-59573897D01*
X83982509Y-59639669D01*
X83942055Y-59673027D01*
X83929607Y-59679507D01*
X83925474Y-59682610D01*
X83925471Y-59682612D01*
X83901247Y-59700800D01*
X83750965Y-59813635D01*
X83596629Y-59975138D01*
X83470743Y-60159680D01*
X83376688Y-60362305D01*
X83316989Y-60577570D01*
X83293251Y-60799695D01*
X83293548Y-60804848D01*
X83293548Y-60804851D01*
X83299011Y-60899590D01*
X83306110Y-61022715D01*
X83307247Y-61027761D01*
X83307248Y-61027767D01*
X83327119Y-61115939D01*
X83355222Y-61240639D01*
X83439266Y-61447616D01*
X83555987Y-61638088D01*
X83702250Y-61806938D01*
X83874126Y-61949632D01*
X83911527Y-61971487D01*
X83947445Y-61992476D01*
X83996169Y-62044114D01*
X84009240Y-62113897D01*
X83982509Y-62179669D01*
X83942055Y-62213027D01*
X83929607Y-62219507D01*
X83925474Y-62222610D01*
X83925471Y-62222612D01*
X83901247Y-62240800D01*
X83750965Y-62353635D01*
X83596629Y-62515138D01*
X83470743Y-62699680D01*
X83376688Y-62902305D01*
X83316989Y-63117570D01*
X83293251Y-63339695D01*
X83293548Y-63344848D01*
X83293548Y-63344851D01*
X83299011Y-63439590D01*
X83306110Y-63562715D01*
X83307247Y-63567761D01*
X83307248Y-63567767D01*
X83327119Y-63655939D01*
X83355222Y-63780639D01*
X83439266Y-63987616D01*
X83490019Y-64070438D01*
X83548882Y-64166493D01*
X83555987Y-64178088D01*
X83702250Y-64346938D01*
X83874126Y-64489632D01*
X83928792Y-64521576D01*
X83947445Y-64532476D01*
X83996169Y-64584114D01*
X84009240Y-64653897D01*
X83982509Y-64719669D01*
X83942055Y-64753027D01*
X83929607Y-64759507D01*
X83925474Y-64762610D01*
X83925471Y-64762612D01*
X83755100Y-64890530D01*
X83750965Y-64893635D01*
X83747393Y-64897373D01*
X83605943Y-65045392D01*
X83596629Y-65055138D01*
X83470743Y-65239680D01*
X83431460Y-65324309D01*
X83403494Y-65384557D01*
X83376688Y-65442305D01*
X83316989Y-65657570D01*
X83293251Y-65879695D01*
X83293548Y-65884848D01*
X83293548Y-65884851D01*
X83304759Y-66079283D01*
X83306110Y-66102715D01*
X83307247Y-66107761D01*
X83307248Y-66107767D01*
X83327119Y-66195939D01*
X83355222Y-66320639D01*
X83393461Y-66414811D01*
X83421355Y-66483505D01*
X83439266Y-66527616D01*
X83555987Y-66718088D01*
X83702250Y-66886938D01*
X83874126Y-67029632D01*
X83944595Y-67070811D01*
X83947445Y-67072476D01*
X83996169Y-67124114D01*
X84009240Y-67193897D01*
X83982509Y-67259669D01*
X83942055Y-67293027D01*
X83929607Y-67299507D01*
X83925474Y-67302610D01*
X83925471Y-67302612D01*
X83901247Y-67320800D01*
X83750965Y-67433635D01*
X83596629Y-67595138D01*
X83593715Y-67599410D01*
X83593714Y-67599411D01*
X83581404Y-67617457D01*
X83470743Y-67779680D01*
X83455003Y-67813590D01*
X83404966Y-67921386D01*
X83376688Y-67982305D01*
X83316989Y-68197570D01*
X83293251Y-68419695D01*
X83293548Y-68424848D01*
X83293548Y-68424851D01*
X83298986Y-68519167D01*
X83306110Y-68642715D01*
X83307247Y-68647761D01*
X83307248Y-68647767D01*
X83327119Y-68735939D01*
X83355222Y-68860639D01*
X83439266Y-69067616D01*
X83555987Y-69258088D01*
X83702250Y-69426938D01*
X83874126Y-69569632D01*
X83947955Y-69612774D01*
X83996679Y-69664412D01*
X84009750Y-69734195D01*
X83983019Y-69799967D01*
X83942562Y-69833327D01*
X83934457Y-69837546D01*
X83925738Y-69843036D01*
X83755433Y-69970905D01*
X83747726Y-69977748D01*
X83600590Y-70131717D01*
X83594104Y-70139727D01*
X83474098Y-70315649D01*
X83469000Y-70324623D01*
X83379338Y-70517783D01*
X83375775Y-70527470D01*
X83320389Y-70727183D01*
X83321912Y-70735607D01*
X83334292Y-70739000D01*
X85974344Y-70739000D01*
X85987875Y-70735027D01*
X85989180Y-70725947D01*
X85947214Y-70558875D01*
X85943894Y-70549124D01*
X85858972Y-70353814D01*
X85854105Y-70344739D01*
X85738426Y-70165926D01*
X85732136Y-70157757D01*
X85588806Y-70000240D01*
X85581273Y-69993215D01*
X85414139Y-69861222D01*
X85405556Y-69855520D01*
X85368602Y-69835120D01*
X85318631Y-69784687D01*
X85303859Y-69715245D01*
X85328975Y-69648839D01*
X85356327Y-69622232D01*
X85379797Y-69605491D01*
X85535860Y-69494173D01*
X85694096Y-69336489D01*
X85753594Y-69253689D01*
X85821435Y-69159277D01*
X85824453Y-69155077D01*
X85923430Y-68954811D01*
X85988370Y-68741069D01*
X86017529Y-68519590D01*
X86019156Y-68453000D01*
X86016418Y-68419695D01*
X87943251Y-68419695D01*
X87943548Y-68424848D01*
X87943548Y-68424851D01*
X87948986Y-68519167D01*
X87956110Y-68642715D01*
X87957247Y-68647761D01*
X87957248Y-68647767D01*
X87977119Y-68735939D01*
X88005222Y-68860639D01*
X88089266Y-69067616D01*
X88205987Y-69258088D01*
X88352250Y-69426938D01*
X88524126Y-69569632D01*
X88597955Y-69612774D01*
X88646679Y-69664412D01*
X88659750Y-69734195D01*
X88633019Y-69799967D01*
X88592562Y-69833327D01*
X88584457Y-69837546D01*
X88575738Y-69843036D01*
X88405433Y-69970905D01*
X88397726Y-69977748D01*
X88250590Y-70131717D01*
X88244104Y-70139727D01*
X88124098Y-70315649D01*
X88119000Y-70324623D01*
X88029338Y-70517783D01*
X88025775Y-70527470D01*
X87970389Y-70727183D01*
X87971912Y-70735607D01*
X87984292Y-70739000D01*
X90624344Y-70739000D01*
X90637875Y-70735027D01*
X90639180Y-70725947D01*
X90597214Y-70558875D01*
X90593894Y-70549124D01*
X90508972Y-70353814D01*
X90504105Y-70344739D01*
X90388426Y-70165926D01*
X90382136Y-70157757D01*
X90238806Y-70000240D01*
X90231273Y-69993215D01*
X90064139Y-69861222D01*
X90055556Y-69855520D01*
X90018602Y-69835120D01*
X89968631Y-69784687D01*
X89953859Y-69715245D01*
X89978975Y-69648839D01*
X90006327Y-69622232D01*
X90029797Y-69605491D01*
X90185860Y-69494173D01*
X90344096Y-69336489D01*
X90403594Y-69253689D01*
X90471435Y-69159277D01*
X90474453Y-69155077D01*
X90573430Y-68954811D01*
X90638370Y-68741069D01*
X90667529Y-68519590D01*
X90669156Y-68453000D01*
X90650852Y-68230361D01*
X90596431Y-68013702D01*
X90507354Y-67808840D01*
X90386014Y-67621277D01*
X90235670Y-67456051D01*
X90231619Y-67452852D01*
X90231615Y-67452848D01*
X90064414Y-67320800D01*
X90064410Y-67320798D01*
X90060359Y-67317598D01*
X90019053Y-67294796D01*
X89969084Y-67244364D01*
X89954312Y-67174921D01*
X89979428Y-67108516D01*
X90006780Y-67081909D01*
X90050603Y-67050650D01*
X90185860Y-66954173D01*
X90344096Y-66796489D01*
X90403594Y-66713689D01*
X90471435Y-66619277D01*
X90474453Y-66615077D01*
X90573430Y-66414811D01*
X90638370Y-66201069D01*
X90667529Y-65979590D01*
X90669156Y-65913000D01*
X90650852Y-65690361D01*
X90596431Y-65473702D01*
X90507354Y-65268840D01*
X90386014Y-65081277D01*
X90235670Y-64916051D01*
X90231619Y-64912852D01*
X90231615Y-64912848D01*
X90064414Y-64780800D01*
X90064410Y-64780798D01*
X90060359Y-64777598D01*
X90019053Y-64754796D01*
X89969084Y-64704364D01*
X89954312Y-64634921D01*
X89979428Y-64568516D01*
X90006780Y-64541909D01*
X90050603Y-64510650D01*
X90185860Y-64414173D01*
X90344096Y-64256489D01*
X90403594Y-64173689D01*
X90471435Y-64079277D01*
X90474453Y-64075077D01*
X90491042Y-64041513D01*
X90571136Y-63879453D01*
X90571137Y-63879451D01*
X90573430Y-63874811D01*
X90638370Y-63661069D01*
X90667529Y-63439590D01*
X90668258Y-63409741D01*
X90669074Y-63376365D01*
X90669074Y-63376361D01*
X90669156Y-63373000D01*
X90650852Y-63150361D01*
X90596431Y-62933702D01*
X90507354Y-62728840D01*
X90467906Y-62667862D01*
X90388822Y-62545617D01*
X90388820Y-62545614D01*
X90386014Y-62541277D01*
X90235670Y-62376051D01*
X90231619Y-62372852D01*
X90231615Y-62372848D01*
X90064414Y-62240800D01*
X90064410Y-62240798D01*
X90060359Y-62237598D01*
X90019053Y-62214796D01*
X89969084Y-62164364D01*
X89954312Y-62094921D01*
X89979428Y-62028516D01*
X90006780Y-62001909D01*
X90053773Y-61968389D01*
X90185860Y-61874173D01*
X90344096Y-61716489D01*
X90403594Y-61633689D01*
X90471435Y-61539277D01*
X90474453Y-61535077D01*
X90573430Y-61334811D01*
X90638370Y-61121069D01*
X90667529Y-60899590D01*
X90669156Y-60833000D01*
X90650852Y-60610361D01*
X90596431Y-60393702D01*
X90507354Y-60188840D01*
X90386014Y-60001277D01*
X90235670Y-59836051D01*
X90231619Y-59832852D01*
X90231615Y-59832848D01*
X90064414Y-59700800D01*
X90064410Y-59700798D01*
X90060359Y-59697598D01*
X90019053Y-59674796D01*
X89969084Y-59624364D01*
X89954312Y-59554921D01*
X89979428Y-59488516D01*
X90006780Y-59461909D01*
X90050603Y-59430650D01*
X90185860Y-59334173D01*
X90344096Y-59176489D01*
X90403594Y-59093689D01*
X90471435Y-58999277D01*
X90474453Y-58995077D01*
X90573430Y-58794811D01*
X90638370Y-58581069D01*
X90667529Y-58359590D01*
X90669156Y-58293000D01*
X90650852Y-58070361D01*
X90596431Y-57853702D01*
X90507354Y-57648840D01*
X90386014Y-57461277D01*
X90235670Y-57296051D01*
X90231619Y-57292852D01*
X90231615Y-57292848D01*
X90064414Y-57160800D01*
X90064410Y-57160798D01*
X90060359Y-57157598D01*
X90019053Y-57134796D01*
X89969084Y-57084364D01*
X89954312Y-57014921D01*
X89979428Y-56948516D01*
X90006780Y-56921909D01*
X90050603Y-56890650D01*
X90185860Y-56794173D01*
X90344096Y-56636489D01*
X90366503Y-56605307D01*
X90471435Y-56459277D01*
X90474453Y-56455077D01*
X90494292Y-56414937D01*
X90571136Y-56259453D01*
X90571137Y-56259451D01*
X90573430Y-56254811D01*
X90638370Y-56041069D01*
X90667529Y-55819590D01*
X90669156Y-55753000D01*
X90650852Y-55530361D01*
X90596431Y-55313702D01*
X90507354Y-55108840D01*
X90386014Y-54921277D01*
X90235670Y-54756051D01*
X90231619Y-54752852D01*
X90231615Y-54752848D01*
X90064414Y-54620800D01*
X90064410Y-54620798D01*
X90060359Y-54617598D01*
X90018569Y-54594529D01*
X89968598Y-54544097D01*
X89953826Y-54474654D01*
X89978942Y-54408248D01*
X90006294Y-54381641D01*
X90181328Y-54256792D01*
X90189200Y-54250139D01*
X90340052Y-54099812D01*
X90346730Y-54091965D01*
X90471003Y-53919020D01*
X90476313Y-53910183D01*
X90570670Y-53719267D01*
X90574469Y-53709672D01*
X90636377Y-53505910D01*
X90638555Y-53495837D01*
X90639986Y-53484962D01*
X90637775Y-53470778D01*
X90624617Y-53467000D01*
X87989225Y-53467000D01*
X87975694Y-53470973D01*
X87974257Y-53480966D01*
X88004565Y-53615446D01*
X88007645Y-53625275D01*
X88087770Y-53822603D01*
X88092413Y-53831794D01*
X88203694Y-54013388D01*
X88209777Y-54021699D01*
X88349213Y-54182667D01*
X88356580Y-54189883D01*
X88520434Y-54325916D01*
X88528881Y-54331831D01*
X88597969Y-54372203D01*
X88646693Y-54423842D01*
X88659764Y-54493625D01*
X88633033Y-54559396D01*
X88592584Y-54592752D01*
X88579607Y-54599507D01*
X88575474Y-54602610D01*
X88575471Y-54602612D01*
X88551247Y-54620800D01*
X88400965Y-54733635D01*
X88246629Y-54895138D01*
X88120743Y-55079680D01*
X88026688Y-55282305D01*
X87966989Y-55497570D01*
X87943251Y-55719695D01*
X87943548Y-55724848D01*
X87943548Y-55724851D01*
X87949011Y-55819590D01*
X87956110Y-55942715D01*
X87957247Y-55947761D01*
X87957248Y-55947767D01*
X87977119Y-56035939D01*
X88005222Y-56160639D01*
X88043461Y-56254811D01*
X88084503Y-56355885D01*
X88089266Y-56367616D01*
X88205987Y-56558088D01*
X88209367Y-56561990D01*
X88218141Y-56572119D01*
X88352250Y-56726938D01*
X88524126Y-56869632D01*
X88594595Y-56910811D01*
X88597445Y-56912476D01*
X88646169Y-56964114D01*
X88659240Y-57033897D01*
X88632509Y-57099669D01*
X88592055Y-57133027D01*
X88579607Y-57139507D01*
X88575474Y-57142610D01*
X88575471Y-57142612D01*
X88551247Y-57160800D01*
X88400965Y-57273635D01*
X88246629Y-57435138D01*
X88120743Y-57619680D01*
X88026688Y-57822305D01*
X87966989Y-58037570D01*
X87943251Y-58259695D01*
X87943548Y-58264848D01*
X87943548Y-58264851D01*
X87949011Y-58359590D01*
X87956110Y-58482715D01*
X87957247Y-58487761D01*
X87957248Y-58487767D01*
X87977119Y-58575939D01*
X88005222Y-58700639D01*
X88089266Y-58907616D01*
X88205987Y-59098088D01*
X88352250Y-59266938D01*
X88524126Y-59409632D01*
X88594595Y-59450811D01*
X88597445Y-59452476D01*
X88646169Y-59504114D01*
X88659240Y-59573897D01*
X88632509Y-59639669D01*
X88592055Y-59673027D01*
X88579607Y-59679507D01*
X88575474Y-59682610D01*
X88575471Y-59682612D01*
X88551247Y-59700800D01*
X88400965Y-59813635D01*
X88246629Y-59975138D01*
X88120743Y-60159680D01*
X88026688Y-60362305D01*
X87966989Y-60577570D01*
X87943251Y-60799695D01*
X87943548Y-60804848D01*
X87943548Y-60804851D01*
X87949011Y-60899590D01*
X87956110Y-61022715D01*
X87957247Y-61027761D01*
X87957248Y-61027767D01*
X87977119Y-61115939D01*
X88005222Y-61240639D01*
X88089266Y-61447616D01*
X88205987Y-61638088D01*
X88352250Y-61806938D01*
X88524126Y-61949632D01*
X88561527Y-61971487D01*
X88597445Y-61992476D01*
X88646169Y-62044114D01*
X88659240Y-62113897D01*
X88632509Y-62179669D01*
X88592055Y-62213027D01*
X88579607Y-62219507D01*
X88575474Y-62222610D01*
X88575471Y-62222612D01*
X88551247Y-62240800D01*
X88400965Y-62353635D01*
X88246629Y-62515138D01*
X88120743Y-62699680D01*
X88026688Y-62902305D01*
X87966989Y-63117570D01*
X87943251Y-63339695D01*
X87943548Y-63344848D01*
X87943548Y-63344851D01*
X87949011Y-63439590D01*
X87956110Y-63562715D01*
X87957247Y-63567761D01*
X87957248Y-63567767D01*
X87977119Y-63655939D01*
X88005222Y-63780639D01*
X88089266Y-63987616D01*
X88140019Y-64070438D01*
X88198882Y-64166493D01*
X88205987Y-64178088D01*
X88352250Y-64346938D01*
X88524126Y-64489632D01*
X88578792Y-64521576D01*
X88597445Y-64532476D01*
X88646169Y-64584114D01*
X88659240Y-64653897D01*
X88632509Y-64719669D01*
X88592055Y-64753027D01*
X88579607Y-64759507D01*
X88575474Y-64762610D01*
X88575471Y-64762612D01*
X88405100Y-64890530D01*
X88400965Y-64893635D01*
X88397393Y-64897373D01*
X88255943Y-65045392D01*
X88246629Y-65055138D01*
X88120743Y-65239680D01*
X88081460Y-65324309D01*
X88053494Y-65384557D01*
X88026688Y-65442305D01*
X87966989Y-65657570D01*
X87943251Y-65879695D01*
X87943548Y-65884848D01*
X87943548Y-65884851D01*
X87954759Y-66079283D01*
X87956110Y-66102715D01*
X87957247Y-66107761D01*
X87957248Y-66107767D01*
X87977119Y-66195939D01*
X88005222Y-66320639D01*
X88043461Y-66414811D01*
X88071355Y-66483505D01*
X88089266Y-66527616D01*
X88205987Y-66718088D01*
X88352250Y-66886938D01*
X88524126Y-67029632D01*
X88594595Y-67070811D01*
X88597445Y-67072476D01*
X88646169Y-67124114D01*
X88659240Y-67193897D01*
X88632509Y-67259669D01*
X88592055Y-67293027D01*
X88579607Y-67299507D01*
X88575474Y-67302610D01*
X88575471Y-67302612D01*
X88551247Y-67320800D01*
X88400965Y-67433635D01*
X88246629Y-67595138D01*
X88243715Y-67599410D01*
X88243714Y-67599411D01*
X88231404Y-67617457D01*
X88120743Y-67779680D01*
X88105003Y-67813590D01*
X88054966Y-67921386D01*
X88026688Y-67982305D01*
X87966989Y-68197570D01*
X87943251Y-68419695D01*
X86016418Y-68419695D01*
X86000852Y-68230361D01*
X85946431Y-68013702D01*
X85857354Y-67808840D01*
X85736014Y-67621277D01*
X85585670Y-67456051D01*
X85581619Y-67452852D01*
X85581615Y-67452848D01*
X85414414Y-67320800D01*
X85414410Y-67320798D01*
X85410359Y-67317598D01*
X85369053Y-67294796D01*
X85319084Y-67244364D01*
X85304312Y-67174921D01*
X85329428Y-67108516D01*
X85356780Y-67081909D01*
X85400603Y-67050650D01*
X85535860Y-66954173D01*
X85694096Y-66796489D01*
X85753594Y-66713689D01*
X85821435Y-66619277D01*
X85824453Y-66615077D01*
X85923430Y-66414811D01*
X85988370Y-66201069D01*
X86017529Y-65979590D01*
X86019156Y-65913000D01*
X86000852Y-65690361D01*
X85946431Y-65473702D01*
X85857354Y-65268840D01*
X85736014Y-65081277D01*
X85585670Y-64916051D01*
X85581619Y-64912852D01*
X85581615Y-64912848D01*
X85414414Y-64780800D01*
X85414410Y-64780798D01*
X85410359Y-64777598D01*
X85369053Y-64754796D01*
X85319084Y-64704364D01*
X85304312Y-64634921D01*
X85329428Y-64568516D01*
X85356780Y-64541909D01*
X85400603Y-64510650D01*
X85535860Y-64414173D01*
X85694096Y-64256489D01*
X85753594Y-64173689D01*
X85821435Y-64079277D01*
X85824453Y-64075077D01*
X85841042Y-64041513D01*
X85921136Y-63879453D01*
X85921137Y-63879451D01*
X85923430Y-63874811D01*
X85988370Y-63661069D01*
X86017529Y-63439590D01*
X86018258Y-63409741D01*
X86019074Y-63376365D01*
X86019074Y-63376361D01*
X86019156Y-63373000D01*
X86000852Y-63150361D01*
X85946431Y-62933702D01*
X85857354Y-62728840D01*
X85817906Y-62667862D01*
X85738822Y-62545617D01*
X85738820Y-62545614D01*
X85736014Y-62541277D01*
X85585670Y-62376051D01*
X85581619Y-62372852D01*
X85581615Y-62372848D01*
X85414414Y-62240800D01*
X85414410Y-62240798D01*
X85410359Y-62237598D01*
X85369053Y-62214796D01*
X85319084Y-62164364D01*
X85304312Y-62094921D01*
X85329428Y-62028516D01*
X85356780Y-62001909D01*
X85403773Y-61968389D01*
X85535860Y-61874173D01*
X85694096Y-61716489D01*
X85753594Y-61633689D01*
X85821435Y-61539277D01*
X85824453Y-61535077D01*
X85923430Y-61334811D01*
X85988370Y-61121069D01*
X86017529Y-60899590D01*
X86019156Y-60833000D01*
X86000852Y-60610361D01*
X85946431Y-60393702D01*
X85857354Y-60188840D01*
X85736014Y-60001277D01*
X85585670Y-59836051D01*
X85581619Y-59832852D01*
X85581615Y-59832848D01*
X85414414Y-59700800D01*
X85414410Y-59700798D01*
X85410359Y-59697598D01*
X85369053Y-59674796D01*
X85319084Y-59624364D01*
X85304312Y-59554921D01*
X85329428Y-59488516D01*
X85356780Y-59461909D01*
X85400603Y-59430650D01*
X85535860Y-59334173D01*
X85694096Y-59176489D01*
X85753594Y-59093689D01*
X85821435Y-58999277D01*
X85824453Y-58995077D01*
X85923430Y-58794811D01*
X85988370Y-58581069D01*
X86017529Y-58359590D01*
X86019156Y-58293000D01*
X86000852Y-58070361D01*
X85946431Y-57853702D01*
X85857354Y-57648840D01*
X85736014Y-57461277D01*
X85585670Y-57296051D01*
X85581619Y-57292852D01*
X85581615Y-57292848D01*
X85414414Y-57160800D01*
X85414410Y-57160798D01*
X85410359Y-57157598D01*
X85369053Y-57134796D01*
X85319084Y-57084364D01*
X85304312Y-57014921D01*
X85329428Y-56948516D01*
X85356780Y-56921909D01*
X85400603Y-56890650D01*
X85535860Y-56794173D01*
X85694096Y-56636489D01*
X85716503Y-56605307D01*
X85821435Y-56459277D01*
X85824453Y-56455077D01*
X85844292Y-56414937D01*
X85921136Y-56259453D01*
X85921137Y-56259451D01*
X85923430Y-56254811D01*
X85988370Y-56041069D01*
X86017529Y-55819590D01*
X86019156Y-55753000D01*
X86000852Y-55530361D01*
X85946431Y-55313702D01*
X85857354Y-55108840D01*
X85736014Y-54921277D01*
X85585670Y-54756051D01*
X85581619Y-54752852D01*
X85581615Y-54752848D01*
X85414414Y-54620800D01*
X85414410Y-54620798D01*
X85410359Y-54617598D01*
X85368569Y-54594529D01*
X85318598Y-54544097D01*
X85303826Y-54474654D01*
X85328942Y-54408248D01*
X85356294Y-54381641D01*
X85531328Y-54256792D01*
X85539200Y-54250139D01*
X85690052Y-54099812D01*
X85696730Y-54091965D01*
X85821003Y-53919020D01*
X85826313Y-53910183D01*
X85920670Y-53719267D01*
X85924469Y-53709672D01*
X85986377Y-53505910D01*
X85988555Y-53495837D01*
X85989986Y-53484962D01*
X85987775Y-53470778D01*
X85974617Y-53467000D01*
X83339225Y-53467000D01*
X83325694Y-53470973D01*
X83324257Y-53480966D01*
X83354565Y-53615446D01*
X83357645Y-53625275D01*
X83437770Y-53822603D01*
X83442413Y-53831794D01*
X83553694Y-54013388D01*
X83559777Y-54021699D01*
X83699213Y-54182667D01*
X83706580Y-54189883D01*
X83870434Y-54325916D01*
X83878881Y-54331831D01*
X83947969Y-54372203D01*
X83996693Y-54423842D01*
X84009764Y-54493625D01*
X83983033Y-54559396D01*
X83942584Y-54592752D01*
X83929607Y-54599507D01*
X83925474Y-54602610D01*
X83925471Y-54602612D01*
X83901247Y-54620800D01*
X83750965Y-54733635D01*
X83747393Y-54737373D01*
X83664084Y-54824551D01*
X83602560Y-54859981D01*
X83572990Y-54863500D01*
X73445633Y-54863500D01*
X73377512Y-54843498D01*
X73356538Y-54826595D01*
X71599405Y-53069462D01*
X71565379Y-53007150D01*
X71562500Y-52980367D01*
X71562500Y-52048633D01*
X71582502Y-51980512D01*
X71599405Y-51959538D01*
X78296454Y-45262489D01*
X78311482Y-45249652D01*
X78322470Y-45241669D01*
X78367249Y-45191937D01*
X78371790Y-45187153D01*
X78385937Y-45173006D01*
X78398537Y-45157446D01*
X78402825Y-45152425D01*
X78405951Y-45148954D01*
X78429946Y-45122305D01*
X78443170Y-45107619D01*
X78443173Y-45107615D01*
X78447585Y-45102715D01*
X78450881Y-45097005D01*
X78450884Y-45097002D01*
X78454375Y-45090955D01*
X78465568Y-45074670D01*
X78469950Y-45069258D01*
X78474107Y-45064125D01*
X78504477Y-45004520D01*
X78507624Y-44998724D01*
X78520458Y-44976495D01*
X78541075Y-44940785D01*
X78545270Y-44927875D01*
X78552833Y-44909616D01*
X78558994Y-44897524D01*
X78576309Y-44832906D01*
X78578182Y-44826582D01*
X78596813Y-44769240D01*
X78598855Y-44762956D01*
X78600272Y-44749470D01*
X78603876Y-44730023D01*
X78605680Y-44723293D01*
X78605680Y-44723292D01*
X78607389Y-44716915D01*
X78610890Y-44650113D01*
X78611407Y-44643539D01*
X78613156Y-44626895D01*
X78613156Y-44626891D01*
X78613500Y-44623620D01*
X78613500Y-44603593D01*
X78613673Y-44596999D01*
X78616829Y-44536782D01*
X78616829Y-44536778D01*
X78617174Y-44530190D01*
X78615051Y-44516785D01*
X78613500Y-44497075D01*
X78613500Y-40747266D01*
X78633502Y-40679145D01*
X78687158Y-40632652D01*
X78757432Y-40622548D01*
X78822012Y-40652042D01*
X78830121Y-40659724D01*
X78888456Y-40720131D01*
X79030846Y-40813309D01*
X79190342Y-40872625D01*
X79197320Y-40873556D01*
X79197324Y-40873557D01*
X79221858Y-40876830D01*
X79286735Y-40905665D01*
X79305154Y-40925016D01*
X79322013Y-40946987D01*
X79328563Y-40952013D01*
X79353921Y-40971471D01*
X79353928Y-40971477D01*
X79396033Y-41003785D01*
X79449125Y-41044524D01*
X79597150Y-41105838D01*
X79716115Y-41121500D01*
X79716120Y-41121500D01*
X79716129Y-41121501D01*
X79747812Y-41125672D01*
X79756000Y-41126750D01*
X79787693Y-41122578D01*
X79804136Y-41121500D01*
X83364954Y-41121500D01*
X83433075Y-41141502D01*
X83472387Y-41181665D01*
X83555987Y-41318088D01*
X83702250Y-41486938D01*
X83874126Y-41629632D01*
X83944595Y-41670811D01*
X83947445Y-41672476D01*
X83996169Y-41724114D01*
X84009240Y-41793897D01*
X83982509Y-41859669D01*
X83942055Y-41893027D01*
X83929607Y-41899507D01*
X83925474Y-41902610D01*
X83925471Y-41902612D01*
X83838589Y-41967845D01*
X83750965Y-42033635D01*
X83747393Y-42037373D01*
X83639427Y-42150353D01*
X83596629Y-42195138D01*
X83593715Y-42199410D01*
X83593714Y-42199411D01*
X83543277Y-42273349D01*
X83470743Y-42379680D01*
X83469945Y-42381400D01*
X83419589Y-42430088D01*
X83361074Y-42444500D01*
X81584239Y-42444500D01*
X81516118Y-42424498D01*
X81495144Y-42407595D01*
X81300214Y-42212665D01*
X81266188Y-42150353D01*
X81264095Y-42137618D01*
X81263116Y-42128896D01*
X81263115Y-42128893D01*
X81262330Y-42121892D01*
X81206367Y-41961190D01*
X81200382Y-41951611D01*
X81119925Y-41822853D01*
X81116192Y-41816879D01*
X81024072Y-41724114D01*
X81001249Y-41701131D01*
X81001245Y-41701128D01*
X80996285Y-41696133D01*
X80852608Y-41604952D01*
X80692300Y-41547869D01*
X80523329Y-41527721D01*
X80516326Y-41528457D01*
X80516325Y-41528457D01*
X80361101Y-41544771D01*
X80361097Y-41544772D01*
X80354093Y-41545508D01*
X80347422Y-41547779D01*
X80199674Y-41598076D01*
X80199671Y-41598077D01*
X80193004Y-41600347D01*
X80187006Y-41604037D01*
X80187004Y-41604038D01*
X80120535Y-41644930D01*
X80048067Y-41689513D01*
X80043036Y-41694440D01*
X80043033Y-41694442D01*
X80012733Y-41724114D01*
X79926486Y-41808573D01*
X79834305Y-41951611D01*
X79831896Y-41958231D01*
X79831895Y-41958232D01*
X79796292Y-42056051D01*
X79776104Y-42111516D01*
X79754776Y-42280343D01*
X79771382Y-42449699D01*
X79825095Y-42611167D01*
X79828742Y-42617189D01*
X79828743Y-42617191D01*
X79829669Y-42618720D01*
X79913247Y-42756723D01*
X80031456Y-42879131D01*
X80173846Y-42972309D01*
X80333342Y-43031625D01*
X80360441Y-43035241D01*
X80365771Y-43035952D01*
X80430648Y-43064788D01*
X80438201Y-43071750D01*
X80815685Y-43449234D01*
X80826552Y-43461625D01*
X80846013Y-43486987D01*
X80852563Y-43492013D01*
X80877921Y-43511471D01*
X80877937Y-43511485D01*
X80927305Y-43549366D01*
X80973124Y-43584524D01*
X81121149Y-43645838D01*
X81129336Y-43646916D01*
X81129337Y-43646916D01*
X81140542Y-43648391D01*
X81171738Y-43652498D01*
X81240115Y-43661500D01*
X81240118Y-43661500D01*
X81240126Y-43661501D01*
X81271811Y-43665672D01*
X81280000Y-43666750D01*
X81288189Y-43665672D01*
X81311693Y-43662578D01*
X81328138Y-43661500D01*
X83364954Y-43661500D01*
X83433075Y-43681502D01*
X83472387Y-43721665D01*
X83555987Y-43858088D01*
X83702250Y-44026938D01*
X83874126Y-44169632D01*
X83940738Y-44208557D01*
X83947445Y-44212476D01*
X83996169Y-44264114D01*
X84009240Y-44333897D01*
X83982509Y-44399669D01*
X83942055Y-44433027D01*
X83929607Y-44439507D01*
X83925474Y-44442610D01*
X83925471Y-44442612D01*
X83755100Y-44570530D01*
X83750965Y-44573635D01*
X83596629Y-44735138D01*
X83593715Y-44739410D01*
X83593714Y-44739411D01*
X83586852Y-44749471D01*
X83470743Y-44919680D01*
X83431362Y-45004520D01*
X83389175Y-45095405D01*
X83376688Y-45122305D01*
X83316989Y-45337570D01*
X83293251Y-45559695D01*
X83293548Y-45564848D01*
X83293548Y-45564851D01*
X83299011Y-45659590D01*
X83306110Y-45782715D01*
X83307247Y-45787761D01*
X83307248Y-45787767D01*
X83324850Y-45865869D01*
X83355222Y-46000639D01*
X83439266Y-46207616D01*
X83555987Y-46398088D01*
X83702250Y-46566938D01*
X83874126Y-46709632D01*
X83944595Y-46750811D01*
X83947445Y-46752476D01*
X83996169Y-46804114D01*
X84009240Y-46873897D01*
X83982509Y-46939669D01*
X83942055Y-46973027D01*
X83929607Y-46979507D01*
X83925474Y-46982610D01*
X83925471Y-46982612D01*
X83769607Y-47099638D01*
X83750965Y-47113635D01*
X83596629Y-47275138D01*
X83470743Y-47459680D01*
X83376688Y-47662305D01*
X83316989Y-47877570D01*
X83293251Y-48099695D01*
X83293548Y-48104848D01*
X83293548Y-48104851D01*
X83301279Y-48238925D01*
X83306110Y-48322715D01*
X83307247Y-48327761D01*
X83307248Y-48327767D01*
X83327119Y-48415939D01*
X83355222Y-48540639D01*
X83439266Y-48747616D01*
X83441965Y-48752020D01*
X83543957Y-48918456D01*
X83555987Y-48938088D01*
X83702250Y-49106938D01*
X83874126Y-49249632D01*
X83944595Y-49290811D01*
X83947445Y-49292476D01*
X83996169Y-49344114D01*
X84009240Y-49413897D01*
X83982509Y-49479669D01*
X83942055Y-49513027D01*
X83929607Y-49519507D01*
X83925474Y-49522610D01*
X83925471Y-49522612D01*
X83846467Y-49581930D01*
X83750965Y-49653635D01*
X83596629Y-49815138D01*
X83593715Y-49819410D01*
X83593714Y-49819411D01*
X83562270Y-49865506D01*
X83470743Y-49999680D01*
X83446343Y-50052246D01*
X83382544Y-50189690D01*
X83376688Y-50202305D01*
X83316989Y-50417570D01*
X83293251Y-50639695D01*
X83293548Y-50644848D01*
X83293548Y-50644851D01*
X83299792Y-50753145D01*
X83306110Y-50862715D01*
X83307247Y-50867761D01*
X83307248Y-50867767D01*
X83327119Y-50955939D01*
X83355222Y-51080639D01*
X83439266Y-51287616D01*
X83555987Y-51478088D01*
X83702250Y-51646938D01*
X83874126Y-51789632D01*
X83947955Y-51832774D01*
X83996679Y-51884412D01*
X84009750Y-51954195D01*
X83983019Y-52019967D01*
X83942562Y-52053327D01*
X83934457Y-52057546D01*
X83925738Y-52063036D01*
X83755433Y-52190905D01*
X83747726Y-52197748D01*
X83600590Y-52351717D01*
X83594104Y-52359727D01*
X83474098Y-52535649D01*
X83469000Y-52544623D01*
X83379338Y-52737783D01*
X83375775Y-52747470D01*
X83320389Y-52947183D01*
X83321912Y-52955607D01*
X83334292Y-52959000D01*
X85974344Y-52959000D01*
X85987875Y-52955027D01*
X85989180Y-52945947D01*
X85947214Y-52778875D01*
X85943894Y-52769124D01*
X85858972Y-52573814D01*
X85854105Y-52564739D01*
X85738426Y-52385926D01*
X85732136Y-52377757D01*
X85588806Y-52220240D01*
X85581273Y-52213215D01*
X85414139Y-52081222D01*
X85405556Y-52075520D01*
X85368602Y-52055120D01*
X85318631Y-52004687D01*
X85303859Y-51935245D01*
X85328975Y-51868839D01*
X85356327Y-51842232D01*
X85379797Y-51825491D01*
X85535860Y-51714173D01*
X85694096Y-51556489D01*
X85709890Y-51534510D01*
X85821435Y-51379277D01*
X85824453Y-51375077D01*
X85832858Y-51358072D01*
X85921136Y-51179453D01*
X85921137Y-51179451D01*
X85923430Y-51174811D01*
X85988370Y-50961069D01*
X86017529Y-50739590D01*
X86018025Y-50719309D01*
X86019074Y-50676365D01*
X86019074Y-50676361D01*
X86019156Y-50673000D01*
X86016418Y-50639695D01*
X87943251Y-50639695D01*
X87943548Y-50644848D01*
X87943548Y-50644851D01*
X87949792Y-50753145D01*
X87956110Y-50862715D01*
X87957247Y-50867761D01*
X87957248Y-50867767D01*
X87977119Y-50955939D01*
X88005222Y-51080639D01*
X88089266Y-51287616D01*
X88205987Y-51478088D01*
X88352250Y-51646938D01*
X88524126Y-51789632D01*
X88597955Y-51832774D01*
X88646679Y-51884412D01*
X88659750Y-51954195D01*
X88633019Y-52019967D01*
X88592562Y-52053327D01*
X88584457Y-52057546D01*
X88575738Y-52063036D01*
X88405433Y-52190905D01*
X88397726Y-52197748D01*
X88250590Y-52351717D01*
X88244104Y-52359727D01*
X88124098Y-52535649D01*
X88119000Y-52544623D01*
X88029338Y-52737783D01*
X88025775Y-52747470D01*
X87970389Y-52947183D01*
X87971912Y-52955607D01*
X87984292Y-52959000D01*
X90624344Y-52959000D01*
X90637875Y-52955027D01*
X90639180Y-52945947D01*
X90597214Y-52778875D01*
X90593894Y-52769124D01*
X90508972Y-52573814D01*
X90504105Y-52564739D01*
X90388426Y-52385926D01*
X90382136Y-52377757D01*
X90238806Y-52220240D01*
X90231273Y-52213215D01*
X90064139Y-52081222D01*
X90055556Y-52075520D01*
X90018602Y-52055120D01*
X89968631Y-52004687D01*
X89953859Y-51935245D01*
X89978975Y-51868839D01*
X90006327Y-51842232D01*
X90029797Y-51825491D01*
X90185860Y-51714173D01*
X90344096Y-51556489D01*
X90359890Y-51534510D01*
X90471435Y-51379277D01*
X90474453Y-51375077D01*
X90482858Y-51358072D01*
X90571136Y-51179453D01*
X90571137Y-51179451D01*
X90573430Y-51174811D01*
X90638370Y-50961069D01*
X90667529Y-50739590D01*
X90668025Y-50719309D01*
X90669074Y-50676365D01*
X90669074Y-50676361D01*
X90669156Y-50673000D01*
X90650852Y-50450361D01*
X90596431Y-50233702D01*
X90507354Y-50028840D01*
X90467906Y-49967862D01*
X90388822Y-49845617D01*
X90388820Y-49845614D01*
X90386014Y-49841277D01*
X90235670Y-49676051D01*
X90231619Y-49672852D01*
X90231615Y-49672848D01*
X90064414Y-49540800D01*
X90064410Y-49540798D01*
X90060359Y-49537598D01*
X90019053Y-49514796D01*
X89969084Y-49464364D01*
X89954312Y-49394921D01*
X89979428Y-49328516D01*
X90006780Y-49301909D01*
X90050603Y-49270650D01*
X90185860Y-49174173D01*
X90344096Y-49016489D01*
X90403594Y-48933689D01*
X90471435Y-48839277D01*
X90474453Y-48835077D01*
X90550659Y-48680886D01*
X90571136Y-48639453D01*
X90571137Y-48639451D01*
X90573430Y-48634811D01*
X90638370Y-48421069D01*
X90667529Y-48199590D01*
X90669156Y-48133000D01*
X90650852Y-47910361D01*
X90596431Y-47693702D01*
X90507354Y-47488840D01*
X90431249Y-47371199D01*
X90388822Y-47305617D01*
X90388820Y-47305614D01*
X90386014Y-47301277D01*
X90235670Y-47136051D01*
X90231619Y-47132852D01*
X90231615Y-47132848D01*
X90064414Y-47000800D01*
X90064410Y-47000798D01*
X90060359Y-46997598D01*
X90019053Y-46974796D01*
X89969084Y-46924364D01*
X89954312Y-46854921D01*
X89979428Y-46788516D01*
X90006780Y-46761909D01*
X90050603Y-46730650D01*
X90185860Y-46634173D01*
X90193695Y-46626366D01*
X90340435Y-46480137D01*
X90344096Y-46476489D01*
X90370394Y-46439892D01*
X90471435Y-46299277D01*
X90474453Y-46295077D01*
X90485259Y-46273214D01*
X90571136Y-46099453D01*
X90571137Y-46099451D01*
X90573430Y-46094811D01*
X90625923Y-45922038D01*
X90636865Y-45886023D01*
X90636865Y-45886021D01*
X90638370Y-45881069D01*
X90667529Y-45659590D01*
X90669156Y-45593000D01*
X90650852Y-45370361D01*
X90596431Y-45153702D01*
X90507354Y-44948840D01*
X90428262Y-44826582D01*
X90388822Y-44765617D01*
X90388820Y-44765614D01*
X90386014Y-44761277D01*
X90235670Y-44596051D01*
X90231619Y-44592852D01*
X90231615Y-44592848D01*
X90064414Y-44460800D01*
X90064410Y-44460798D01*
X90060359Y-44457598D01*
X90019053Y-44434796D01*
X89969084Y-44384364D01*
X89954312Y-44314921D01*
X89979428Y-44248516D01*
X90006780Y-44221909D01*
X90050603Y-44190650D01*
X90185860Y-44094173D01*
X90344096Y-43936489D01*
X90403594Y-43853689D01*
X90471435Y-43759277D01*
X90474453Y-43755077D01*
X90518640Y-43665672D01*
X90571136Y-43559453D01*
X90571137Y-43559451D01*
X90573430Y-43554811D01*
X90616538Y-43412925D01*
X90636865Y-43346023D01*
X90636865Y-43346021D01*
X90638370Y-43341069D01*
X90667529Y-43119590D01*
X90669156Y-43053000D01*
X90650852Y-42830361D01*
X90596431Y-42613702D01*
X90507354Y-42408840D01*
X90419701Y-42273349D01*
X90388822Y-42225617D01*
X90388820Y-42225614D01*
X90386014Y-42221277D01*
X90235670Y-42056051D01*
X90231619Y-42052852D01*
X90231615Y-42052848D01*
X90064414Y-41920800D01*
X90064410Y-41920798D01*
X90060359Y-41917598D01*
X90019053Y-41894796D01*
X89969084Y-41844364D01*
X89954312Y-41774921D01*
X89979428Y-41708516D01*
X90006780Y-41681909D01*
X90050603Y-41650650D01*
X90185860Y-41554173D01*
X90192277Y-41547779D01*
X90340435Y-41400137D01*
X90344096Y-41396489D01*
X90403594Y-41313689D01*
X90471435Y-41219277D01*
X90474453Y-41215077D01*
X90518640Y-41125672D01*
X90571136Y-41019453D01*
X90571137Y-41019451D01*
X90573430Y-41014811D01*
X90638370Y-40801069D01*
X90667529Y-40579590D01*
X90669156Y-40513000D01*
X90650852Y-40290361D01*
X90596431Y-40073702D01*
X90507354Y-39868840D01*
X90386014Y-39681277D01*
X90235670Y-39516051D01*
X90231619Y-39512852D01*
X90231615Y-39512848D01*
X90064414Y-39380800D01*
X90064410Y-39380798D01*
X90060359Y-39377598D01*
X90019053Y-39354796D01*
X89969084Y-39304364D01*
X89954312Y-39234921D01*
X89979428Y-39168516D01*
X90006780Y-39141909D01*
X90050603Y-39110650D01*
X90185860Y-39014173D01*
X90344096Y-38856489D01*
X90374104Y-38814729D01*
X90471435Y-38679277D01*
X90474453Y-38675077D01*
X90479951Y-38663954D01*
X90571136Y-38479453D01*
X90571137Y-38479451D01*
X90573430Y-38474811D01*
X90638370Y-38261069D01*
X90667529Y-38039590D01*
X90669156Y-37973000D01*
X90650852Y-37750361D01*
X90596431Y-37533702D01*
X90507354Y-37328840D01*
X90426359Y-37203641D01*
X90388822Y-37145617D01*
X90388820Y-37145614D01*
X90386014Y-37141277D01*
X90235670Y-36976051D01*
X90231619Y-36972852D01*
X90231615Y-36972848D01*
X90064414Y-36840800D01*
X90064410Y-36840798D01*
X90060359Y-36837598D01*
X90019053Y-36814796D01*
X89969084Y-36764364D01*
X89954312Y-36694921D01*
X89979428Y-36628516D01*
X90006780Y-36601909D01*
X90067849Y-36558349D01*
X90185860Y-36474173D01*
X90195142Y-36464924D01*
X90340435Y-36320137D01*
X90344096Y-36316489D01*
X90349682Y-36308716D01*
X90471435Y-36139277D01*
X90474453Y-36135077D01*
X90478266Y-36127363D01*
X90571136Y-35939453D01*
X90571137Y-35939451D01*
X90573430Y-35934811D01*
X90618106Y-35787764D01*
X90636865Y-35726023D01*
X90636865Y-35726021D01*
X90638370Y-35721069D01*
X90667529Y-35499590D01*
X90669156Y-35433000D01*
X90650852Y-35210361D01*
X90596431Y-34993702D01*
X90507354Y-34788840D01*
X90419167Y-34652523D01*
X90388822Y-34605617D01*
X90388820Y-34605614D01*
X90386014Y-34601277D01*
X90382540Y-34597459D01*
X90382533Y-34597450D01*
X90238435Y-34439088D01*
X90207383Y-34375242D01*
X90215779Y-34304744D01*
X90260956Y-34249976D01*
X90287400Y-34236307D01*
X90394052Y-34196325D01*
X90409649Y-34187786D01*
X90511724Y-34111285D01*
X90524285Y-34098724D01*
X90600786Y-33996649D01*
X90609324Y-33981054D01*
X90654478Y-33860606D01*
X90658105Y-33845351D01*
X90663631Y-33794486D01*
X90664000Y-33787672D01*
X90664000Y-33165115D01*
X90659525Y-33149876D01*
X90658135Y-33148671D01*
X90650452Y-33147000D01*
X87966116Y-33147000D01*
X87950877Y-33151475D01*
X87949672Y-33152865D01*
X87948001Y-33160548D01*
X87948001Y-33787669D01*
X87948371Y-33794490D01*
X87953895Y-33845352D01*
X87957521Y-33860604D01*
X88002676Y-33981054D01*
X88011214Y-33996649D01*
X88087715Y-34098724D01*
X88100276Y-34111285D01*
X88202351Y-34187786D01*
X88217946Y-34196324D01*
X88326827Y-34237142D01*
X88383591Y-34279784D01*
X88408291Y-34346345D01*
X88393083Y-34415694D01*
X88373691Y-34442175D01*
X88280374Y-34539826D01*
X88246629Y-34575138D01*
X88243715Y-34579410D01*
X88243714Y-34579411D01*
X88175168Y-34679896D01*
X88120743Y-34759680D01*
X88026688Y-34962305D01*
X87966989Y-35177570D01*
X87943251Y-35399695D01*
X87943548Y-35404848D01*
X87943548Y-35404851D01*
X87949011Y-35499590D01*
X87956110Y-35622715D01*
X87957247Y-35627761D01*
X87957248Y-35627767D01*
X87977119Y-35715939D01*
X88005222Y-35840639D01*
X88089266Y-36047616D01*
X88130135Y-36114309D01*
X88201454Y-36230690D01*
X88205987Y-36238088D01*
X88352250Y-36406938D01*
X88524126Y-36549632D01*
X88563012Y-36572355D01*
X88597445Y-36592476D01*
X88646169Y-36644114D01*
X88659240Y-36713897D01*
X88632509Y-36779669D01*
X88592055Y-36813027D01*
X88579607Y-36819507D01*
X88575474Y-36822610D01*
X88575471Y-36822612D01*
X88419607Y-36939638D01*
X88400965Y-36953635D01*
X88397393Y-36957373D01*
X88256437Y-37104875D01*
X88246629Y-37115138D01*
X88120743Y-37299680D01*
X88105003Y-37333590D01*
X88068321Y-37412615D01*
X88026688Y-37502305D01*
X87966989Y-37717570D01*
X87943251Y-37939695D01*
X87943548Y-37944848D01*
X87943548Y-37944851D01*
X87949011Y-38039590D01*
X87956110Y-38162715D01*
X87957247Y-38167761D01*
X87957248Y-38167767D01*
X87977119Y-38255939D01*
X88005222Y-38380639D01*
X88089266Y-38587616D01*
X88091965Y-38592020D01*
X88191146Y-38753869D01*
X88205987Y-38778088D01*
X88352250Y-38946938D01*
X88524126Y-39089632D01*
X88594595Y-39130811D01*
X88597445Y-39132476D01*
X88646169Y-39184114D01*
X88659240Y-39253897D01*
X88632509Y-39319669D01*
X88592055Y-39353027D01*
X88579607Y-39359507D01*
X88575474Y-39362610D01*
X88575471Y-39362612D01*
X88459442Y-39449729D01*
X88400965Y-39493635D01*
X88397393Y-39497373D01*
X88293283Y-39606318D01*
X88246629Y-39655138D01*
X88243715Y-39659410D01*
X88243714Y-39659411D01*
X88228798Y-39681277D01*
X88120743Y-39839680D01*
X88090655Y-39904500D01*
X88050171Y-39991716D01*
X88026688Y-40042305D01*
X87966989Y-40257570D01*
X87943251Y-40479695D01*
X87943548Y-40484848D01*
X87943548Y-40484851D01*
X87949011Y-40579590D01*
X87956110Y-40702715D01*
X87957247Y-40707761D01*
X87957248Y-40707767D01*
X87960904Y-40723989D01*
X88005222Y-40920639D01*
X88043461Y-41014811D01*
X88086783Y-41121500D01*
X88089266Y-41127616D01*
X88122387Y-41181665D01*
X88203291Y-41313688D01*
X88205987Y-41318088D01*
X88352250Y-41486938D01*
X88524126Y-41629632D01*
X88594595Y-41670811D01*
X88597445Y-41672476D01*
X88646169Y-41724114D01*
X88659240Y-41793897D01*
X88632509Y-41859669D01*
X88592055Y-41893027D01*
X88579607Y-41899507D01*
X88575474Y-41902610D01*
X88575471Y-41902612D01*
X88488589Y-41967845D01*
X88400965Y-42033635D01*
X88397393Y-42037373D01*
X88289427Y-42150353D01*
X88246629Y-42195138D01*
X88243715Y-42199410D01*
X88243714Y-42199411D01*
X88193277Y-42273349D01*
X88120743Y-42379680D01*
X88026688Y-42582305D01*
X87966989Y-42797570D01*
X87943251Y-43019695D01*
X87943548Y-43024848D01*
X87943548Y-43024851D01*
X87949011Y-43119590D01*
X87956110Y-43242715D01*
X87957247Y-43247761D01*
X87957248Y-43247767D01*
X87964584Y-43280316D01*
X88005222Y-43460639D01*
X88043461Y-43554811D01*
X88086783Y-43661500D01*
X88089266Y-43667616D01*
X88122387Y-43721665D01*
X88203291Y-43853688D01*
X88205987Y-43858088D01*
X88352250Y-44026938D01*
X88524126Y-44169632D01*
X88590738Y-44208557D01*
X88597445Y-44212476D01*
X88646169Y-44264114D01*
X88659240Y-44333897D01*
X88632509Y-44399669D01*
X88592055Y-44433027D01*
X88579607Y-44439507D01*
X88575474Y-44442610D01*
X88575471Y-44442612D01*
X88405100Y-44570530D01*
X88400965Y-44573635D01*
X88246629Y-44735138D01*
X88243715Y-44739410D01*
X88243714Y-44739411D01*
X88236852Y-44749471D01*
X88120743Y-44919680D01*
X88081362Y-45004520D01*
X88039175Y-45095405D01*
X88026688Y-45122305D01*
X87966989Y-45337570D01*
X87943251Y-45559695D01*
X87943548Y-45564848D01*
X87943548Y-45564851D01*
X87949011Y-45659590D01*
X87956110Y-45782715D01*
X87957247Y-45787761D01*
X87957248Y-45787767D01*
X87974850Y-45865869D01*
X88005222Y-46000639D01*
X88089266Y-46207616D01*
X88205987Y-46398088D01*
X88352250Y-46566938D01*
X88524126Y-46709632D01*
X88594595Y-46750811D01*
X88597445Y-46752476D01*
X88646169Y-46804114D01*
X88659240Y-46873897D01*
X88632509Y-46939669D01*
X88592055Y-46973027D01*
X88579607Y-46979507D01*
X88575474Y-46982610D01*
X88575471Y-46982612D01*
X88419607Y-47099638D01*
X88400965Y-47113635D01*
X88246629Y-47275138D01*
X88120743Y-47459680D01*
X88026688Y-47662305D01*
X87966989Y-47877570D01*
X87943251Y-48099695D01*
X87943548Y-48104848D01*
X87943548Y-48104851D01*
X87951279Y-48238925D01*
X87956110Y-48322715D01*
X87957247Y-48327761D01*
X87957248Y-48327767D01*
X87977119Y-48415939D01*
X88005222Y-48540639D01*
X88089266Y-48747616D01*
X88091965Y-48752020D01*
X88193957Y-48918456D01*
X88205987Y-48938088D01*
X88352250Y-49106938D01*
X88524126Y-49249632D01*
X88594595Y-49290811D01*
X88597445Y-49292476D01*
X88646169Y-49344114D01*
X88659240Y-49413897D01*
X88632509Y-49479669D01*
X88592055Y-49513027D01*
X88579607Y-49519507D01*
X88575474Y-49522610D01*
X88575471Y-49522612D01*
X88496467Y-49581930D01*
X88400965Y-49653635D01*
X88246629Y-49815138D01*
X88243715Y-49819410D01*
X88243714Y-49819411D01*
X88212270Y-49865506D01*
X88120743Y-49999680D01*
X88096343Y-50052246D01*
X88032544Y-50189690D01*
X88026688Y-50202305D01*
X87966989Y-50417570D01*
X87943251Y-50639695D01*
X86016418Y-50639695D01*
X86000852Y-50450361D01*
X85946431Y-50233702D01*
X85857354Y-50028840D01*
X85817906Y-49967862D01*
X85738822Y-49845617D01*
X85738820Y-49845614D01*
X85736014Y-49841277D01*
X85585670Y-49676051D01*
X85581619Y-49672852D01*
X85581615Y-49672848D01*
X85414414Y-49540800D01*
X85414410Y-49540798D01*
X85410359Y-49537598D01*
X85369053Y-49514796D01*
X85319084Y-49464364D01*
X85304312Y-49394921D01*
X85329428Y-49328516D01*
X85356780Y-49301909D01*
X85400603Y-49270650D01*
X85535860Y-49174173D01*
X85694096Y-49016489D01*
X85753594Y-48933689D01*
X85821435Y-48839277D01*
X85824453Y-48835077D01*
X85900659Y-48680886D01*
X85921136Y-48639453D01*
X85921137Y-48639451D01*
X85923430Y-48634811D01*
X85988370Y-48421069D01*
X86017529Y-48199590D01*
X86019156Y-48133000D01*
X86000852Y-47910361D01*
X85946431Y-47693702D01*
X85857354Y-47488840D01*
X85781249Y-47371199D01*
X85738822Y-47305617D01*
X85738820Y-47305614D01*
X85736014Y-47301277D01*
X85585670Y-47136051D01*
X85581619Y-47132852D01*
X85581615Y-47132848D01*
X85414414Y-47000800D01*
X85414410Y-47000798D01*
X85410359Y-46997598D01*
X85369053Y-46974796D01*
X85319084Y-46924364D01*
X85304312Y-46854921D01*
X85329428Y-46788516D01*
X85356780Y-46761909D01*
X85400603Y-46730650D01*
X85535860Y-46634173D01*
X85543695Y-46626366D01*
X85690435Y-46480137D01*
X85694096Y-46476489D01*
X85720394Y-46439892D01*
X85821435Y-46299277D01*
X85824453Y-46295077D01*
X85835259Y-46273214D01*
X85921136Y-46099453D01*
X85921137Y-46099451D01*
X85923430Y-46094811D01*
X85975923Y-45922038D01*
X85986865Y-45886023D01*
X85986865Y-45886021D01*
X85988370Y-45881069D01*
X86017529Y-45659590D01*
X86019156Y-45593000D01*
X86000852Y-45370361D01*
X85946431Y-45153702D01*
X85857354Y-44948840D01*
X85778262Y-44826582D01*
X85738822Y-44765617D01*
X85738820Y-44765614D01*
X85736014Y-44761277D01*
X85585670Y-44596051D01*
X85581619Y-44592852D01*
X85581615Y-44592848D01*
X85414414Y-44460800D01*
X85414410Y-44460798D01*
X85410359Y-44457598D01*
X85369053Y-44434796D01*
X85319084Y-44384364D01*
X85304312Y-44314921D01*
X85329428Y-44248516D01*
X85356780Y-44221909D01*
X85400603Y-44190650D01*
X85535860Y-44094173D01*
X85694096Y-43936489D01*
X85753594Y-43853689D01*
X85821435Y-43759277D01*
X85824453Y-43755077D01*
X85868640Y-43665672D01*
X85921136Y-43559453D01*
X85921137Y-43559451D01*
X85923430Y-43554811D01*
X85966538Y-43412925D01*
X85986865Y-43346023D01*
X85986865Y-43346021D01*
X85988370Y-43341069D01*
X86017529Y-43119590D01*
X86019156Y-43053000D01*
X86000852Y-42830361D01*
X85946431Y-42613702D01*
X85857354Y-42408840D01*
X85769701Y-42273349D01*
X85738822Y-42225617D01*
X85738820Y-42225614D01*
X85736014Y-42221277D01*
X85585670Y-42056051D01*
X85581619Y-42052852D01*
X85581615Y-42052848D01*
X85414414Y-41920800D01*
X85414410Y-41920798D01*
X85410359Y-41917598D01*
X85369053Y-41894796D01*
X85319084Y-41844364D01*
X85304312Y-41774921D01*
X85329428Y-41708516D01*
X85356780Y-41681909D01*
X85400603Y-41650650D01*
X85535860Y-41554173D01*
X85542277Y-41547779D01*
X85690435Y-41400137D01*
X85694096Y-41396489D01*
X85753594Y-41313689D01*
X85821435Y-41219277D01*
X85824453Y-41215077D01*
X85868640Y-41125672D01*
X85921136Y-41019453D01*
X85921137Y-41019451D01*
X85923430Y-41014811D01*
X85988370Y-40801069D01*
X86017529Y-40579590D01*
X86019156Y-40513000D01*
X86000852Y-40290361D01*
X85946431Y-40073702D01*
X85857354Y-39868840D01*
X85736014Y-39681277D01*
X85585670Y-39516051D01*
X85581619Y-39512852D01*
X85581615Y-39512848D01*
X85414414Y-39380800D01*
X85414410Y-39380798D01*
X85410359Y-39377598D01*
X85369053Y-39354796D01*
X85319084Y-39304364D01*
X85304312Y-39234921D01*
X85329428Y-39168516D01*
X85356780Y-39141909D01*
X85400603Y-39110650D01*
X85535860Y-39014173D01*
X85694096Y-38856489D01*
X85724104Y-38814729D01*
X85821435Y-38679277D01*
X85824453Y-38675077D01*
X85829951Y-38663954D01*
X85921136Y-38479453D01*
X85921137Y-38479451D01*
X85923430Y-38474811D01*
X85988370Y-38261069D01*
X86017529Y-38039590D01*
X86019156Y-37973000D01*
X86000852Y-37750361D01*
X85946431Y-37533702D01*
X85857354Y-37328840D01*
X85776359Y-37203641D01*
X85738822Y-37145617D01*
X85738820Y-37145614D01*
X85736014Y-37141277D01*
X85585670Y-36976051D01*
X85581619Y-36972852D01*
X85581615Y-36972848D01*
X85414414Y-36840800D01*
X85414410Y-36840798D01*
X85410359Y-36837598D01*
X85369053Y-36814796D01*
X85319084Y-36764364D01*
X85304312Y-36694921D01*
X85329428Y-36628516D01*
X85356780Y-36601909D01*
X85417849Y-36558349D01*
X85535860Y-36474173D01*
X85545142Y-36464924D01*
X85690435Y-36320137D01*
X85694096Y-36316489D01*
X85699682Y-36308716D01*
X85821435Y-36139277D01*
X85824453Y-36135077D01*
X85828266Y-36127363D01*
X85921136Y-35939453D01*
X85921137Y-35939451D01*
X85923430Y-35934811D01*
X85968106Y-35787764D01*
X85986865Y-35726023D01*
X85986865Y-35726021D01*
X85988370Y-35721069D01*
X86017529Y-35499590D01*
X86019156Y-35433000D01*
X86000852Y-35210361D01*
X85946431Y-34993702D01*
X85857354Y-34788840D01*
X85769167Y-34652523D01*
X85738822Y-34605617D01*
X85738820Y-34605614D01*
X85736014Y-34601277D01*
X85732540Y-34597459D01*
X85732533Y-34597450D01*
X85588435Y-34439088D01*
X85557383Y-34375242D01*
X85565779Y-34304744D01*
X85610956Y-34249976D01*
X85637400Y-34236307D01*
X85744052Y-34196325D01*
X85759649Y-34187786D01*
X85861724Y-34111285D01*
X85874285Y-34098724D01*
X85950786Y-33996649D01*
X85959324Y-33981054D01*
X86004478Y-33860606D01*
X86008105Y-33845351D01*
X86013631Y-33794486D01*
X86014000Y-33787672D01*
X86014000Y-33165115D01*
X86009525Y-33149876D01*
X86008135Y-33148671D01*
X86000452Y-33147000D01*
X83316116Y-33147000D01*
X83300877Y-33151475D01*
X83299672Y-33152865D01*
X83298001Y-33160548D01*
X83298001Y-33787669D01*
X83298371Y-33794490D01*
X83303895Y-33845352D01*
X83307521Y-33860604D01*
X83352676Y-33981054D01*
X83361214Y-33996649D01*
X83437715Y-34098724D01*
X83450276Y-34111285D01*
X83552351Y-34187786D01*
X83567946Y-34196324D01*
X83676827Y-34237142D01*
X83733591Y-34279784D01*
X83758291Y-34346345D01*
X83743083Y-34415694D01*
X83723691Y-34442175D01*
X83715682Y-34450556D01*
X83681573Y-34486250D01*
X83664084Y-34504551D01*
X83602560Y-34539981D01*
X83572990Y-34543500D01*
X79962925Y-34543500D01*
X79943214Y-34541949D01*
X79936327Y-34540858D01*
X79936325Y-34540858D01*
X79929810Y-34539826D01*
X79923223Y-34540171D01*
X79923218Y-34540171D01*
X79863008Y-34543327D01*
X79856414Y-34543500D01*
X79836380Y-34543500D01*
X79833106Y-34543844D01*
X79833107Y-34543844D01*
X79816454Y-34545594D01*
X79809880Y-34546111D01*
X79749679Y-34549266D01*
X79749675Y-34549267D01*
X79743085Y-34549612D01*
X79736710Y-34551320D01*
X79736705Y-34551321D01*
X79729980Y-34553123D01*
X79710537Y-34556727D01*
X79697044Y-34558145D01*
X79633386Y-34578828D01*
X79627138Y-34580680D01*
X79562476Y-34598006D01*
X79550384Y-34604167D01*
X79532125Y-34611730D01*
X79519215Y-34615925D01*
X79467025Y-34646057D01*
X79461276Y-34649376D01*
X79455480Y-34652523D01*
X79395875Y-34682893D01*
X79385330Y-34691432D01*
X79369045Y-34702625D01*
X79362998Y-34706116D01*
X79362995Y-34706119D01*
X79357285Y-34709415D01*
X79352385Y-34713827D01*
X79352381Y-34713830D01*
X79307575Y-34754175D01*
X79302554Y-34758463D01*
X79286994Y-34771063D01*
X79272847Y-34785210D01*
X79268063Y-34789751D01*
X79218331Y-34834530D01*
X79210348Y-34845518D01*
X79197511Y-34860546D01*
X77151546Y-36906511D01*
X77136518Y-36919348D01*
X77125530Y-36927331D01*
X77121117Y-36932233D01*
X77121115Y-36932234D01*
X77080751Y-36977063D01*
X77076210Y-36981847D01*
X77062063Y-36995994D01*
X77059986Y-36998559D01*
X77049463Y-37011554D01*
X77045181Y-37016568D01*
X77033945Y-37029047D01*
X77004830Y-37061381D01*
X77004827Y-37061385D01*
X77000415Y-37066285D01*
X76997119Y-37071995D01*
X76997116Y-37071998D01*
X76993625Y-37078045D01*
X76982432Y-37094330D01*
X76973893Y-37104875D01*
X76953134Y-37145617D01*
X76943523Y-37164480D01*
X76940376Y-37170276D01*
X76906925Y-37228215D01*
X76904884Y-37234497D01*
X76902731Y-37241123D01*
X76895167Y-37259384D01*
X76889006Y-37271476D01*
X76877566Y-37314170D01*
X76871691Y-37336094D01*
X76869818Y-37342418D01*
X76849145Y-37406044D01*
X76848455Y-37412611D01*
X76848454Y-37412615D01*
X76847728Y-37419529D01*
X76844125Y-37438972D01*
X76840611Y-37452085D01*
X76840265Y-37458682D01*
X76840265Y-37458684D01*
X76837110Y-37518887D01*
X76836593Y-37525461D01*
X76834500Y-37545380D01*
X76834500Y-37565407D01*
X76834327Y-37572001D01*
X76830826Y-37638810D01*
X76831858Y-37645325D01*
X76831858Y-37645327D01*
X76832949Y-37652214D01*
X76834500Y-37671925D01*
X76834500Y-44156367D01*
X76814498Y-44224488D01*
X76797595Y-44245462D01*
X70341462Y-50701595D01*
X70279150Y-50735621D01*
X70252367Y-50738500D01*
X65145888Y-50738500D01*
X65077767Y-50718498D01*
X65031274Y-50664842D01*
X65021114Y-50594965D01*
X65024450Y-50571224D01*
X65025000Y-50567313D01*
X65025298Y-50546000D01*
X65006330Y-50376892D01*
X64950367Y-50216190D01*
X64946636Y-50210219D01*
X64946634Y-50210215D01*
X64889646Y-50119015D01*
X64870500Y-50052246D01*
X64870500Y-48689144D01*
X64871578Y-48672698D01*
X64874673Y-48649188D01*
X64875751Y-48641000D01*
X64854838Y-48482150D01*
X64793524Y-48334124D01*
X64720478Y-48238929D01*
X64720474Y-48238925D01*
X64720471Y-48238921D01*
X64701016Y-48213566D01*
X64701013Y-48213563D01*
X64695987Y-48207013D01*
X64689432Y-48201983D01*
X64670621Y-48187548D01*
X64658230Y-48176681D01*
X64018852Y-47537303D01*
X63984826Y-47474991D01*
X63989891Y-47404176D01*
X64032438Y-47347340D01*
X64098958Y-47322529D01*
X64151867Y-47330110D01*
X64168211Y-47336188D01*
X64204342Y-47349625D01*
X64211323Y-47350556D01*
X64211325Y-47350557D01*
X64257426Y-47356708D01*
X64373015Y-47372131D01*
X64380026Y-47371493D01*
X64380030Y-47371493D01*
X64535461Y-47357347D01*
X64542482Y-47356708D01*
X64549184Y-47354530D01*
X64549186Y-47354530D01*
X64697623Y-47306300D01*
X64697626Y-47306299D01*
X64704322Y-47304123D01*
X64710373Y-47300516D01*
X64774530Y-47262271D01*
X64839047Y-47244500D01*
X66477281Y-47244500D01*
X66546274Y-47265068D01*
X66578948Y-47286450D01*
X66578952Y-47286452D01*
X66584846Y-47290309D01*
X66744342Y-47349625D01*
X66751323Y-47350556D01*
X66751325Y-47350557D01*
X66797426Y-47356708D01*
X66913015Y-47372131D01*
X66920026Y-47371493D01*
X66920030Y-47371493D01*
X67075461Y-47357347D01*
X67082482Y-47356708D01*
X67089184Y-47354530D01*
X67089186Y-47354530D01*
X67237623Y-47306300D01*
X67237626Y-47306299D01*
X67244322Y-47304123D01*
X67344341Y-47244500D01*
X67384434Y-47220600D01*
X67384437Y-47220598D01*
X67390489Y-47216990D01*
X67513720Y-47099638D01*
X67607890Y-46957902D01*
X67614816Y-46939669D01*
X67665817Y-46805409D01*
X67665818Y-46805406D01*
X67668318Y-46798824D01*
X67692000Y-46630313D01*
X67692298Y-46609000D01*
X67673330Y-46439892D01*
X67617367Y-46279190D01*
X67611382Y-46269611D01*
X67530925Y-46140853D01*
X67527192Y-46134879D01*
X67467239Y-46074506D01*
X67412249Y-46019131D01*
X67412245Y-46019128D01*
X67407285Y-46014133D01*
X67263608Y-45922952D01*
X67103300Y-45865869D01*
X66934329Y-45845721D01*
X66927326Y-45846457D01*
X66927325Y-45846457D01*
X66772101Y-45862771D01*
X66772097Y-45862772D01*
X66765093Y-45863508D01*
X66758422Y-45865779D01*
X66610674Y-45916076D01*
X66610671Y-45916077D01*
X66604004Y-45918347D01*
X66598006Y-45922037D01*
X66598004Y-45922038D01*
X66544721Y-45954818D01*
X66478699Y-45973500D01*
X64839865Y-45973500D01*
X64772350Y-45953885D01*
X64723608Y-45922952D01*
X64563300Y-45865869D01*
X64394329Y-45845721D01*
X64387326Y-45846457D01*
X64387325Y-45846457D01*
X64232101Y-45862771D01*
X64232097Y-45862772D01*
X64225093Y-45863508D01*
X64218422Y-45865779D01*
X64070674Y-45916076D01*
X64070671Y-45916077D01*
X64064004Y-45918347D01*
X64058006Y-45922037D01*
X64058004Y-45922038D01*
X64050379Y-45926729D01*
X63919067Y-46007513D01*
X63914036Y-46012440D01*
X63914033Y-46012442D01*
X63858277Y-46067043D01*
X63797486Y-46126573D01*
X63705305Y-46269611D01*
X63702896Y-46276231D01*
X63702895Y-46276232D01*
X63696036Y-46295077D01*
X63647104Y-46429516D01*
X63625776Y-46598343D01*
X63642382Y-46767699D01*
X63644606Y-46774384D01*
X63644606Y-46774385D01*
X63670104Y-46851035D01*
X63672627Y-46921987D01*
X63636390Y-46983040D01*
X63572898Y-47014809D01*
X63502309Y-47007208D01*
X63461451Y-46979902D01*
X59900315Y-43418766D01*
X59889448Y-43406375D01*
X59875013Y-43387563D01*
X59869987Y-43381013D01*
X59838075Y-43356526D01*
X59838072Y-43356523D01*
X59742876Y-43283476D01*
X59594851Y-43222162D01*
X59586664Y-43221084D01*
X59586663Y-43221084D01*
X59574630Y-43219500D01*
X59475885Y-43206500D01*
X59475876Y-43206499D01*
X59444190Y-43202328D01*
X59444189Y-43202328D01*
X59436000Y-43201250D01*
X59404307Y-43205422D01*
X59387864Y-43206500D01*
X51104239Y-43206500D01*
X51036118Y-43186498D01*
X51015144Y-43169595D01*
X50556405Y-42710856D01*
X50522379Y-42648544D01*
X50519500Y-42621761D01*
X50519500Y-37991657D01*
X61601000Y-37991657D01*
X61601301Y-37997805D01*
X61614812Y-38135603D01*
X61617195Y-38147638D01*
X61670767Y-38325076D01*
X61675441Y-38336416D01*
X61762460Y-38500077D01*
X61769249Y-38510294D01*
X61886397Y-38653933D01*
X61895041Y-38662637D01*
X62037856Y-38780784D01*
X62048027Y-38787644D01*
X62211076Y-38875804D01*
X62222381Y-38880556D01*
X62337692Y-38916250D01*
X62351795Y-38916456D01*
X62355000Y-38909701D01*
X62355000Y-38902924D01*
X62863000Y-38902924D01*
X62866973Y-38916455D01*
X62874768Y-38917575D01*
X62982521Y-38885862D01*
X62993889Y-38881269D01*
X63158154Y-38795393D01*
X63168415Y-38788679D01*
X63312873Y-38672532D01*
X63321632Y-38663954D01*
X63440778Y-38521961D01*
X63447708Y-38511841D01*
X63537002Y-38349415D01*
X63541834Y-38338142D01*
X63597880Y-38161462D01*
X63600430Y-38149468D01*
X63616607Y-38005239D01*
X63617000Y-37998215D01*
X63617000Y-37812026D01*
X63637002Y-37743905D01*
X63690658Y-37697412D01*
X63760932Y-37687308D01*
X63770486Y-37689061D01*
X63940494Y-37727062D01*
X63940501Y-37727063D01*
X63945543Y-37728190D01*
X63951088Y-37728500D01*
X64084244Y-37728500D01*
X64219037Y-37713857D01*
X64337190Y-37674094D01*
X64384204Y-37658272D01*
X64384206Y-37658271D01*
X64390675Y-37656094D01*
X64545905Y-37562823D01*
X64550862Y-37558135D01*
X64550865Y-37558133D01*
X64672527Y-37443082D01*
X64672529Y-37443080D01*
X64677485Y-37438393D01*
X64681317Y-37432755D01*
X64681320Y-37432751D01*
X64775442Y-37294255D01*
X64779277Y-37288612D01*
X64846530Y-37120466D01*
X64847645Y-37113732D01*
X64849480Y-37107160D01*
X64851766Y-37107798D01*
X64877859Y-37053755D01*
X64938393Y-37016659D01*
X65009373Y-37018178D01*
X65045110Y-37037660D01*
X65045456Y-37037131D01*
X65187846Y-37130309D01*
X65347342Y-37189625D01*
X65354323Y-37190556D01*
X65354325Y-37190557D01*
X65400426Y-37196708D01*
X65516015Y-37212131D01*
X65523026Y-37211493D01*
X65523030Y-37211493D01*
X65678461Y-37197347D01*
X65685482Y-37196708D01*
X65692184Y-37194530D01*
X65692186Y-37194530D01*
X65840623Y-37146300D01*
X65840626Y-37146299D01*
X65847322Y-37144123D01*
X65930851Y-37094330D01*
X65987434Y-37060600D01*
X65987437Y-37060598D01*
X65993489Y-37056990D01*
X66116720Y-36939638D01*
X66121640Y-36932234D01*
X66186173Y-36835104D01*
X66210890Y-36797902D01*
X66241866Y-36716357D01*
X66268817Y-36645409D01*
X66268818Y-36645406D01*
X66271318Y-36638824D01*
X66272243Y-36632239D01*
X66305107Y-36574625D01*
X67423797Y-35455935D01*
X67486109Y-35421909D01*
X67512892Y-35419030D01*
X68153046Y-35419030D01*
X68221167Y-35439032D01*
X68267660Y-35492688D01*
X68277764Y-35562962D01*
X68248270Y-35627542D01*
X68242141Y-35634125D01*
X68071997Y-35804269D01*
X68023507Y-35834452D01*
X67880674Y-35883076D01*
X67880671Y-35883077D01*
X67874004Y-35885347D01*
X67868006Y-35889037D01*
X67868004Y-35889038D01*
X67835994Y-35908731D01*
X67729067Y-35974513D01*
X67724036Y-35979440D01*
X67724033Y-35979442D01*
X67706257Y-35996850D01*
X67607486Y-36093573D01*
X67515305Y-36236611D01*
X67512896Y-36243231D01*
X67512895Y-36243232D01*
X67473450Y-36351607D01*
X67457104Y-36396516D01*
X67435776Y-36565343D01*
X67452382Y-36734699D01*
X67454606Y-36741384D01*
X67454606Y-36741385D01*
X67462250Y-36764364D01*
X67506095Y-36896167D01*
X67509742Y-36902189D01*
X67509743Y-36902191D01*
X67555087Y-36977063D01*
X67594247Y-37041723D01*
X67712456Y-37164131D01*
X67854846Y-37257309D01*
X68014342Y-37316625D01*
X68021323Y-37317556D01*
X68021325Y-37317557D01*
X68067426Y-37323708D01*
X68183015Y-37339131D01*
X68190026Y-37338493D01*
X68190030Y-37338493D01*
X68345461Y-37324347D01*
X68352482Y-37323708D01*
X68359184Y-37321530D01*
X68359186Y-37321530D01*
X68507623Y-37273300D01*
X68507626Y-37273299D01*
X68514322Y-37271123D01*
X68613282Y-37212131D01*
X68654434Y-37187600D01*
X68654437Y-37187598D01*
X68660489Y-37183990D01*
X68783720Y-37066638D01*
X68787617Y-37060772D01*
X68792149Y-37055372D01*
X68794203Y-37057096D01*
X68839177Y-37019302D01*
X68909596Y-37010263D01*
X68973723Y-37040731D01*
X69011254Y-37101234D01*
X69039461Y-37203641D01*
X69123922Y-37363836D01*
X69128327Y-37369049D01*
X69128330Y-37369053D01*
X69236406Y-37496943D01*
X69236410Y-37496947D01*
X69240813Y-37502157D01*
X69246237Y-37506304D01*
X69246238Y-37506305D01*
X69379257Y-37608006D01*
X69379261Y-37608009D01*
X69384678Y-37612150D01*
X69467287Y-37650671D01*
X69542631Y-37685805D01*
X69542634Y-37685806D01*
X69548808Y-37688685D01*
X69555456Y-37690171D01*
X69555459Y-37690172D01*
X69661421Y-37713857D01*
X69725543Y-37728190D01*
X69731088Y-37728500D01*
X69864244Y-37728500D01*
X69999037Y-37713857D01*
X70005501Y-37711682D01*
X70005504Y-37711681D01*
X70072716Y-37689061D01*
X70074811Y-37688356D01*
X70145753Y-37685586D01*
X70206932Y-37721609D01*
X70238923Y-37784990D01*
X70241000Y-37807775D01*
X70241000Y-37991657D01*
X70241301Y-37997805D01*
X70254812Y-38135603D01*
X70257195Y-38147638D01*
X70310767Y-38325076D01*
X70315441Y-38336416D01*
X70402460Y-38500077D01*
X70409249Y-38510294D01*
X70526397Y-38653933D01*
X70535041Y-38662637D01*
X70677856Y-38780784D01*
X70688027Y-38787644D01*
X70851076Y-38875804D01*
X70862381Y-38880556D01*
X70977692Y-38916250D01*
X70991795Y-38916456D01*
X70995000Y-38909701D01*
X70995000Y-38902924D01*
X71503000Y-38902924D01*
X71506973Y-38916455D01*
X71514768Y-38917575D01*
X71622521Y-38885862D01*
X71633889Y-38881269D01*
X71798154Y-38795393D01*
X71808415Y-38788679D01*
X71952873Y-38672532D01*
X71961632Y-38663954D01*
X72080778Y-38521961D01*
X72087708Y-38511841D01*
X72177002Y-38349415D01*
X72181834Y-38338142D01*
X72237880Y-38161462D01*
X72240430Y-38149468D01*
X72256607Y-38005239D01*
X72257000Y-37998215D01*
X72257000Y-37667115D01*
X72252525Y-37651876D01*
X72251135Y-37650671D01*
X72243452Y-37649000D01*
X71521115Y-37649000D01*
X71505876Y-37653475D01*
X71504671Y-37654865D01*
X71503000Y-37662548D01*
X71503000Y-38902924D01*
X70995000Y-38902924D01*
X70995000Y-37267000D01*
X71015002Y-37198879D01*
X71068658Y-37152386D01*
X71121000Y-37141000D01*
X72238885Y-37141000D01*
X72254124Y-37136525D01*
X72255329Y-37135135D01*
X72257000Y-37127452D01*
X72257000Y-36798343D01*
X72256699Y-36792195D01*
X72243188Y-36654397D01*
X72240805Y-36642362D01*
X72187233Y-36464924D01*
X72182559Y-36453584D01*
X72095540Y-36289923D01*
X72085342Y-36274574D01*
X72087461Y-36273166D01*
X72064238Y-36217960D01*
X72076459Y-36148023D01*
X72124923Y-36095574D01*
X72136549Y-36088644D01*
X72170341Y-36068500D01*
X72210434Y-36044600D01*
X72210437Y-36044598D01*
X72216489Y-36040990D01*
X72339720Y-35923638D01*
X72345994Y-35914196D01*
X72398215Y-35835596D01*
X72433890Y-35781902D01*
X72442838Y-35758347D01*
X72491817Y-35629409D01*
X72491818Y-35629406D01*
X72494318Y-35622824D01*
X72518000Y-35454313D01*
X72518298Y-35433000D01*
X72507853Y-35339879D01*
X72500115Y-35270888D01*
X72500114Y-35270885D01*
X72499330Y-35263892D01*
X72443367Y-35103190D01*
X72423115Y-35070779D01*
X72356925Y-34964853D01*
X72353192Y-34958879D01*
X72294459Y-34899735D01*
X72260652Y-34837305D01*
X72258478Y-34804847D01*
X72258212Y-34804843D01*
X72258258Y-34801563D01*
X72258258Y-34801561D01*
X72258510Y-34783530D01*
X72239542Y-34614422D01*
X72183579Y-34453720D01*
X72128387Y-34365393D01*
X72097137Y-34315383D01*
X72093404Y-34309409D01*
X72081675Y-34297598D01*
X72068736Y-34284568D01*
X72034929Y-34222137D01*
X72040241Y-34151339D01*
X72061620Y-34114793D01*
X72080778Y-34091961D01*
X72087708Y-34081841D01*
X72177002Y-33919415D01*
X72181834Y-33908142D01*
X72237880Y-33731462D01*
X72240430Y-33719468D01*
X72256607Y-33575239D01*
X72257000Y-33568215D01*
X72257000Y-33487115D01*
X72252525Y-33471876D01*
X72251135Y-33470671D01*
X72243452Y-33469000D01*
X70259115Y-33469000D01*
X70243876Y-33473475D01*
X70242671Y-33474865D01*
X70241000Y-33482548D01*
X70241000Y-33561657D01*
X70241301Y-33567805D01*
X70254812Y-33705603D01*
X70257195Y-33717638D01*
X70310767Y-33895076D01*
X70315443Y-33906421D01*
X70345461Y-33962878D01*
X70359780Y-34032415D01*
X70334232Y-34098656D01*
X70276926Y-34140568D01*
X70234209Y-34148030D01*
X67276490Y-34148030D01*
X67265256Y-34147500D01*
X67257751Y-34145822D01*
X67190041Y-34147950D01*
X67189458Y-34147968D01*
X67185501Y-34148030D01*
X67157487Y-34148030D01*
X67153562Y-34148526D01*
X67153561Y-34148526D01*
X67153466Y-34148538D01*
X67141621Y-34149471D01*
X67111800Y-34150408D01*
X67105188Y-34150616D01*
X67105187Y-34150616D01*
X67097265Y-34150865D01*
X67077722Y-34156543D01*
X67058358Y-34160553D01*
X67046030Y-34162110D01*
X67046028Y-34162110D01*
X67038171Y-34163103D01*
X67030807Y-34166019D01*
X67030802Y-34166020D01*
X66996914Y-34179437D01*
X66985685Y-34183282D01*
X66971711Y-34187342D01*
X66943077Y-34195661D01*
X66936251Y-34199698D01*
X66925561Y-34206020D01*
X66907811Y-34214717D01*
X66888882Y-34222211D01*
X66882466Y-34226872D01*
X66882465Y-34226873D01*
X66852989Y-34248289D01*
X66843065Y-34254808D01*
X66811694Y-34273360D01*
X66811689Y-34273364D01*
X66804871Y-34277396D01*
X66790484Y-34291783D01*
X66775450Y-34304624D01*
X66758983Y-34316588D01*
X66753930Y-34322696D01*
X66730698Y-34350779D01*
X66722708Y-34359559D01*
X65404998Y-35677269D01*
X65356508Y-35707452D01*
X65213674Y-35756076D01*
X65213671Y-35756077D01*
X65207004Y-35758347D01*
X65062067Y-35847513D01*
X65057036Y-35852440D01*
X65057033Y-35852442D01*
X65025751Y-35883076D01*
X64940486Y-35966573D01*
X64848305Y-36109611D01*
X64845896Y-36116231D01*
X64845895Y-36116232D01*
X64805908Y-36226095D01*
X64763814Y-36283266D01*
X64697492Y-36308604D01*
X64628001Y-36294063D01*
X64610978Y-36283096D01*
X64478743Y-36181994D01*
X64478739Y-36181991D01*
X64473322Y-36177850D01*
X64362228Y-36126046D01*
X64315369Y-36104195D01*
X64315366Y-36104194D01*
X64309192Y-36101315D01*
X64302544Y-36099829D01*
X64302541Y-36099828D01*
X64137494Y-36062936D01*
X64137495Y-36062936D01*
X64132457Y-36061810D01*
X64126912Y-36061500D01*
X63993756Y-36061500D01*
X63858963Y-36076143D01*
X63775609Y-36104195D01*
X63693796Y-36131728D01*
X63693794Y-36131729D01*
X63687325Y-36133906D01*
X63540962Y-36221849D01*
X63472273Y-36239788D01*
X63404786Y-36217741D01*
X63378428Y-36193481D01*
X63331603Y-36136067D01*
X63322959Y-36127363D01*
X63180144Y-36009216D01*
X63169973Y-36002356D01*
X63006924Y-35914196D01*
X62995619Y-35909444D01*
X62880308Y-35873750D01*
X62866205Y-35873544D01*
X62863000Y-35880299D01*
X62863000Y-38902924D01*
X62355000Y-38902924D01*
X62355000Y-37667115D01*
X62350525Y-37651876D01*
X62349135Y-37650671D01*
X62341452Y-37649000D01*
X61619115Y-37649000D01*
X61603876Y-37653475D01*
X61602671Y-37654865D01*
X61601000Y-37662548D01*
X61601000Y-37991657D01*
X50519500Y-37991657D01*
X50519500Y-37122885D01*
X61601000Y-37122885D01*
X61605475Y-37138124D01*
X61606865Y-37139329D01*
X61614548Y-37141000D01*
X62336885Y-37141000D01*
X62352124Y-37136525D01*
X62353329Y-37135135D01*
X62355000Y-37127452D01*
X62355000Y-35887076D01*
X62351027Y-35873545D01*
X62343232Y-35872425D01*
X62235479Y-35904138D01*
X62224111Y-35908731D01*
X62059846Y-35994607D01*
X62049585Y-36001321D01*
X61905127Y-36117468D01*
X61896368Y-36126046D01*
X61777222Y-36268039D01*
X61770292Y-36278159D01*
X61680998Y-36440585D01*
X61676166Y-36451858D01*
X61620120Y-36628538D01*
X61617570Y-36640532D01*
X61601393Y-36784761D01*
X61601000Y-36791785D01*
X61601000Y-37122885D01*
X50519500Y-37122885D01*
X50519500Y-36306889D01*
X50540552Y-36237161D01*
X50589890Y-36162902D01*
X50600460Y-36135077D01*
X50647817Y-36010409D01*
X50647818Y-36010406D01*
X50650318Y-36003824D01*
X50674000Y-35835313D01*
X50674298Y-35814000D01*
X50655330Y-35644892D01*
X50599367Y-35484190D01*
X50593382Y-35474611D01*
X50512925Y-35345853D01*
X50509192Y-35339879D01*
X50427129Y-35257242D01*
X50394249Y-35224131D01*
X50394245Y-35224128D01*
X50389285Y-35219133D01*
X50245608Y-35127952D01*
X50085300Y-35070869D01*
X49916329Y-35050721D01*
X49909326Y-35051457D01*
X49909325Y-35051457D01*
X49754101Y-35067771D01*
X49754097Y-35067772D01*
X49747093Y-35068508D01*
X49740422Y-35070779D01*
X49592674Y-35121076D01*
X49592671Y-35121077D01*
X49586004Y-35123347D01*
X49580006Y-35127037D01*
X49580004Y-35127038D01*
X49572379Y-35131729D01*
X49441067Y-35212513D01*
X49436036Y-35217440D01*
X49436033Y-35217442D01*
X49395391Y-35257242D01*
X49319486Y-35331573D01*
X49227305Y-35474611D01*
X49224896Y-35481231D01*
X49224895Y-35481232D01*
X49171642Y-35627542D01*
X49169104Y-35634516D01*
X49147776Y-35803343D01*
X49164382Y-35972699D01*
X49166606Y-35979384D01*
X49166606Y-35979385D01*
X49176926Y-36010409D01*
X49218095Y-36134167D01*
X49221742Y-36140189D01*
X49221743Y-36140191D01*
X49284276Y-36243445D01*
X49302500Y-36308716D01*
X49302500Y-42549761D01*
X49282498Y-42617882D01*
X49228842Y-42664375D01*
X49158568Y-42674479D01*
X49093988Y-42644985D01*
X49087405Y-42638856D01*
X48016405Y-41567856D01*
X47982379Y-41505544D01*
X47979500Y-41478761D01*
X47979500Y-39989889D01*
X48000552Y-39920161D01*
X48045995Y-39851764D01*
X48049890Y-39845902D01*
X48059752Y-39819940D01*
X48107817Y-39693409D01*
X48107818Y-39693406D01*
X48110318Y-39686824D01*
X48134000Y-39518313D01*
X48134298Y-39497000D01*
X48122435Y-39391234D01*
X48116115Y-39334888D01*
X48116114Y-39334885D01*
X48115330Y-39327892D01*
X48059367Y-39167190D01*
X48053382Y-39157611D01*
X47972925Y-39028853D01*
X47969192Y-39022879D01*
X47864620Y-38917575D01*
X47854249Y-38907131D01*
X47854245Y-38907128D01*
X47849285Y-38902133D01*
X47705608Y-38810952D01*
X47545300Y-38753869D01*
X47376329Y-38733721D01*
X47369326Y-38734457D01*
X47369325Y-38734457D01*
X47214101Y-38750771D01*
X47214097Y-38750772D01*
X47207093Y-38751508D01*
X47200422Y-38753779D01*
X47052674Y-38804076D01*
X47052671Y-38804077D01*
X47046004Y-38806347D01*
X47040006Y-38810037D01*
X47040004Y-38810038D01*
X47032379Y-38814729D01*
X46901067Y-38895513D01*
X46896036Y-38900440D01*
X46896033Y-38900442D01*
X46852543Y-38943031D01*
X46779486Y-39014573D01*
X46687305Y-39157611D01*
X46684896Y-39164231D01*
X46684895Y-39164232D01*
X46651364Y-39256357D01*
X46629104Y-39317516D01*
X46607776Y-39486343D01*
X42329500Y-39486343D01*
X42329500Y-33561657D01*
X61601000Y-33561657D01*
X61601301Y-33567805D01*
X61614812Y-33705603D01*
X61617195Y-33717638D01*
X61670767Y-33895076D01*
X61675441Y-33906416D01*
X61762460Y-34070077D01*
X61769249Y-34080294D01*
X61886397Y-34223933D01*
X61895041Y-34232637D01*
X62037856Y-34350784D01*
X62048027Y-34357644D01*
X62211076Y-34445804D01*
X62222381Y-34450556D01*
X62337692Y-34486250D01*
X62351795Y-34486456D01*
X62355000Y-34479701D01*
X62355000Y-34472924D01*
X62863000Y-34472924D01*
X62866973Y-34486455D01*
X62874768Y-34487575D01*
X62982521Y-34455862D01*
X62993889Y-34451269D01*
X63158154Y-34365393D01*
X63168415Y-34358679D01*
X63312873Y-34242532D01*
X63321632Y-34233954D01*
X63440778Y-34091961D01*
X63447708Y-34081841D01*
X63537002Y-33919415D01*
X63541834Y-33908142D01*
X63597880Y-33731462D01*
X63600430Y-33719468D01*
X63616607Y-33575239D01*
X63617000Y-33568215D01*
X63617000Y-33487115D01*
X63612525Y-33471876D01*
X63611135Y-33470671D01*
X63603452Y-33469000D01*
X62881115Y-33469000D01*
X62865876Y-33473475D01*
X62864671Y-33474865D01*
X62863000Y-33482548D01*
X62863000Y-34472924D01*
X62355000Y-34472924D01*
X62355000Y-33487115D01*
X62350525Y-33471876D01*
X62349135Y-33470671D01*
X62341452Y-33469000D01*
X61619115Y-33469000D01*
X61603876Y-33473475D01*
X61602671Y-33474865D01*
X61601000Y-33482548D01*
X61601000Y-33561657D01*
X42329500Y-33561657D01*
X42329500Y-32942885D01*
X61601000Y-32942885D01*
X61605475Y-32958124D01*
X61606865Y-32959329D01*
X61614548Y-32961000D01*
X62336885Y-32961000D01*
X62352124Y-32956525D01*
X62353329Y-32955135D01*
X62355000Y-32947452D01*
X62355000Y-32942885D01*
X62863000Y-32942885D01*
X62867475Y-32958124D01*
X62868865Y-32959329D01*
X62876548Y-32961000D01*
X63598885Y-32961000D01*
X63614124Y-32956525D01*
X63615329Y-32955135D01*
X63617000Y-32947452D01*
X63617000Y-32942885D01*
X70241000Y-32942885D01*
X70245475Y-32958124D01*
X70246865Y-32959329D01*
X70254548Y-32961000D01*
X70976885Y-32961000D01*
X70992124Y-32956525D01*
X70993329Y-32955135D01*
X70995000Y-32947452D01*
X70995000Y-32942885D01*
X71503000Y-32942885D01*
X71507475Y-32958124D01*
X71508865Y-32959329D01*
X71516548Y-32961000D01*
X72238885Y-32961000D01*
X72254124Y-32956525D01*
X72255329Y-32955135D01*
X72257000Y-32947452D01*
X72257000Y-32868343D01*
X72256699Y-32862195D01*
X72243188Y-32724397D01*
X72240805Y-32712362D01*
X72213186Y-32620885D01*
X83298000Y-32620885D01*
X83302475Y-32636124D01*
X83303865Y-32637329D01*
X83311548Y-32639000D01*
X84383885Y-32639000D01*
X84399124Y-32634525D01*
X84400329Y-32633135D01*
X84402000Y-32625452D01*
X84402000Y-32620885D01*
X84910000Y-32620885D01*
X84914475Y-32636124D01*
X84915865Y-32637329D01*
X84923548Y-32639000D01*
X85995884Y-32639000D01*
X86011123Y-32634525D01*
X86012328Y-32633135D01*
X86013999Y-32625452D01*
X86013999Y-32620885D01*
X87948000Y-32620885D01*
X87952475Y-32636124D01*
X87953865Y-32637329D01*
X87961548Y-32639000D01*
X89033885Y-32639000D01*
X89049124Y-32634525D01*
X89050329Y-32633135D01*
X89052000Y-32625452D01*
X89052000Y-32620885D01*
X89560000Y-32620885D01*
X89564475Y-32636124D01*
X89565865Y-32637329D01*
X89573548Y-32639000D01*
X90645884Y-32639000D01*
X90661123Y-32634525D01*
X90662328Y-32633135D01*
X90663999Y-32625452D01*
X90663999Y-31998331D01*
X90663629Y-31991510D01*
X90658105Y-31940648D01*
X90654479Y-31925396D01*
X90609324Y-31804946D01*
X90600786Y-31789351D01*
X90524285Y-31687276D01*
X90511724Y-31674715D01*
X90409649Y-31598214D01*
X90394054Y-31589676D01*
X90273606Y-31544522D01*
X90258351Y-31540895D01*
X90207486Y-31535369D01*
X90200672Y-31535000D01*
X89578115Y-31535000D01*
X89562876Y-31539475D01*
X89561671Y-31540865D01*
X89560000Y-31548548D01*
X89560000Y-32620885D01*
X89052000Y-32620885D01*
X89052000Y-31553116D01*
X89047525Y-31537877D01*
X89046135Y-31536672D01*
X89038452Y-31535001D01*
X88411331Y-31535001D01*
X88404510Y-31535371D01*
X88353648Y-31540895D01*
X88338396Y-31544521D01*
X88217946Y-31589676D01*
X88202351Y-31598214D01*
X88100276Y-31674715D01*
X88087715Y-31687276D01*
X88011214Y-31789351D01*
X88002676Y-31804946D01*
X87957522Y-31925394D01*
X87953895Y-31940649D01*
X87948369Y-31991514D01*
X87948000Y-31998328D01*
X87948000Y-32620885D01*
X86013999Y-32620885D01*
X86013999Y-31998331D01*
X86013629Y-31991510D01*
X86008105Y-31940648D01*
X86004479Y-31925396D01*
X85959324Y-31804946D01*
X85950786Y-31789351D01*
X85874285Y-31687276D01*
X85861724Y-31674715D01*
X85759649Y-31598214D01*
X85744054Y-31589676D01*
X85623606Y-31544522D01*
X85608351Y-31540895D01*
X85557486Y-31535369D01*
X85550672Y-31535000D01*
X84928115Y-31535000D01*
X84912876Y-31539475D01*
X84911671Y-31540865D01*
X84910000Y-31548548D01*
X84910000Y-32620885D01*
X84402000Y-32620885D01*
X84402000Y-31553116D01*
X84397525Y-31537877D01*
X84396135Y-31536672D01*
X84388452Y-31535001D01*
X83761331Y-31535001D01*
X83754510Y-31535371D01*
X83703648Y-31540895D01*
X83688396Y-31544521D01*
X83567946Y-31589676D01*
X83552351Y-31598214D01*
X83450276Y-31674715D01*
X83437715Y-31687276D01*
X83361214Y-31789351D01*
X83352676Y-31804946D01*
X83307522Y-31925394D01*
X83303895Y-31940649D01*
X83298369Y-31991514D01*
X83298000Y-31998328D01*
X83298000Y-32620885D01*
X72213186Y-32620885D01*
X72187233Y-32534924D01*
X72182559Y-32523584D01*
X72095540Y-32359923D01*
X72088751Y-32349706D01*
X71971603Y-32206067D01*
X71962959Y-32197363D01*
X71820144Y-32079216D01*
X71809973Y-32072356D01*
X71646924Y-31984196D01*
X71635619Y-31979444D01*
X71520308Y-31943750D01*
X71506205Y-31943544D01*
X71503000Y-31950299D01*
X71503000Y-32942885D01*
X70995000Y-32942885D01*
X70995000Y-31957076D01*
X70991027Y-31943545D01*
X70983232Y-31942425D01*
X70875479Y-31974138D01*
X70864111Y-31978731D01*
X70699846Y-32064607D01*
X70689585Y-32071321D01*
X70545127Y-32187468D01*
X70536368Y-32196046D01*
X70417222Y-32338039D01*
X70410292Y-32348159D01*
X70320998Y-32510585D01*
X70316166Y-32521858D01*
X70260120Y-32698538D01*
X70257570Y-32710532D01*
X70241393Y-32854761D01*
X70241000Y-32861785D01*
X70241000Y-32942885D01*
X63617000Y-32942885D01*
X63617000Y-32868343D01*
X63616699Y-32862195D01*
X63603188Y-32724397D01*
X63600805Y-32712362D01*
X63547233Y-32534924D01*
X63542559Y-32523584D01*
X63455540Y-32359923D01*
X63448751Y-32349706D01*
X63331603Y-32206067D01*
X63322959Y-32197363D01*
X63180144Y-32079216D01*
X63169973Y-32072356D01*
X63006924Y-31984196D01*
X62995619Y-31979444D01*
X62880308Y-31943750D01*
X62866205Y-31943544D01*
X62863000Y-31950299D01*
X62863000Y-32942885D01*
X62355000Y-32942885D01*
X62355000Y-31957076D01*
X62351027Y-31943545D01*
X62343232Y-31942425D01*
X62235479Y-31974138D01*
X62224111Y-31978731D01*
X62059846Y-32064607D01*
X62049585Y-32071321D01*
X61905127Y-32187468D01*
X61896368Y-32196046D01*
X61777222Y-32338039D01*
X61770292Y-32348159D01*
X61680998Y-32510585D01*
X61676166Y-32521858D01*
X61620120Y-32698538D01*
X61617570Y-32710532D01*
X61601393Y-32854761D01*
X61601000Y-32861785D01*
X61601000Y-32942885D01*
X42329500Y-32942885D01*
X42329500Y-30644500D01*
X42349502Y-30576379D01*
X42403158Y-30529886D01*
X42455500Y-30518500D01*
X91186500Y-30518500D01*
X91254621Y-30538502D01*
G37*
%TD.AperFunction*%
%TD*%
M02*
