%TF.GenerationSoftware,KiCad,Pcbnew,(6.0.5)*%
%TF.CreationDate,2022-07-08T09:53:05+08:00*%
%TF.ProjectId,ESP32C3,45535033-3243-4332-9e6b-696361645f70,rev?*%
%TF.SameCoordinates,Original*%
%TF.FileFunction,Soldermask,Bot*%
%TF.FilePolarity,Negative*%
%FSLAX46Y46*%
G04 Gerber Fmt 4.6, Leading zero omitted, Abs format (unit mm)*
G04 Created by KiCad (PCBNEW (6.0.5)) date 2022-07-08 09:53:05*
%MOMM*%
%LPD*%
G01*
G04 APERTURE LIST*
%ADD10R,1.700000X1.700000*%
%ADD11O,1.700000X1.700000*%
%ADD12C,0.650000*%
%ADD13O,1.000000X1.600000*%
%ADD14O,1.000000X2.100000*%
G04 APERTURE END LIST*
D10*
%TO.C,J4*%
X89306000Y-32893000D03*
D11*
X89306000Y-35433000D03*
X89306000Y-37973000D03*
X89306000Y-40513000D03*
X89306000Y-43053000D03*
X89306000Y-45593000D03*
X89306000Y-48133000D03*
X89306000Y-50673000D03*
X89306000Y-53213000D03*
X89306000Y-55753000D03*
X89306000Y-58293000D03*
X89306000Y-60833000D03*
X89306000Y-63373000D03*
X89306000Y-65913000D03*
X89306000Y-68453000D03*
X89306000Y-70993000D03*
X89306000Y-73533000D03*
X89306000Y-76073000D03*
%TD*%
D12*
%TO.C,J1*%
X69819000Y-36895000D03*
X64039000Y-36895000D03*
D13*
X62609000Y-33215000D03*
D14*
X62609000Y-37395000D03*
X71249000Y-37395000D03*
D13*
X71249000Y-33215000D03*
%TD*%
D10*
%TO.C,J3*%
X84656000Y-32893000D03*
D11*
X84656000Y-35433000D03*
X84656000Y-37973000D03*
X84656000Y-40513000D03*
X84656000Y-43053000D03*
X84656000Y-45593000D03*
X84656000Y-48133000D03*
X84656000Y-50673000D03*
X84656000Y-53213000D03*
X84656000Y-55753000D03*
X84656000Y-58293000D03*
X84656000Y-60833000D03*
X84656000Y-63373000D03*
X84656000Y-65913000D03*
X84656000Y-68453000D03*
X84656000Y-70993000D03*
X84656000Y-73533000D03*
X84656000Y-76073000D03*
%TD*%
M02*
