%TF.GenerationSoftware,KiCad,Pcbnew,(6.0.5)*%
%TF.CreationDate,2022-07-08T09:53:05+08:00*%
%TF.ProjectId,ESP32C3,45535033-3243-4332-9e6b-696361645f70,rev?*%
%TF.SameCoordinates,Original*%
%TF.FileFunction,Soldermask,Top*%
%TF.FilePolarity,Negative*%
%FSLAX46Y46*%
G04 Gerber Fmt 4.6, Leading zero omitted, Abs format (unit mm)*
G04 Created by KiCad (PCBNEW (6.0.5)) date 2022-07-08 09:53:05*
%MOMM*%
%LPD*%
G01*
G04 APERTURE LIST*
G04 Aperture macros list*
%AMRoundRect*
0 Rectangle with rounded corners*
0 $1 Rounding radius*
0 $2 $3 $4 $5 $6 $7 $8 $9 X,Y pos of 4 corners*
0 Add a 4 corners polygon primitive as box body*
4,1,4,$2,$3,$4,$5,$6,$7,$8,$9,$2,$3,0*
0 Add four circle primitives for the rounded corners*
1,1,$1+$1,$2,$3*
1,1,$1+$1,$4,$5*
1,1,$1+$1,$6,$7*
1,1,$1+$1,$8,$9*
0 Add four rect primitives between the rounded corners*
20,1,$1+$1,$2,$3,$4,$5,0*
20,1,$1+$1,$4,$5,$6,$7,0*
20,1,$1+$1,$6,$7,$8,$9,0*
20,1,$1+$1,$8,$9,$2,$3,0*%
%AMRotRect*
0 Rectangle, with rotation*
0 The origin of the aperture is its center*
0 $1 length*
0 $2 width*
0 $3 Rotation angle, in degrees counterclockwise*
0 Add horizontal line*
21,1,$1,$2,0,0,$3*%
G04 Aperture macros list end*
%ADD10RoundRect,0.225000X0.225000X0.250000X-0.225000X0.250000X-0.225000X-0.250000X0.225000X-0.250000X0*%
%ADD11RoundRect,0.200000X0.275000X-0.200000X0.275000X0.200000X-0.275000X0.200000X-0.275000X-0.200000X0*%
%ADD12R,1.700000X1.700000*%
%ADD13O,1.700000X1.700000*%
%ADD14RoundRect,0.200000X-0.275000X0.200000X-0.275000X-0.200000X0.275000X-0.200000X0.275000X0.200000X0*%
%ADD15RoundRect,0.225000X0.017678X-0.335876X0.335876X-0.017678X-0.017678X0.335876X-0.335876X0.017678X0*%
%ADD16RoundRect,0.225000X-0.225000X-0.250000X0.225000X-0.250000X0.225000X0.250000X-0.225000X0.250000X0*%
%ADD17R,1.900000X1.500000*%
%ADD18RoundRect,0.200000X-0.200000X-0.275000X0.200000X-0.275000X0.200000X0.275000X-0.200000X0.275000X0*%
%ADD19RoundRect,0.150000X-0.150000X0.512500X-0.150000X-0.512500X0.150000X-0.512500X0.150000X0.512500X0*%
%ADD20C,0.650000*%
%ADD21R,0.300000X1.150000*%
%ADD22O,1.000000X1.600000*%
%ADD23O,1.000000X2.100000*%
%ADD24R,1.400000X1.200000*%
%ADD25R,0.648000X0.790000*%
%ADD26RoundRect,0.218750X0.256250X-0.218750X0.256250X0.218750X-0.256250X0.218750X-0.256250X-0.218750X0*%
%ADD27RoundRect,0.062500X-0.220971X-0.309359X0.309359X0.220971X0.220971X0.309359X-0.309359X-0.220971X0*%
%ADD28RoundRect,0.062500X0.220971X-0.309359X0.309359X-0.220971X-0.220971X0.309359X-0.309359X0.220971X0*%
%ADD29RotRect,3.450000X3.450000X45.000000*%
%ADD30RoundRect,0.250000X0.250000X0.475000X-0.250000X0.475000X-0.250000X-0.475000X0.250000X-0.475000X0*%
%ADD31R,1.500000X2.000000*%
%ADD32R,3.800000X2.000000*%
%ADD33RoundRect,0.218750X-0.424264X-0.114905X-0.114905X-0.424264X0.424264X0.114905X0.114905X0.424264X0*%
%ADD34RoundRect,0.225000X0.250000X-0.225000X0.250000X0.225000X-0.250000X0.225000X-0.250000X-0.225000X0*%
%ADD35R,1.000000X2.500000*%
%ADD36RoundRect,0.225000X-0.250000X0.225000X-0.250000X-0.225000X0.250000X-0.225000X0.250000X0.225000X0*%
%ADD37RoundRect,0.225000X0.335876X0.017678X0.017678X0.335876X-0.335876X-0.017678X-0.017678X-0.335876X0*%
%ADD38RoundRect,0.250000X-0.625000X0.375000X-0.625000X-0.375000X0.625000X-0.375000X0.625000X0.375000X0*%
%ADD39RoundRect,0.250000X-0.250000X-0.475000X0.250000X-0.475000X0.250000X0.475000X-0.250000X0.475000X0*%
G04 APERTURE END LIST*
D10*
%TO.C,C15*%
X78753000Y-37973000D03*
X77203000Y-37973000D03*
%TD*%
D11*
%TO.C,R4*%
X47371000Y-38290000D03*
X47371000Y-36640000D03*
%TD*%
D10*
%TO.C,C3*%
X60846000Y-52451000D03*
X59296000Y-52451000D03*
%TD*%
D12*
%TO.C,J4*%
X89306000Y-32893000D03*
D13*
X89306000Y-35433000D03*
X89306000Y-37973000D03*
X89306000Y-40513000D03*
X89306000Y-43053000D03*
X89306000Y-45593000D03*
X89306000Y-48133000D03*
X89306000Y-50673000D03*
X89306000Y-53213000D03*
X89306000Y-55753000D03*
X89306000Y-58293000D03*
X89306000Y-60833000D03*
X89306000Y-63373000D03*
X89306000Y-65913000D03*
X89306000Y-68453000D03*
X89306000Y-70993000D03*
X89306000Y-73533000D03*
X89306000Y-76073000D03*
%TD*%
D14*
%TO.C,R3*%
X67945000Y-47689000D03*
X67945000Y-49339000D03*
%TD*%
D15*
%TO.C,C10*%
X71460992Y-59857008D03*
X72557008Y-58760992D03*
%TD*%
D16*
%TO.C,C2*%
X54492000Y-72686000D03*
X56042000Y-72686000D03*
%TD*%
D11*
%TO.C,R6*%
X80518000Y-40957000D03*
X80518000Y-39307000D03*
%TD*%
D17*
%TO.C,SW2*%
X73724000Y-32385000D03*
X81724000Y-32385000D03*
%TD*%
D14*
%TO.C,R1*%
X73660000Y-37910000D03*
X73660000Y-39560000D03*
%TD*%
D18*
%TO.C,R10*%
X77153000Y-39624000D03*
X78803000Y-39624000D03*
%TD*%
D19*
%TO.C,U1*%
X67879000Y-42804500D03*
X66929000Y-42804500D03*
X65979000Y-42804500D03*
X65979000Y-45079500D03*
X66929000Y-45079500D03*
X67879000Y-45079500D03*
%TD*%
D16*
%TO.C,C9*%
X72377000Y-64135000D03*
X73927000Y-64135000D03*
%TD*%
D15*
%TO.C,C8*%
X61300992Y-60619008D03*
X62397008Y-59522992D03*
%TD*%
D20*
%TO.C,J1*%
X69819000Y-36895000D03*
X64039000Y-36895000D03*
D21*
X70279000Y-37960000D03*
X69479000Y-37960000D03*
X68179000Y-37960000D03*
X67179000Y-37960000D03*
X66679000Y-37960000D03*
X65679000Y-37960000D03*
X64379000Y-37960000D03*
X63579000Y-37960000D03*
X63879000Y-37960000D03*
X64679000Y-37960000D03*
X65179000Y-37960000D03*
X66179000Y-37960000D03*
X67679000Y-37960000D03*
X68679000Y-37960000D03*
X69179000Y-37960000D03*
X69979000Y-37960000D03*
D22*
X62609000Y-33215000D03*
D23*
X62609000Y-37395000D03*
X71249000Y-37395000D03*
D22*
X71249000Y-33215000D03*
%TD*%
D10*
%TO.C,C12*%
X53988000Y-59817000D03*
X52438000Y-59817000D03*
%TD*%
%TO.C,C11*%
X53988000Y-58166000D03*
X52438000Y-58166000D03*
%TD*%
D24*
%TO.C,U2*%
X60790000Y-54395000D03*
X58590000Y-54395000D03*
X58590000Y-56095000D03*
X60790000Y-56095000D03*
%TD*%
D12*
%TO.C,J3*%
X84656000Y-32893000D03*
D13*
X84656000Y-35433000D03*
X84656000Y-37973000D03*
X84656000Y-40513000D03*
X84656000Y-43053000D03*
X84656000Y-45593000D03*
X84656000Y-48133000D03*
X84656000Y-50673000D03*
X84656000Y-53213000D03*
X84656000Y-55753000D03*
X84656000Y-58293000D03*
X84656000Y-60833000D03*
X84656000Y-63373000D03*
X84656000Y-65913000D03*
X84656000Y-68453000D03*
X84656000Y-70993000D03*
X84656000Y-73533000D03*
X84656000Y-76073000D03*
%TD*%
D14*
%TO.C,R2*%
X75438000Y-37910000D03*
X75438000Y-39560000D03*
%TD*%
D25*
%TO.C,D1*%
X55753000Y-36920000D03*
X55753000Y-38010000D03*
%TD*%
D26*
%TO.C,D2*%
X74676000Y-54293500D03*
X74676000Y-52718500D03*
%TD*%
D27*
%TO.C,U3*%
X63840990Y-61446136D03*
X64194544Y-61799689D03*
X64548097Y-62153243D03*
X64901651Y-62506796D03*
X65255204Y-62860349D03*
X65608757Y-63213903D03*
X65962311Y-63567456D03*
X66315864Y-63921010D03*
D28*
X67288136Y-63921010D03*
X67641689Y-63567456D03*
X67995243Y-63213903D03*
X68348796Y-62860349D03*
X68702349Y-62506796D03*
X69055903Y-62153243D03*
X69409456Y-61799689D03*
X69763010Y-61446136D03*
D27*
X69763010Y-60473864D03*
X69409456Y-60120311D03*
X69055903Y-59766757D03*
X68702349Y-59413204D03*
X68348796Y-59059651D03*
X67995243Y-58706097D03*
X67641689Y-58352544D03*
X67288136Y-57998990D03*
D28*
X66315864Y-57998990D03*
X65962311Y-58352544D03*
X65608757Y-58706097D03*
X65255204Y-59059651D03*
X64901651Y-59413204D03*
X64548097Y-59766757D03*
X64194544Y-60120311D03*
X63840990Y-60473864D03*
D29*
X66802000Y-60960000D03*
%TD*%
D30*
%TO.C,C6*%
X55560000Y-49911000D03*
X53660000Y-49911000D03*
%TD*%
D31*
%TO.C,U4*%
X53453000Y-47219000D03*
D32*
X55753000Y-40919000D03*
D31*
X55753000Y-47219000D03*
X58053000Y-47219000D03*
%TD*%
D14*
%TO.C,R8*%
X74676000Y-49594000D03*
X74676000Y-51244000D03*
%TD*%
%TO.C,R7*%
X80518000Y-68136000D03*
X80518000Y-69786000D03*
%TD*%
D33*
%TO.C,L2*%
X57414699Y-65161699D03*
X58917301Y-66664301D03*
%TD*%
D34*
%TO.C,C4*%
X56515000Y-56147000D03*
X56515000Y-54597000D03*
%TD*%
D35*
%TO.C,J2*%
X44831000Y-33719000D03*
X47371000Y-33719000D03*
X49911000Y-33719000D03*
X52451000Y-33719000D03*
%TD*%
D36*
%TO.C,C14*%
X74676000Y-82156000D03*
X74676000Y-83706000D03*
%TD*%
D15*
%TO.C,C7*%
X59522992Y-60111008D03*
X60619008Y-59014992D03*
%TD*%
D37*
%TO.C,C13*%
X60238008Y-65445008D03*
X59141992Y-64348992D03*
%TD*%
D16*
%TO.C,C1*%
X54492000Y-77444500D03*
X56042000Y-77444500D03*
%TD*%
D38*
%TO.C,F1*%
X58420000Y-35303000D03*
X58420000Y-38103000D03*
%TD*%
D39*
%TO.C,C5*%
X58105000Y-49911000D03*
X60005000Y-49911000D03*
%TD*%
D26*
%TO.C,L1*%
X54483000Y-75844500D03*
X54483000Y-74269500D03*
%TD*%
D17*
%TO.C,SW1*%
X85153000Y-82169000D03*
X77153000Y-82169000D03*
%TD*%
D11*
%TO.C,R9*%
X72136000Y-83756000D03*
X72136000Y-82106000D03*
%TD*%
D14*
%TO.C,R5*%
X65913000Y-47689000D03*
X65913000Y-49339000D03*
%TD*%
D26*
%TO.C,D3*%
X72644000Y-54293500D03*
X72644000Y-52718500D03*
%TD*%
D14*
%TO.C,R11*%
X72644000Y-49594000D03*
X72644000Y-51244000D03*
%TD*%
M02*
